<svg width="100%" height="100%" id="content-owners-icon" viewBox="0 0 800 533" version="1.1" xmlns="http://www.w3.org/2000/svg" xmlns:xlink="http://www.w3.org/1999/xlink" xml:space="preserve" style="fill-rule:evenodd;clip-rule:evenodd;stroke-linejoin:round;stroke-miterlimit:1.41421;" class="background-icon">
    <g transform="matrix(1.21799,0,0,1.21799,375.035,240.614)">
        <g transform="matrix(20.4638,0,0,20.4638,-306.372,-309.2)">
            <path d="M7.45,15.809C9.291,15.809 10.788,14.281 10.788,12.402C10.788,10.523 9.291,8.996 7.45,8.996C5.609,8.996 4.111,10.524 4.111,12.403C4.111,14.282 5.609,15.809 7.45,15.809ZM7.45,9.996C8.739,9.996 9.788,11.076 9.788,12.403C9.788,13.73 8.739,14.81 7.45,14.81C6.16,14.81 5.111,13.73 5.111,12.403C5.111,11.076 6.16,9.996 7.45,9.996Z" style="fill:black;"/>
        </g>
        <g transform="matrix(20.4638,0,0,20.4638,-306.372,-309.2)">
            <path d="M14.894,23.004L14.9,22.51C14.901,22.466 14.905,18.118 10.734,16.837L10.487,16.761L7.45,19.104L4.413,16.76L4.166,16.836C-0.004,18.118 0,22.466 0,22.51L0.006,23.004L14.894,23.004ZM4.218,17.873L7.45,20.368L10.681,17.873C13.186,18.768 13.742,21.002 13.865,22.004L1.038,22.004C1.169,21.004 1.737,18.762 4.218,17.873Z" style="fill:black;"/>
        </g>
        <g transform="matrix(20.4638,0,0,20.4638,-306.372,-309.2)">
            <path d="M24.55,15.809C26.391,15.809 27.889,14.281 27.889,12.402C27.889,10.523 26.391,8.995 24.55,8.995C22.709,8.995 21.212,10.523 21.212,12.402C21.212,14.281 22.709,15.809 24.55,15.809ZM24.55,9.996C25.84,9.996 26.889,11.076 26.889,12.403C26.889,13.73 25.84,14.81 24.55,14.81C23.261,14.81 22.212,13.73 22.212,12.403C22.212,11.076 23.261,9.996 24.55,9.996Z" style="fill:black;"/>
        </g>
        <g transform="matrix(20.4638,0,0,20.4638,-306.372,-309.2)">
            <path d="M31.994,23.004L32,22.51C32,22.466 32.004,18.118 27.834,16.837L27.587,16.761L24.55,19.105L21.514,16.761L21.267,16.837C17.096,18.119 17.1,22.466 17.101,22.51L17.107,23.004L31.994,23.004ZM21.318,17.873L24.549,20.368L27.781,17.873C30.286,18.768 30.842,21.002 30.965,22.004L18.139,22.004C18.269,21.004 18.837,18.762 21.318,17.873Z" style="fill:black;"/>
        </g>
    </g>
</svg>
