<svg width="100%" height="100%" viewBox="0 0 400 110" version="1.1" xmlns="http://www.w3.org/2000/svg" xmlns:xlink="http://www.w3.org/1999/xlink" xml:space="preserve" style="fill-rule:evenodd;clip-rule:evenodd;stroke-linejoin:round;stroke-miterlimit:1.41421;" id="contents-icon">
    <g>
        <g transform="matrix(1,0,0,1,5.54243,0.59335)">
            <path d="M7.072,13.048L19,13.048L19,25L7.072,25L7.072,13.048ZM7.072,37L19,37L19,49L7.072,49L7.072,37ZM7.072,61L19,61L19,73L7.072,73L7.072,61ZM7.072,85L19,85L19,97L7.072,97L7.072,85ZM31,13.048L103,13.048L103,25L31,25L31,13.048ZM31,37L103,37L103,49L31,49L31,37ZM31,61L103,61L103,73L31,73L31,61ZM31,85L103,85L103,97L31,97L31,85Z" style=""/>
        </g>
        <g transform="matrix(4.33265,0,0,7.59963,-522.085,-302.273)">
            <path d="M152.033,50.984C153.785,50.984 154.805,50.012 155.369,49.016L153.905,48.308C153.569,48.956 152.849,49.472 152.033,49.472C150.569,49.472 149.513,48.356 149.513,46.844C149.513,45.332 150.569,44.216 152.033,44.216C152.849,44.216 153.569,44.732 153.905,45.38L155.369,44.66C154.805,43.652 153.785,42.704 152.033,42.704C149.621,42.704 147.761,44.372 147.761,46.844C147.761,49.304 149.621,50.984 152.033,50.984Z" style="fill-rule:nonzero;"/>
            <path d="M160.193,50.984C162.605,50.984 164.369,49.256 164.369,46.844C164.369,44.432 162.605,42.704 160.193,42.704C157.769,42.704 156.005,44.432 156.005,46.844C156.005,49.256 157.769,50.984 160.193,50.984ZM160.193,49.472C158.705,49.472 157.757,48.332 157.757,46.844C157.757,45.344 158.705,44.216 160.193,44.216C161.669,44.216 162.617,45.344 162.617,46.844C162.617,48.332 161.669,49.472 160.193,49.472Z" style="fill-rule:nonzero;"/>
            <path d="M172.733,50.84L172.733,42.836L171.029,42.836L171.029,47.864L167.321,42.836L165.569,42.836L165.569,50.84L167.273,50.84L167.273,45.62L171.089,50.84L172.733,50.84Z" style="fill-rule:nonzero;"/>
            <path d="M177.881,50.84L177.881,44.336L180.209,44.336L180.209,42.836L173.825,42.836L173.825,44.336L176.165,44.336L176.165,50.84L177.881,50.84Z" style="fill-rule:nonzero;"/>
            <path d="M186.965,50.84L186.965,49.34L183.005,49.34L183.005,47.516L186.881,47.516L186.881,46.016L183.005,46.016L183.005,44.336L186.965,44.336L186.965,42.836L181.301,42.836L181.301,50.84L186.965,50.84Z" style="fill-rule:nonzero;"/>
            <path d="M195.461,50.84L195.461,42.836L193.757,42.836L193.757,47.864L190.049,42.836L188.297,42.836L188.297,50.84L190.001,50.84L190.001,45.62L193.817,50.84L195.461,50.84Z" style="fill-rule:nonzero;"/>
            <path d="M200.609,50.84L200.609,44.336L202.937,44.336L202.937,42.836L196.553,42.836L196.553,44.336L198.893,44.336L198.893,50.84L200.609,50.84Z" style="fill-rule:nonzero;"/>
            <path d="M206.801,50.984C208.949,50.984 210.005,49.88 210.005,48.416C210.005,45.428 205.409,46.28 205.409,45.02C205.409,44.54 205.817,44.228 206.537,44.228C207.353,44.228 208.217,44.504 208.865,45.104L209.813,43.832C209.021,43.1 207.965,42.716 206.693,42.716C204.809,42.716 203.657,43.82 203.657,45.152C203.657,48.164 208.265,47.192 208.265,48.584C208.265,49.052 207.821,49.472 206.873,49.472C205.769,49.472 204.893,48.968 204.329,48.38L203.393,49.712C204.149,50.468 205.253,50.984 206.801,50.984Z" style="fill-rule:nonzero;"/>
        </g>
    </g>
</svg>
