<svg width="100%" height="100%" viewBox="0 0 800 533" version="1.1" xmlns="http://www.w3.org/2000/svg" xmlns:xlink="http://www.w3.org/1999/xlink" xml:space="preserve" style="fill-rule:evenodd;clip-rule:evenodd;stroke-linejoin:round;stroke-miterlimit:1.41421;" id="digital-team-icon" class="background-icon">
    <g transform="matrix(13.3163,0,0,13.3163,117.147,-1.17824)">
        <path d="M17.25,2.285C17.25,1.501 17.884,0.867 18.671,0.867C19.452,0.867 20.088,1.501 20.088,2.285C20.088,3.072 19.452,3.707 18.671,3.707C17.883,3.708 17.25,3.072 17.25,2.285Z" style="fill-rule:nonzero;"/>
    </g>
    <g transform="matrix(13.3163,0,0,13.3163,117.147,-1.17824)">
        <circle cx="13.559" cy="2.288" r="0.851" style=""/>
    </g>
    <g transform="matrix(13.3163,0,0,13.3163,117.147,-1.17824)">
        <path d="M27.468,2.285C27.468,1.501 28.105,0.867 28.886,0.867C29.673,0.867 30.307,1.501 30.307,2.285C30.307,3.072 29.673,3.707 28.886,3.707C28.105,3.708 27.468,3.072 27.468,2.285Z" style="fill-rule:nonzero;"/>
    </g>
    <g transform="matrix(13.3163,0,0,13.3163,117.147,-1.17824)">
        <path d="M21.793,2.285C21.793,1.189 22.683,0.3 23.778,0.3C24.87,0.3 25.762,1.189 25.762,2.285C25.762,3.383 24.869,4.272 23.778,4.272C22.683,4.272 21.793,3.383 21.793,2.285Z" style="fill-rule:nonzero;"/>
    </g>
    <g transform="matrix(13.3163,0,0,13.3163,117.147,-1.17824)">
        <path d="M7.028,7.425C7.028,6.64 7.669,6.002 8.447,6.002C9.231,6.002 9.87,6.64 9.87,7.425C9.87,8.207 9.231,8.841 8.447,8.841C7.668,8.841 7.028,8.208 7.028,7.425Z" style="fill-rule:nonzero;"/>
    </g>
    <g transform="matrix(13.3163,0,0,13.3163,117.147,-1.17824)">
        <path d="M27.468,7.425C27.468,6.64 28.105,6.002 28.886,6.002C29.673,6.002 30.307,6.64 30.307,7.425C30.307,8.207 29.673,8.841 28.886,8.841C28.105,8.841 27.468,8.208 27.468,7.425Z" style="fill-rule:nonzero;"/>
    </g>
    <g transform="matrix(13.3163,0,0,13.3163,117.147,-1.17824)">
        <path d="M33.142,7.425C33.142,6.957 33.526,6.571 33.993,6.571C34.466,6.571 34.847,6.957 34.847,7.425C34.847,7.897 34.466,8.274 33.993,8.274C33.526,8.274 33.142,7.897 33.142,7.425Z" style="fill-rule:nonzero;"/>
    </g>
    <g transform="matrix(13.3163,0,0,13.3163,117.147,-1.17824)">
        <path d="M22.358,7.425C22.358,6.666 22.997,6.05 23.779,6.05C24.557,6.05 25.197,6.666 25.197,7.425C25.197,8.182 24.557,8.794 23.779,8.794C22.997,8.794 22.358,8.183 22.358,7.425Z" style="fill-rule:nonzero;"/>
    </g>
    <g transform="matrix(13.3163,0,0,13.3163,117.147,-1.17824)">
        <path d="M17.25,7.425C17.25,6.64 17.884,6.002 18.671,6.002C19.452,6.002 20.089,6.64 20.089,7.425C20.089,8.207 19.452,8.841 18.671,8.841C17.883,8.841 17.25,8.208 17.25,7.425Z" style="fill-rule:nonzero;"/>
    </g>
    <g transform="matrix(13.3163,0,0,13.3163,117.147,-1.17824)">
        <path d="M11.572,7.425C11.572,6.324 12.465,5.435 13.559,5.435C14.658,5.435 15.546,6.324 15.546,7.425C15.546,8.519 14.657,9.411 13.559,9.411C12.464,9.412 11.572,8.519 11.572,7.425Z" style="fill-rule:nonzero;"/>
    </g>
    <g transform="matrix(13.3163,0,0,13.3163,117.147,-1.17824)">
        <path d="M12.137,27.701C12.137,26.915 12.773,26.283 13.556,26.283C14.343,26.283 14.977,26.915 14.977,27.701C14.977,28.486 14.343,29.122 13.556,29.122C12.773,29.122 12.137,28.486 12.137,27.701Z" style="fill-rule:nonzero;"/>
    </g>
    <g transform="matrix(13.3163,0,0,13.3163,117.147,-1.17824)">
        <path d="M28.036,27.701C28.036,27.229 28.417,26.849 28.885,26.849C29.359,26.849 29.739,27.229 29.739,27.701C29.739,28.177 29.359,28.552 28.885,28.552C28.417,28.552 28.036,28.177 28.036,27.701Z" style="fill-rule:nonzero;"/>
    </g>
    <g transform="matrix(13.3163,0,0,13.3163,117.147,-1.17824)">
        <path d="M32.575,27.701C32.575,26.915 33.209,26.283 33.993,26.283C34.776,26.283 35.412,26.915 35.412,27.701C35.412,28.486 34.776,29.122 33.993,29.122C33.208,29.122 32.575,28.486 32.575,27.701Z" style="fill-rule:nonzero;"/>
    </g>
    <g transform="matrix(13.3163,0,0,13.3163,117.147,-1.17824)">
        <path d="M7.028,27.701C7.028,26.915 7.669,26.283 8.447,26.283C9.231,26.283 9.87,26.915 9.87,27.701C9.87,28.486 9.231,29.122 8.447,29.122C7.668,29.122 7.028,28.486 7.028,27.701Z" style="fill-rule:nonzero;"/>
    </g>
    <g transform="matrix(13.3163,0,0,13.3163,117.147,-1.17824)">
        <path d="M37.686,27.701C37.686,26.915 38.318,26.283 39.106,26.283C39.886,26.283 40.522,26.915 40.522,27.701C40.522,28.486 39.886,29.122 39.106,29.122C38.318,29.122 37.686,28.486 37.686,27.701Z" style="fill-rule:nonzero;"/>
    </g>
    <g transform="matrix(13.3163,0,0,13.3163,117.147,-1.17824)">
        <path d="M1.922,27.701C1.922,26.915 2.555,26.283 3.337,26.283C4.122,26.283 4.757,26.915 4.757,27.701C4.757,28.486 4.122,29.122 3.337,29.122C2.555,29.122 1.922,28.486 1.922,27.701Z" style="fill-rule:nonzero;"/>
    </g>
    <g transform="matrix(13.3163,0,0,13.3163,117.147,-1.17824)">
        <path d="M17.25,27.701C17.25,26.915 17.884,26.283 18.671,26.283C19.452,26.283 20.089,26.915 20.089,27.701C20.089,28.486 19.452,29.122 18.671,29.122C17.883,29.122 17.25,28.486 17.25,27.701Z" style="fill-rule:nonzero;"/>
    </g>
    <g transform="matrix(13.3163,0,0,13.3163,117.147,-1.17824)">
        <path d="M22.358,27.701C22.358,26.915 22.997,26.283 23.779,26.283C24.557,26.283 25.197,26.915 25.197,27.701C25.197,28.486 24.557,29.122 23.779,29.122C22.997,29.122 22.358,28.486 22.358,27.701Z" style="fill-rule:nonzero;"/>
    </g>
    <g transform="matrix(13.3163,0,0,13.3163,117.147,-1.17824)">
        <path d="M17.816,32.81C17.816,32.335 18.196,31.956 18.67,31.956C19.138,31.956 19.521,32.335 19.521,32.81C19.521,33.286 19.138,33.662 18.67,33.662C18.196,33.661 17.816,33.285 17.816,32.81Z" style="fill-rule:nonzero;"/>
    </g>
    <g transform="matrix(13.3163,0,0,13.3163,117.147,-1.17824)">
        <path d="M22.358,32.814C22.358,32.026 22.997,31.389 23.779,31.389C24.557,31.389 25.197,32.026 25.197,32.814C25.197,33.596 24.557,34.227 23.779,34.227C22.997,34.228 22.358,33.597 22.358,32.814Z" style="fill-rule:nonzero;"/>
    </g>
    <g transform="matrix(13.3163,0,0,13.3163,117.147,-1.17824)">
        <circle cx="13.559" cy="32.808" r="1.987" style=""/>
    </g>
    <g transform="matrix(13.3163,0,0,13.3163,117.147,-1.17824)">
        <path d="M27.468,32.814C27.468,32.026 28.105,31.389 28.886,31.389C29.673,31.389 30.307,32.026 30.307,32.814C30.307,33.596 29.673,34.227 28.886,34.227C28.105,34.228 27.468,33.597 27.468,32.814Z" style="fill-rule:nonzero;"/>
    </g>
    <g transform="matrix(13.3163,0,0,13.3163,117.147,-1.17824)">
        <path d="M32.574,32.814C32.574,32.026 33.211,31.389 33.993,31.389C34.776,31.389 35.416,32.026 35.416,32.814C35.416,33.596 34.776,34.227 33.993,34.227C33.21,34.228 32.574,33.597 32.574,32.814Z" style="fill-rule:nonzero;"/>
    </g>
    <g transform="matrix(13.3163,0,0,13.3163,117.147,-1.17824)">
        <path d="M7.028,32.814C7.028,32.028 7.669,31.389 8.447,31.389C9.231,31.389 9.87,32.028 9.87,32.814C9.87,33.597 9.231,34.227 8.447,34.227C7.668,34.228 7.028,33.598 7.028,32.814Z" style="fill-rule:nonzero;"/>
    </g>
    <g transform="matrix(13.3163,0,0,13.3163,117.147,-1.17824)">
        <path d="M7.028,12.454C7.028,11.668 7.669,11.032 8.447,11.032C9.231,11.032 9.87,11.668 9.87,12.454C9.87,13.234 9.231,13.871 8.447,13.871C7.668,13.871 7.028,13.234 7.028,12.454Z" style="fill-rule:nonzero;"/>
    </g>
    <g transform="matrix(13.3163,0,0,13.3163,117.147,-1.17824)">
        <path d="M17.25,12.454C17.25,11.668 17.884,11.032 18.671,11.032C19.452,11.032 20.089,11.668 20.089,12.454C20.089,13.234 19.452,13.871 18.671,13.871C17.883,13.871 17.25,13.234 17.25,12.454Z" style="fill-rule:nonzero;"/>
    </g>
    <g transform="matrix(13.3163,0,0,13.3163,117.147,-1.17824)">
        <path d="M12.137,12.454C12.137,11.668 12.773,11.032 13.556,11.032C14.343,11.032 14.977,11.668 14.977,12.454C14.977,13.234 14.343,13.871 13.556,13.871C12.773,13.871 12.137,13.234 12.137,12.454Z" style="fill-rule:nonzero;"/>
    </g>
    <g transform="matrix(13.3163,0,0,13.3163,117.147,-1.17824)">
        <path d="M27.468,12.454C27.468,11.668 28.105,11.032 28.886,11.032C29.673,11.032 30.307,11.668 30.307,12.454C30.307,13.234 29.673,13.871 28.886,13.871C28.105,13.871 27.468,13.234 27.468,12.454Z" style="fill-rule:nonzero;"/>
    </g>
    <g transform="matrix(13.3163,0,0,13.3163,117.147,-1.17824)">
        <path d="M37.684,12.454C37.684,11.668 38.317,11.032 39.107,11.032C39.886,11.032 40.524,11.668 40.524,12.454C40.524,13.234 39.886,13.871 39.107,13.871C38.317,13.871 37.684,13.234 37.684,12.454Z" style="fill-rule:nonzero;"/>
    </g>
    <g transform="matrix(13.3163,0,0,13.3163,117.147,-1.17824)">
        <path d="M1.922,12.454C1.922,11.668 2.555,11.032 3.337,11.032C4.122,11.032 4.757,11.668 4.757,12.454C4.757,13.234 4.122,13.871 3.337,13.871C2.555,13.871 1.922,13.234 1.922,12.454Z" style="fill-rule:nonzero;"/>
    </g>
    <g transform="matrix(13.3163,0,0,13.3163,117.147,-1.17824)">
        <path d="M22.924,12.454C22.924,11.977 23.308,11.6 23.778,11.6C24.247,11.6 24.626,11.977 24.626,12.454C24.626,12.92 24.247,13.304 23.778,13.304C23.308,13.304 22.924,12.92 22.924,12.454Z" style="fill-rule:nonzero;"/>
    </g>
    <g transform="matrix(13.3163,0,0,13.3163,117.147,-1.17824)">
        <path d="M32.574,12.454C32.574,11.668 33.211,11.032 33.993,11.032C34.776,11.032 35.416,11.668 35.416,12.454C35.416,13.234 34.776,13.871 33.993,13.871C33.21,13.871 32.574,13.234 32.574,12.454Z" style="fill-rule:nonzero;"/>
    </g>
    <g transform="matrix(13.3163,0,0,13.3163,117.147,-1.17824)">
        <path d="M2.488,17.499C2.488,17.025 2.869,16.641 3.341,16.641C3.811,16.641 4.193,17.025 4.193,17.499C4.193,17.965 3.811,18.344 3.341,18.344C2.869,18.344 2.488,17.964 2.488,17.499Z" style="fill-rule:nonzero;"/>
    </g>
    <g transform="matrix(13.3163,0,0,13.3163,117.147,-1.17824)">
        <path d="M12.708,17.494C12.708,17.019 13.085,16.64 13.557,16.64C14.028,16.64 14.411,17.019 14.411,17.494C14.411,17.959 14.028,18.344 13.557,18.344C13.084,18.344 12.708,17.959 12.708,17.494Z" style="fill-rule:nonzero;"/>
    </g>
    <g transform="matrix(13.3163,0,0,13.3163,117.147,-1.17824)">
        <path d="M22.358,17.497C22.358,16.709 22.997,16.072 23.779,16.072C24.557,16.072 25.197,16.709 25.197,17.497C25.197,18.276 24.557,18.913 23.779,18.913C22.997,18.913 22.358,18.276 22.358,17.497Z" style="fill-rule:nonzero;"/>
    </g>
    <g transform="matrix(13.3163,0,0,13.3163,117.147,-1.17824)">
        <path d="M32.574,17.497C32.574,16.709 33.211,16.072 33.993,16.072C34.776,16.072 35.416,16.709 35.416,17.497C35.416,18.276 34.776,18.913 33.993,18.913C33.21,18.913 32.574,18.276 32.574,17.497Z" style="fill-rule:nonzero;"/>
    </g>
    <g transform="matrix(13.3163,0,0,13.3163,117.147,-1.17824)">
        <path d="M27.468,17.497C27.468,16.709 28.105,16.072 28.886,16.072C29.673,16.072 30.307,16.709 30.307,17.497C30.307,18.276 29.673,18.913 28.886,18.913C28.105,18.913 27.468,18.276 27.468,17.497Z" style="fill-rule:nonzero;"/>
    </g>
    <g transform="matrix(13.3163,0,0,13.3163,117.147,-1.17824)">
        <path d="M7.028,17.497C7.028,16.709 7.669,16.072 8.447,16.072C9.231,16.072 9.87,16.709 9.87,17.497C9.87,18.276 9.231,18.913 8.447,18.913C7.668,18.913 7.028,18.276 7.028,17.497Z" style="fill-rule:nonzero;"/>
    </g>
    <g transform="matrix(13.3163,0,0,13.3163,117.147,-1.17824)">
        <path d="M16.68,17.494C16.68,16.39 17.572,15.506 18.67,15.506C19.766,15.506 20.655,16.391 20.655,17.494C20.655,18.592 19.765,19.48 18.67,19.48C17.572,19.48 16.68,18.592 16.68,17.494Z" style="fill-rule:nonzero;"/>
    </g>
    <g transform="matrix(13.3163,0,0,13.3163,117.147,-1.17824)">
        <path d="M37.118,17.494C37.118,16.394 38.005,15.506 39.106,15.506C40.198,15.506 41.091,16.394 41.091,17.494C41.091,18.584 40.197,19.48 39.106,19.48C38.004,19.48 37.118,18.584 37.118,17.494Z" style="fill-rule:nonzero;"/>
    </g>
    <g transform="matrix(13.3163,0,0,13.3163,117.147,-1.17824)">
        <path d="M7.028,22.599C7.028,21.818 7.669,21.183 8.447,21.183C9.231,21.183 9.87,21.817 9.87,22.599C9.87,23.382 9.231,24.019 8.447,24.019C7.668,24.019 7.028,23.382 7.028,22.599Z" style="fill-rule:nonzero;"/>
    </g>
    <g transform="matrix(13.3163,0,0,13.3163,117.147,-1.17824)">
        <path d="M17.25,22.599C17.25,21.818 17.884,21.183 18.671,21.183C19.452,21.183 20.089,21.817 20.089,22.599C20.089,23.382 19.452,24.019 18.671,24.019C17.883,24.019 17.25,23.382 17.25,22.599Z" style="fill-rule:nonzero;"/>
    </g>
    <g transform="matrix(13.3163,0,0,13.3163,117.147,-1.17824)">
        <path d="M27.468,22.599C27.468,21.818 28.105,21.183 28.886,21.183C29.673,21.183 30.307,21.817 30.307,22.599C30.307,23.382 29.673,24.019 28.886,24.019C28.105,24.019 27.468,23.382 27.468,22.599Z" style="fill-rule:nonzero;"/>
    </g>
    <g transform="matrix(13.3163,0,0,13.3163,117.147,-1.17824)">
        <path d="M37.684,22.599C37.684,21.818 38.317,21.183 39.107,21.183C39.886,21.183 40.524,21.817 40.524,22.599C40.524,23.382 39.886,24.019 39.107,24.019C38.317,24.019 37.684,23.382 37.684,22.599Z" style="fill-rule:nonzero;"/>
    </g>
    <g transform="matrix(13.3163,0,0,13.3163,117.147,-1.17824)">
        <path d="M21.793,22.599C21.793,21.497 22.679,20.612 23.778,20.612C24.876,20.612 25.762,21.498 25.762,22.599C25.762,23.697 24.875,24.585 23.778,24.585C22.679,24.585 21.793,23.696 21.793,22.599Z" style="fill-rule:nonzero;"/>
    </g>
    <g transform="matrix(13.3163,0,0,13.3163,117.147,-1.17824)">
        <circle cx="3.34" cy="22.599" r="1.987" style=""/>
    </g>
    <g transform="matrix(13.3163,0,0,13.3163,117.147,-1.17824)">
        <path d="M12.137,22.599C12.137,21.818 12.773,21.183 13.556,21.183C14.343,21.183 14.977,21.817 14.977,22.599C14.977,23.382 14.343,24.019 13.556,24.019C12.773,24.019 12.137,23.382 12.137,22.599Z" style="fill-rule:nonzero;"/>
    </g>
    <g transform="matrix(13.3163,0,0,13.3163,117.147,-1.17824)">
        <path d="M32.574,22.599C32.574,21.818 33.211,21.183 33.993,21.183C34.776,21.183 35.416,21.817 35.416,22.599C35.416,23.382 34.776,24.019 33.993,24.019C33.21,24.019 32.574,23.382 32.574,22.599Z" style="fill-rule:nonzero;"/>
    </g>
    <g transform="matrix(13.3163,0,0,13.3163,117.147,-1.17824)">
        <path d="M12.137,37.915C12.137,37.131 12.773,36.493 13.556,36.493C14.343,36.493 14.977,37.131 14.977,37.915C14.977,38.694 14.343,39.333 13.556,39.333C12.773,39.333 12.137,38.694 12.137,37.915Z" style="fill-rule:nonzero;"/>
    </g>
    <g transform="matrix(13.3163,0,0,13.3163,117.147,-1.17824)">
        <path d="M22.924,37.915C22.924,37.443 23.308,37.061 23.778,37.061C24.245,37.061 24.626,37.443 24.626,37.915C24.626,38.382 24.245,38.764 23.778,38.764C23.308,38.764 22.924,38.382 22.924,37.915Z" style="fill-rule:nonzero;"/>
    </g>
    <g transform="matrix(13.3163,0,0,13.3163,117.147,-1.17824)">
        <path d="M16.68,37.909C16.68,36.815 17.57,35.928 18.67,35.928C19.766,35.928 20.655,36.816 20.655,37.909C20.655,39.005 19.765,39.899 18.67,39.899C17.57,39.899 16.68,39.005 16.68,37.909Z" style="fill-rule:nonzero;"/>
    </g>
    <g transform="matrix(13.3163,0,0,13.3163,117.147,-1.17824)">
        <path d="M27.468,37.915C27.468,37.131 28.105,36.493 28.886,36.493C29.673,36.493 30.307,37.131 30.307,37.915C30.307,38.694 29.673,39.333 28.886,39.333C28.105,39.333 27.468,38.694 27.468,37.915Z" style="fill-rule:nonzero;"/>
    </g>
</svg>
