<svg width="100%" height="100%" viewBox="0 0 100 100" version="1.1" xmlns="http://www.w3.org/2000/svg" xmlns:xlink="http://www.w3.org/1999/xlink" xml:space="preserve" style="fill-rule:evenodd;clip-rule:evenodd;stroke-linejoin:round;stroke-miterlimit:1.41421;" class="background-icon">
    <g transform="matrix(1,0,0,1,38,37.5)">
        <g>
            <g transform="matrix(3.80602,0,0,3.80602,-35.3718,-29.4765)">
                <path d="M23,4L23,2C22.697,2 22.356,2.001 22,2.003C21.995,2.003 21.99,2.003 21.985,2.003C20.534,2.012 18.709,2.056 16.971,2.271L15.775,3.467C17.795,3.084 20.261,3.014 22,3.002L22,16.002C18.929,16.019 14.389,16.179 12,17.728C9.611,16.178 5.071,16.018 2,16.002L2,3.002C4.207,3.018 7.59,3.124 9.734,3.852L9.735,3.852L10.509,3.078C8.198,2.137 4.529,2.019 2.011,2.003C2.007,2.003 2.003,2.003 1.999,2.003C1.641,2 1.305,2 1,2L1,4C0.447,4 0.7,4.019 0.05,4.025C0.05,4.025 0.143,14.846 0.168,19.914L23.999,19.787C23.999,17.643 23.994,3.976 23.994,3.976C23.357,3.99 23.553,4 23,4Z"/>
            </g>
            <g transform="matrix(3.80602,0,0,3.80602,-35.3718,-29.4765)">
                <path d="M13,6.242L11,8.243L11,12L13,12L13,6.242Z"/>
            </g>
            <g transform="matrix(3.80602,0,0,3.80602,-35.3718,-29.4765)">
                <rect x="11" y="14" width="2" height="1"/>
            </g>
            <g transform="matrix(3.80602,0,0,3.80602,-35.3718,-29.4765)">
                <path d="M5.102,11.314L7.223,10.606L16.414,1.414L15,0L5.809,9.192L5.102,11.314Z"/>
            </g>
        </g>
    </g>
</svg>
