<?xml version="1.0" encoding="UTF-8" standalone="no"?>
<!DOCTYPE svg PUBLIC "-//W3C//DTD SVG 1.1//EN" "http://www.w3.org/Graphics/SVG/1.1/DTD/svg11.dtd">
<svg width="100%" height="100%" viewBox="0 0 100 100" version="1.1" xmlns="http://www.w3.org/2000/svg" xmlns:xlink="http://www.w3.org/1999/xlink" xml:space="preserve" style="fill-rule:evenodd;clip-rule:evenodd;stroke-linejoin:round;stroke-miterlimit:1.41421;">
    <g transform="matrix(1,0,0,1,0.411723,0.220566)">
        <g>
            <path d="M67.166,2.377C67.707,2.378 68.221,2.593 68.601,2.972L80.593,14.966C80.973,15.347 81.188,15.863 81.188,16.401L81.188,18.859L83.415,18.859C84.196,18.86 84.824,19.491 84.824,20.268L84.824,36.355L88.616,36.355L88.616,20.268C88.616,19.491 89.244,18.86 90.026,18.859L97.761,18.859C98.541,18.86 99.169,19.491 99.169,20.268L99.169,38.703C99.169,39.481 98.541,40.111 97.76,40.113L90.024,40.113C90.014,40.113 90.002,40.105 89.991,40.105L89.991,84.617C89.991,91.09 84.726,96.358 78.248,96.36L23.292,96.36C16.818,96.36 11.549,91.091 11.549,84.617L11.549,43.185L5.879,48.861C5.879,48.861 5.94,49.054 5.94,49.158L5.94,66.358C5.94,67.656 4.889,68.706 3.591,68.706C2.295,68.706 1.243,67.656 1.243,66.358L1.243,49.158C1.243,47.861 2.295,46.811 3.591,46.811C3.696,46.811 3.786,46.856 3.887,46.871L10.636,40.114L3.591,40.114C2.81,40.112 2.182,39.482 2.182,38.704L2.182,20.268C2.182,19.491 2.813,18.86 3.591,18.859L11.327,18.859C12.107,18.86 12.736,19.491 12.736,20.268L12.736,36.354L16.716,36.354L16.716,20.267C16.716,19.49 17.344,18.859 18.125,18.858L20.351,18.858L20.351,4.407C20.351,3.287 21.258,2.379 22.381,2.377L67.166,2.377ZM85.296,67.767L16.248,67.767L16.248,84.617C16.248,88.5 19.409,91.662 23.293,91.662L29.012,91.662C29.015,90.366 30.06,89.32 31.357,89.318L70.024,89.318C71.322,89.32 72.368,90.369 72.37,91.662L78.248,91.662C82.134,91.66 85.295,88.501 85.295,84.617L85.296,84.617L85.296,67.767ZM50.781,81.056C51.981,81.056 52.955,82.03 52.955,83.23C52.955,84.43 51.981,85.405 50.781,85.405C49.581,85.405 48.606,84.43 48.606,83.23C48.606,82.03 49.581,81.056 50.781,81.056ZM59.486,81.056C60.686,81.056 61.661,82.03 61.661,83.23C61.661,84.43 60.686,85.405 59.486,85.405C58.286,85.405 57.312,84.43 57.312,83.23C57.312,82.03 58.286,81.056 59.486,81.056ZM76.901,81.056C78.102,81.056 79.076,82.03 79.076,83.23C79.076,84.43 78.102,85.405 76.901,85.405C75.701,85.405 74.727,84.43 74.727,83.23C74.727,82.03 75.701,81.056 76.901,81.056ZM68.195,81.056C69.395,81.056 70.37,82.03 70.37,83.23C70.37,84.43 69.395,85.405 68.195,85.405C66.995,85.405 66.02,84.43 66.02,83.23C66.02,82.03 66.995,81.056 68.195,81.056ZM24.653,81.056C25.853,81.056 26.828,82.03 26.828,83.23C26.828,84.43 25.853,85.405 24.653,85.405C23.453,85.405 22.479,84.43 22.479,83.23C22.479,82.03 23.453,81.056 24.653,81.056ZM42.07,81.056C43.27,81.056 44.244,82.03 44.244,83.23C44.244,84.43 43.27,85.405 42.07,85.405C40.869,85.405 39.895,84.43 39.895,83.23C39.895,82.03 40.869,81.056 42.07,81.056ZM33.362,81.056C34.562,81.056 35.537,82.03 35.537,83.23C35.537,84.43 34.562,85.405 33.362,85.405C32.162,85.405 31.187,84.43 31.187,83.23C31.187,82.03 32.162,81.056 33.362,81.056ZM37.713,76.708C38.914,76.708 39.888,77.682 39.888,78.882C39.888,80.082 38.914,81.057 37.713,81.057C36.513,81.057 35.539,80.082 35.539,78.882C35.539,77.682 36.513,76.708 37.713,76.708ZM46.422,76.708C47.622,76.708 48.597,77.682 48.597,78.882C48.597,80.082 47.622,81.057 46.422,81.057C45.222,81.057 44.248,80.082 44.248,78.882C44.248,77.682 45.222,76.708 46.422,76.708ZM29.005,76.708C30.205,76.708 31.179,77.682 31.179,78.882C31.179,80.082 30.205,81.057 29.005,81.057C27.804,81.057 26.83,80.082 26.83,78.882C26.83,77.682 27.804,76.708 29.005,76.708ZM72.546,76.708C73.747,76.708 74.721,77.682 74.721,78.882C74.721,80.082 73.747,81.057 72.546,81.057C71.346,81.057 70.372,80.082 70.372,78.882C70.372,77.682 71.346,76.708 72.546,76.708ZM63.838,76.708C65.038,76.708 66.012,77.682 66.012,78.882C66.012,80.082 65.038,81.057 63.838,81.057C62.637,81.057 61.663,80.082 61.663,78.882C61.663,77.682 62.637,76.708 63.838,76.708ZM55.132,76.708C56.332,76.708 57.307,77.682 57.307,78.882C57.307,80.082 56.332,81.057 55.132,81.057C53.932,81.057 52.958,80.082 52.958,78.882C52.958,77.682 53.932,76.708 55.132,76.708ZM33.362,72.356C34.562,72.356 35.535,73.33 35.535,74.53C35.535,75.729 34.562,76.703 33.362,76.703C32.162,76.703 31.189,75.729 31.189,74.53C31.189,73.33 32.162,72.356 33.362,72.356ZM59.486,72.356C60.686,72.356 61.66,73.33 61.66,74.53C61.66,75.729 60.686,76.703 59.486,76.703C58.287,76.703 57.313,75.729 57.313,74.53C57.313,73.33 58.287,72.356 59.486,72.356ZM50.781,72.356C51.98,72.356 52.954,73.33 52.954,74.53C52.954,75.729 51.98,76.703 50.781,76.703C49.581,76.703 48.607,75.729 48.607,74.53C48.607,73.33 49.581,72.356 50.781,72.356ZM76.901,72.356C78.101,72.356 79.075,73.33 79.075,74.53C79.075,75.729 78.101,76.703 76.901,76.703C75.702,76.703 74.728,75.729 74.728,74.53C74.728,73.33 75.702,72.356 76.901,72.356ZM68.195,72.356C69.395,72.356 70.368,73.33 70.368,74.53C70.368,75.729 69.395,76.703 68.195,76.703C66.995,76.703 66.022,75.729 66.022,74.53C66.022,73.33 66.995,72.356 68.195,72.356ZM42.07,72.356C43.269,72.356 44.243,73.33 44.243,74.53C44.243,75.729 43.269,76.703 42.07,76.703C40.87,76.703 39.896,75.729 39.896,74.53C39.896,73.33 40.87,72.356 42.07,72.356ZM24.653,72.356C25.853,72.356 26.827,73.33 26.827,74.53C26.827,75.729 25.853,76.703 24.653,76.703C23.454,76.703 22.48,75.729 22.48,74.53C22.48,73.33 23.454,72.356 24.653,72.356ZM42.713,41.052L16.245,41.052L16.245,64.949L85.295,64.949L85.295,41.052L58.838,41.052L72.537,55.909C72.537,55.909 72.535,59.996 72.535,60.4C72.535,61.6 71.456,62.544 70.228,62.546L31.286,62.546C30.06,62.546 29.014,61.6 29.014,60.4C29.014,60.074 29.013,55.909 29.013,55.909L42.713,41.052ZM66.005,6.436L24.411,6.436L24.411,33.445L77.129,33.445L77.129,17.56L67.165,17.56C66.522,17.558 66.005,17.039 66.005,16.4L66.005,6.436ZM10.01,24.34L10.01,21.52L4.684,21.52L4.684,24.34L10.01,24.34ZM96.555,24.339L96.555,21.519L91.232,21.519L91.232,24.339L96.555,24.339ZM68.326,7.208L68.326,15.241L76.36,15.241L68.326,7.208Z" style="fill:black;"/>
        </g>
    </g>
</svg>
