<?xml version="1.0" encoding="UTF-8" standalone="no"?>
<!DOCTYPE svg PUBLIC "-//W3C//DTD SVG 1.1//EN" "http://www.w3.org/Graphics/SVG/1.1/DTD/svg11.dtd">
<svg width="100%" height="100%" viewBox="0 0 100 100" version="1.1" xmlns="http://www.w3.org/2000/svg" xmlns:xlink="http://www.w3.org/1999/xlink" xml:space="preserve" style="fill-rule:evenodd;clip-rule:evenodd;stroke-linejoin:round;stroke-miterlimit:1.41421;">
    <g transform="matrix(1.15712,0,0,1.15712,-4.94754,-409.927)">
        <g>
            <g>
                <g>
                    <path d="M69.1,419.1C65.2,423 65.2,429.5 69.1,433.5C73,437.5 79.5,437.4 83.5,433.5C87.5,429.6 87.4,423.1 83.5,419.1C79.6,415.2 73.1,415.2 69.1,419.1Z" style="fill:black;fill-rule:nonzero;"/>
                    <path d="M47.5,378.9C50.1,378.9 52.7,377.9 54.6,375.9C58.5,372 58.5,365.5 54.6,361.5C50.7,357.5 44.2,357.6 40.2,361.5C38.2,363.5 37.2,366.2 37.2,368.8C37,373.7 35.1,378.5 31.4,382.1C27.8,385.7 23.1,387.2 18.3,387.2L18.2,387.2C18,387.2 17.7,387.2 17.5,387.2C17.4,387.2 17.4,387.2 17.3,387.2C17.1,387.2 16.8,387.3 16.6,387.3C16.5,387.3 16.5,387.3 16.4,387.3C16.2,387.4 15.9,387.4 15.7,387.5C15.6,387.5 15.5,387.6 15.5,387.6C15.3,387.7 15.1,387.7 14.9,387.8C14.8,387.8 14.7,387.9 14.6,387.9C14.4,388 14.2,388.1 14,388.2C13.9,388.3 13.8,388.3 13.7,388.4C13.5,388.5 13.4,388.6 13.2,388.7C13.1,388.8 12.9,388.9 12.8,389C12.7,389.1 12.5,389.2 12.4,389.3C12.2,389.5 11.9,389.7 11.7,389.9C9.7,391.9 8.7,394.5 8.7,397.1C8.7,399.8 9.7,402.3 11.7,404.3C11.9,404.5 12.2,404.7 12.4,405C12.5,405.1 12.6,405.1 12.6,405.2C12.8,405.3 12.9,405.5 13.1,405.6C13.2,405.7 13.4,405.8 13.5,405.8C13.6,405.9 13.8,406 13.9,406C14.1,406.1 14.3,406.2 14.4,406.3C14.5,406.3 14.6,406.4 14.7,406.4C14.9,406.5 15.1,406.6 15.4,406.6C15.5,406.6 15.5,406.6 15.6,406.7C15.9,406.8 16.1,406.8 16.5,406.9L16.6,406.9C16.9,407 17.1,407 17.5,407L17.6,407C17.9,407 18.1,407 18.5,407.1L18.6,407.1C23.4,407.1 28.1,408.6 31.7,412.2C35.3,415.8 37.2,420.6 37.5,425.5C37.5,428.2 38.5,430.8 40.5,432.8C44.4,436.7 50.9,436.7 54.9,432.8C58.9,428.9 58.8,422.4 54.9,418.4C52.9,416.4 50.3,415.4 47.8,415.4C42.8,415.3 38,413.4 34.3,409.6C30.7,406 29.2,401.4 29.1,396.7C29.1,392 30.7,387.3 34.3,383.8C37.7,380.9 42.5,379 47.5,378.9Z" style="fill:black;fill-rule:nonzero;"/>
                    <path d="M83.5,375.9C87.4,372 87.4,365.5 83.5,361.5C79.6,357.5 73.1,357.6 69.1,361.5C65.1,365.4 65.2,371.9 69.1,375.9C73,379.9 79.6,379.8 83.5,375.9Z" style="fill:black;fill-rule:nonzero;"/>
                </g>
            </g>
        </g>
    </g>
</svg>
