<svg xmlns="http://www.w3.org/2000/svg" xmlns:xlink="http://www.w3.org/1999/xlink" version="1.1" x="0px" y="0px" viewBox="0 0 100 100" enable-background="new 0 0 100 100" xml:space="preserve">
  <path fill="#000000" d="M91.844,26.873c-0.004-0.024-0.008-0.047-0.012-0.071c-0.018-0.107-0.039-0.214-0.068-0.322  c-0.006-0.018-0.01-0.036-0.016-0.054c-0.035-0.117-0.076-0.233-0.127-0.348c-0.012-0.023-0.023-0.045-0.035-0.068  c-0.027-0.057-0.051-0.114-0.082-0.17c-0.018-0.031-0.037-0.06-0.057-0.09c-0.018-0.03-0.035-0.059-0.053-0.088  c-0.064-0.095-0.129-0.186-0.199-0.272c-0.006-0.006-0.012-0.014-0.018-0.021c-0.08-0.097-0.168-0.186-0.262-0.27  c-0.016-0.016-0.033-0.031-0.053-0.046c-0.082-0.071-0.168-0.138-0.256-0.199c-0.018-0.012-0.033-0.025-0.051-0.036  c-0.104-0.069-0.213-0.131-0.324-0.186c-0.008-0.003-0.014-0.008-0.021-0.012L77.9,18.71v-3.818c0-0.001,0-0.003,0-0.004  c0-0.128-0.01-0.255-0.027-0.383c-0.002-0.023-0.006-0.047-0.01-0.071c-0.016-0.107-0.041-0.214-0.07-0.321  c-0.006-0.018-0.008-0.037-0.014-0.054c-0.037-0.118-0.078-0.233-0.129-0.348c-0.01-0.023-0.021-0.045-0.033-0.067  c-0.025-0.058-0.051-0.115-0.084-0.17c-0.016-0.031-0.037-0.06-0.055-0.09s-0.037-0.06-0.055-0.089  c-0.062-0.094-0.127-0.183-0.197-0.268c-0.006-0.008-0.012-0.017-0.018-0.024c-0.082-0.096-0.168-0.184-0.26-0.268  c-0.02-0.017-0.037-0.033-0.059-0.049c-0.078-0.07-0.162-0.135-0.248-0.194c-0.02-0.013-0.039-0.027-0.059-0.041  c-0.102-0.067-0.209-0.129-0.318-0.183c-0.01-0.003-0.016-0.009-0.023-0.013L51.268,0.259c-0.8-0.385-1.734-0.385-2.535,0  L23.758,12.253c-0.005,0.003-0.011,0.007-0.016,0.01c-0.114,0.056-0.225,0.119-0.331,0.189c-0.015,0.01-0.029,0.021-0.045,0.031  c-0.091,0.062-0.177,0.131-0.261,0.204c-0.018,0.015-0.034,0.029-0.052,0.044c-0.091,0.084-0.18,0.173-0.261,0.27  c-0.006,0.008-0.012,0.016-0.019,0.024c-0.069,0.084-0.133,0.173-0.194,0.267c-0.02,0.03-0.039,0.061-0.057,0.091  c-0.019,0.03-0.039,0.058-0.055,0.088c-0.031,0.054-0.055,0.109-0.081,0.165c-0.012,0.025-0.026,0.049-0.037,0.074  c-0.05,0.113-0.092,0.228-0.127,0.344c-0.006,0.021-0.01,0.041-0.016,0.061c-0.029,0.104-0.051,0.208-0.068,0.313  c-0.004,0.025-0.008,0.051-0.012,0.077c-0.017,0.125-0.027,0.252-0.027,0.378c0,0.002,0,0.004,0,0.006v3.818L9.79,24.622  c-0.006,0.002-0.011,0.007-0.017,0.011c-0.115,0.055-0.225,0.118-0.331,0.188c-0.016,0.01-0.03,0.022-0.046,0.033  c-0.09,0.062-0.177,0.129-0.26,0.202c-0.017,0.015-0.036,0.03-0.053,0.046c-0.091,0.083-0.179,0.172-0.261,0.269  c-0.006,0.008-0.011,0.017-0.018,0.025c-0.07,0.084-0.134,0.173-0.195,0.267c-0.02,0.031-0.04,0.061-0.057,0.092  c-0.019,0.029-0.039,0.057-0.056,0.087c-0.03,0.054-0.055,0.11-0.08,0.166c-0.012,0.024-0.026,0.049-0.038,0.074  c-0.049,0.113-0.091,0.228-0.127,0.344c-0.006,0.021-0.01,0.042-0.016,0.061c-0.028,0.104-0.051,0.208-0.068,0.314  c-0.004,0.025-0.008,0.051-0.011,0.076c-0.017,0.126-0.027,0.253-0.028,0.378c0,0.002,0,0.004,0,0.007v48.112  c0,1.063,0.578,2.045,1.508,2.561l38.943,21.595c0.001,0.002,0.003,0.002,0.004,0.002c0.103,0.058,0.211,0.107,0.32,0.152  c0.019,0.007,0.037,0.014,0.055,0.02c0.089,0.034,0.178,0.062,0.271,0.089c0.028,0.008,0.058,0.015,0.086,0.021  c0.085,0.021,0.17,0.035,0.258,0.05c0.028,0.004,0.057,0.01,0.086,0.013c0.111,0.013,0.224,0.021,0.34,0.021  c0.116,0,0.229-0.009,0.34-0.021c0.029-0.003,0.058-0.009,0.086-0.013c0.087-0.015,0.173-0.029,0.257-0.05  c0.029-0.007,0.059-0.014,0.088-0.021c0.092-0.026,0.18-0.055,0.27-0.089c0.018-0.006,0.035-0.013,0.055-0.02  c0.109-0.045,0.217-0.095,0.32-0.152c0.002,0,0.004,0,0.004-0.002l38.943-21.595c0.93-0.516,1.508-1.497,1.508-2.561V27.26  c0-0.001-0.002-0.003-0.002-0.004C91.869,27.128,91.861,27,91.844,26.873z M82.57,27.447l-4.67,2.589v-4.833L82.57,27.447z   M52.928,43.884V30.465l19.119-10.603v13.42L52.928,43.884z M27.953,19.862l19.121,10.603v13.419L27.953,33.282V19.862z M50,6.145  l18.602,8.934L50,25.394L31.398,15.079L50,6.145z M22.099,30.036l-4.67-2.589l4.67-2.243V30.036z M13.983,32.23l9.636,5.343  c0.007,0.003,0.014,0.007,0.021,0.011l23.434,12.995v1.993v39.425l-33.09-18.348V32.23z M52.928,91.997V52.572v-1.993l23.434-12.995  c0.006-0.003,0.012-0.007,0.02-0.01l9.637-5.344v41.419L52.928,91.997z"></path>
</svg>
