<svg xmlns="http://www.w3.org/2000/svg" fill-rule="evenodd" stroke-miterlimit="1.41421" viewBox="0 0 100 100" clip-rule="evenodd" stroke-linejoin="round">
  <path d="M73.489035 11.714544l.0544216.221314-7.8312538 11.6516432-14.151404-7.760506-.0544216-.2195 5.482059-8.161411 2.3419387-3.486604 14.15866 7.7550638zM60.0015735 9.46875l-3.3632487 5.004964 7.912886 4.3392076 3.8584844-5.7432823-7.9147-4.3355795-.4934216.7346903z"/>
  <path d="M52.2755344 13.0514988h.0925166l.0925165.003628.0907025.0036282.0925165.0054422.0925166.005442.090703.0072563.092517.0090703.090703.0090702.092517.0108843.090703.0108843.092517.0145124.090703.0126984.092517.0163264.090703.0163265.090703.0181405.090703.0181405.090703.0217686.090703.019954.090702.023582.090702.023582.090703.025396.088889.025396.088889.029025.090702.029025.088889.029024.088888.030839.087075.032653.088889.034467.087075.036281.087074.036281.087075.036281.087075.039909.087075.039909.085261.041723.08526.043537.08526.043537.078004.041723 9.730565 5.333307.07619.043537.083447.047165.081632.048979.081632.048979.079818.050793.079819.052608.078004.052607.078004.054421.07619.054421.074376.056236.07619.05805.072562.056235.072562.059864.072562.059864.068934.059863.070748.061677.06712.063491.068934.063491.065306.063491.065306.065306.065306.06712.063491.065305.061677.068934.061678.067119.059863.070748.05805.068934.058049.070748.056236.072562.056236.070748.054421.072562.054422.074376.050793.074376.052607.074376.048979.07619.04898.07619.048979.07619.045352.078004.047165.078004.043537.078004.043537.078004.041723.079818.041724.079818.039909.081632.038095.079818.038095.081632.036281.081632.036281.083446.034467.083446.032653.083447.032653.083447.030839.083446.029025.08526.029025.083446.027211.08526.025397.087074.025397.08526.023582.085261.023583.087074.021768.087074.019954.087074.019955.087074.018141.088889.018141.087075.016327.088888.014513.0870742.012698.088888.012699.088888.012698.088888.010884.088889.00907.090703.007256.088889.007257.088888.005442.090702.005443.0888884.003628.090702.001814.0907027.001814.0907027v.179591l-.001814.0907023-.003628.090702-.003628.090703-.005442.0907025-.005442.090703-.00907.090702-.007256.090702-.010884.090703-.010884.090702-.010885.090702-.012699.090703-.014512.090702-.016327.090703-.016326.090702-.016326.090703-.018141.090702-.019955.090703-.021769.088888-.021769.090702-.021768.090702-.025397.088889-.025396.090702-.025397.088888-.027211.090702-.029024.0888885-.029025.0888886-.030839.0888886-.032653.088888-.032653.088889-.034467.088889-.034467.087074-.036281.088889-.038095.087074-.038095.087074-.038095.087074-.041723.087075-.041723.087075-.041723.087074-.045351.08526-.043537.0870743-.047165.0852603-.047165.08526-.047165.083446-.050794.08526-.04898.083446-.052608.08526-.052607.083446-.052608.081633-.052607.079818L48.38985 57.6626 26.10243 45.454045l-.0544215-.2213144 19.000356-28.28829.0544214-.078004.056236-.081632.05805-.0798183.058049-.079818.058049-.078004.059863-.0798184.059863-.07619.061677-.07619.061678-.07619.063492-.074376.063492-.074376.063492-.072562.065306-.072562.065306-.072562.06712-.070748.065306-.068934.068934-.068934.06712-.068934.068934-.06712.068934-.065305.070748-.06712.070748-.063491.070748-.065306.072562-.061677.072562-.063492.072562-.061677.072562-.059863.074376-.059863.074376-.058049.074376-.058049.07619-.05805.07619-.056235.07619-.054422.078005-.054422.078004-.054422.078004-.052607.078004-.050793.078004-.050793.079818-.050793.079818-.048979.079818-.04898.081632-.047165.079818-.045352.081632-.047165.081633-.043537.083446-.043537.081633-.043537.083446-.041723.083446-.041723.083446-.039909.08526-.039909.083446-.038095.085261-.036281.085261-.038095.08526-.034467.08526-.034467.087074-.034467.08526-.032653.087074-.030839.087075-.032653.087074-.029025.087075-.029025.087075-.029024.088888-.025397.088888-.027211.087074-.025397.088889-.023582.088889-.023583.088888-.021769.090702-.021769.088888-.019955.088888-.019954.090702-.01814.090702-.016326.088889-.016327.090703-.0163268.090703-.014512.090702-.012698.090703-.012698.090702-.010884.0907025-.010884.092517-.00907.090703-.007256.0907023-.007256.092517-.005442.0907025-.0054424.092517-.003628.090702-.003628h.092517l.092516-.001814.0907022.001814zm-.1378678 3.626286l-.0489794.001814-.0489793.001814-.04898.001814-.050794.0018142-.04898.003628-.04898.0036282-.04898.005442-.050793.0036282-.04898.0054422-.050794.0072562-.050794.0072562-.04898.0072562-.050793.0072562-.050794.0090702-.050793.0090703-.050794.00907-.050794.010884-.048979.010884-.050794.010884-.050794.012698-.050794.012698-.050793.012698-.050793.014512-.050794.014512-.050793.014512-.050794.016326-.050794.016326-.050794.016326-.050793.016326-.050793.01814-.050794.01814-.048979.019954-.050794.019955-.050794.019954-.048979.021768-.050793.019954-.048979.023582-.050794.021769-.04898.023583-.048979.023582-.04898.023583-.048979.025397-.04898.025397-.04898.025397-.048979.027211-.048979.027211-.047165.027211-.04898.027211-.047165.029025-.047165.029025-.047166.030838-.047166.029025-.047166.030839-.045352.032653-.047166.030839-.045352.032653-.045351.032653-.045351.034467-.045352.032653-.043537.034466-.045352.036281-.043537.034467-.043537.036281-.043537.036281-.043537.038095-.041723.036281-.043538.038095-.041723.038095-.041723.039909-.039909.039909-.041723.039909-.039909.039909-.039909.039909-.039909.041723-.038095.041723-.039909.043537-.038095.041723-.038095.043537-.036281.043537-.038095.043537-.036281.045351-.036281.045352-.036281.045351-.034467.045351-.034467.047165-.034467.047165-.034467.047165-.032653.047165-.034467.052608-16.876104 25.12278 16.045272 8.789072 17.055698-25.394886.034467-.052608.030839-.047165.030839-.048979.030839-.048979.029025-.048979.029025-.048979.02721-.048979.027211-.048979.025396-.048979.02721-.048979.023582-.048979.025397-.04898.023583-.048979.021768-.04898.023583-.04898.019955-.048979.021768-.04898.019954-.048979.019954-.048979.01814-.048979.018141-.04898.01814-.048979.016326-.04898.016326-.048979.016326-.048979.014512-.048979.014512-.048979.012698-.048979.014512-.047165.010884-.048979.012698-.04898.0108844-.047166.010884-.04898.00907-.048979.00907-.047165.00907-.047165.00907-.048979.007256-.047165.005442-.047165.007256-.047166.005442-.047165.005442-.047166.003628-.047165.003628-.047165.003628-.047165.003628-.045351.001814-.047165.001814-.045351v-.183219l-.001814-.043537-.001814-.045351-.001814-.045351-.003628-.043537-.003628-.045352-.003628-.043537-.003628-.043537-.005442-.043537-.005442-.043537-.007256-.041723-.005442-.043537-.007256-.041723-.00907-.043537-.007256-.041723-.00907-.041724-.009071-.039909-.00907-.041723-.010884-.039909-.010885-.041723-.010884-.039909-.0108846-.03991-.012698-.039909-.012698-.038095-.012699-.039909-.014512-.038095-.014512-.038095-.014512-.038095-.014512-.038095-.0145123-.038095-.016326-.036281-.016326-.036281-.016327-.036281-.01814-.036281-.0181408-.036281-.018141-.034467-.01814-.036281-.018141-.034467-.019955-.034467-.019955-.034467-.019955-.032653-.0217685-.034467-.021768-.032653-.0217687-.032653-.021768-.032653-.021769-.030839-.0235826-.032653-.0235827-.030839-.023583-.030839-.025397-.030839-.023582-.030839-.025397-.030839-.027211-.029025-.0253964-.029025-.027211-.029025-.027211-.029025-.027211-.02721-.0272104-.029025-.029025-.027211-.029025-.027211-.029024-.027211-.030839-.02721-.030839-.025397-.030839-.027211-.030839-.025397-.032653-.025397-.032653-.023583-.032653-.025397-.034467-.023582-.034467-.023583-.034467-.023583-.034467-.0235825-.036281-.023583-.036281-.021768-.036281-.021769-.038095-.021769-.045352-.025397-9.708796-5.318794-.043538-.025397-.039909-.0199544-.038095-.019954-.03991-.018139-.039909-.0199547-.039909-.018141-.039909-.016326-.041723-.01814-.039909-.016326-.041723-.014512-.041723-.016327-.041723-.014512-.041724-.014512-.041723-.012699-.041724-.012698-.043538-.0126985-.043537-.012699-.043537-.010884-.043537-.010885-.043537-.010884-.043537-.010884-.045351-.00907-.0453514-.007256-.045351-.00907-.045351-.007256-.045351-.007256-.045351-.007256-.0453516-.005442-.047165-.005442-.047165-.005443-.047166-.003628-.0453513-.003628-.048979-.003628-.047166-.001814-.047165-.001814-.04898-.001814-.047165-.001814h-.096145z"/>
  <path d="M64.157562 30.185201l.1995454.0399092.1941033.0616776.185033.0834463.246711.12517.2503388.132426.250339.13424.250339.137868.2485247.137868.2467108.139682.2467108.14331.2448967.145124.2448968.146938.2430827.146938.2430827.150566.2412686.154195.2412687.154195.2376405.156009.2394546.157823.235827.159637.235827.163265.235827.163265.234013.166893.232199.166893.230384.168707.230385.172335.228571.172335.226756.175963.226757.175963.224943.177777.223128.181405.223128.181405.221314.18322.2195.185033.217686.186847.217686.188662.215872.190475.214058.192289.212244.194104.21043.194103.21043.197732.208616.197731.206802.199546.204988.20136.203174.203173.203174.204988.20136.206802.197732.206802.197732.208616.195917.21043.194103.212244.194104.214058.190475.215872.188661.215872.188661.217686.185033.2195.185033.221314.181405.221314.181405.223128.179591.224942.175963.226756.175963.226757.174149.228571.170521.230385.170521.230385.166893.234012.166893.232198.163264.235827.163264.235827.159637.237641.157822.239455.156008.239455.154195.241269.15238.243083.150566.243083.148752.244897.145124.244897.145124.246711.141496.248525.139682.248525.137868.250339.13424.252153.13424.252153.130612.252153.128798.253967.125169.255781.125169.255781.121541.257595.119728.259409.117913.259409.114285.259409.112471.261223.110657.261223.107029.263038.105215.264851.103401.264851.099773.264852.097959.266665.096145.266666.092517.268479.090703.268479.088889.270293.08526.270294.081632.272108.079819.272108.078005.272108.074376.273921.072562.273921.068934.273922.06712.275736.063492.27755.061678.275735.05805.277549.056235.27755.052607.279364.048979.2793635.047165.279364.045351.281178.039909.281178.038095.281178.036281.281178.032653.2829917.029025.282992.027211.282992.0235827.284806.019955.284806.016327.282992.0145126.28662.010884.284806.00907.284806.003628.2866196.001814.284806v.21043l-.003628.2104294-.003628.208616-.003628.208616-.007257.208616-.00907.206801-.00907.208616-.010884.206802-.012698.206802-.012698.2068016-.016326.206802-.0163266.204988-.018141.206802-.01814.2049876-.0217688.204988-.021769.204988-.023583.203174-.025397.203174-.027211.2049875-.027211.2031734-.029025.201359-.030839.203173-.032653.20136-.032653.201359-.034467.20136-.036281.199545-.038095.2013596-.038095.199546-.039909.199545-.041723.199546-.043538.197731-.043537.197732-.045351.1977316-.047165.197732-.048979.1959173-.04898.195917-.050793.195917-.050794.195917-.054421.194104-.0544215.195917-.056236.192289-.056236.194104-.059864.192289-.059864.1941034-.059863.190475-.063492.1922894-.063492.190475-.065306.190475-.065306.190475-.06712.188661-.068934.188661-.068934.188661-.072562.188661-.072562.186847-.072562.186847-.074376.185033-.07619.1868477-.078004.185033-.078004.185033-.0798184.183219-.079818.183219-.083446.183219-.081632.181405-.08526.181405-.0852602.181405-.087074.181405-.087075.179591-.090703.179591-.088889.177777-.092517.179591-.092516.175963-.092517.177777-.096145.175963-.094331.175963-.097959.175963-.097959.174149-.099773.172334-.099773.174149-.101587.172335-.103401.172335-.1034.170521-.105215.170521-.105215.170521-.107029.168707-.108843.168707-.108843.168707-.110657.166892-.110657.166892-.112471.165079-.114285.166893-.114285.163264-.1161.165078-.116099.163265-.117913.161451-.117914.161451-.119727.1614505-.121542.1614504-.121541.159637-.123355.157823-.123356.157822-.125169.1578224-.125169.157822-.126984.156008-.128798.1541946-.128798.156009-.128797.1541947-.130612.15238-.132425.15238-.132425.152381-.1342396.150566-.134239.148752-.136054.150566-.136054.148752-.1378673.146938-.137868.146938-.139682.146938-.141496.145124-.141496.145124-.141496.14331-.14331.14331-.14331.14331-.145124.141496-.146938.139682-.146938.139682-.146938.139682-.148752.137867-.150566.137868-.150566.136054-.150566.136054-.15238.136054-.15238.13424-.154194.132425-.154194.132426-.156008.132426-.157822.130612-.156008.1287974-.159636.130612-.157823.126983-.159637.126983-.16145.126983-.161451.125169-.163265.125169-.163265.12517-.163264.1215414-.165078.123355-.165079.121542-.166893.119727-.166893.119728-.168707.1179136-.1687063.117913-.168706.1160992-.170521.116099-.172335.114285-.172335.114285-.172335.114285-.174149.110657-.174149.112471-.174149.110657-.175963.108843-.175963.108843-.177777.107029-.177777.107029-.179591.105215-.179591.103401-.179591.105215-.181405.101587-.181405.101586-.183219.101587-.183219.099773-.183219.097959-.185033.097958-.1850335.097959-.185033.09433-.186847.096144-.186847.094331-.188661.092517-.1886613.090702-.188661.0907025-.190475.090702-.190475.088888-.190475.0870748-.192289.087074-.192289.087074-.1941033.083446-.194104.083446-.194103.0834465-.1959174.081632-.195917.079818-.1959173.079818-.195917.079818-.197731.07619-.199545.07619-.1977313.07619-.199545.074376-.201359.072562-.199545.072562-.201359.070748-.201359.070748-.203174.068934-.203174.067119-.203173.06712-.204987.065306-.2031734.063492-.206802.063492-.204988.063492-.206802.059864-.206801.059864-.206802.059863-.208616.05805-.208616.056236-.208616.054421-.208616.054421-.21043.054422-.21043.0526076-.212244.050794-.210429.04898-.212244.048979-.212244.047165-.214058.047165-.214058.0453517-.214057.043537-.214058.041723-.215872.041723-.214058.041723-.215872.038095-.217686.038095-.215872.038095-.217686.034467-.217686.034467-.217686.034467-.2195.030839-.2195.030839-.2195.030839-.2195.0272104-.2195.027211-.221314.027211-.221314.023583-.2213147.023583-.223128.023583-.221314.019954-.223128.019955-.223128.018141-.223128.018141-.224942.0163264-.2249426.014512-.223128.012699-.226756.012698-.224942.010884-.2249425.00907-.226756.0090708-.226756.007256-.226756.005442-.2267565.005442-.22857.003628-.226756.001814h-.223128l-.203174-.010884-.20136-.032653-.195917-.056235-.186847-.078004-.179591-.097959-.165079-.116099-.15238-.136054-.136053-.150566-.1179137-.166892-.099772-.177777-.078005-.186847-.056235-.195918-.034467-.1995455-.012698-.203173.010884-.203173.032653-.20136.056236-.195917.078004-.186847.097959-.179591.1160996-.165078.136053-.15238.150566-.136053.166893-.117913.177777-.099773.186847-.078004.195918-.0562354.199546-.034467.203173-.012698h.212244l.208616-.001814.206802-.003629.204988-.003628.2068014-.005443.204988-.007256.206802-.007256.2049876-.00907.204987-.00907.2031734-.010884.204988-.012699.2031733-.014512.203174-.0145126.203174-.014512.203173-.01814.201359-.016327.20136-.019955.2013596-.019954.20136-.021769.20136-.021768.199545-.023582.199546-.025396.199546-.025397.199545-.027211.197731-.027211.199545-.029025.197731-.030839.195918-.030839.197731-.032653.1959174-.032652.1959177-.034467.195917-.036281.195917-.036281.194103-.038095.194104-.038095.194104-.03991.194103-.041723.192289-.041723.1922893-.043537.192289-.043537.19229-.045351.190475-.0453512.190476-.047165.190475-.048979.188661-.048979.188661-.050793.188661-.050793.188661-.052607.186847-.052608.188661-.054422.185033-.0544214.186847-.056235.185033-.05805.185033-.05805.185033-.059863.183219-.059864.183219-.061678.183219-.061678.183219-.063492.181405-.063492.181405-.065306.179591-.06712.181405-.06712.179591-.06712.177777-.068933.179591-.070748.177777-.070748.175963-.070748.177777-.072562.175963-.074376.175963-.074376.174149-.07619.174149-.07619.174149-.07619.172335-.079818.172334-.078004.172335-.079818.170521-.0816325.172335-.081633.168707-.0834468.170521-.083446.168707-.08526.166893-.085261.168706-.08526.166893-.087075.165079-.0888883.165079-.088888.165079-.090703.165079-.090703.163265-.090703.163264-.092517.161451-.092517.16145-.0943305.16145-.0961446.159637-.0943305.159637-.0979586.159636-.096145.157822-.099773.156008-.097959.157822-.099773.156008-.101586.154194-.101587.154194-.101587.154194-.103401.154194-.105215.15238-.103401.150566-.107029.150566-.105215.150567-.107029.148752-.108843.148752-.108843.148752-.108843.146938-.110657.146938-.110657.145124-.112471.145124-.112471.14331-.114285.14331-.112471.14331-.116099.141496-.116099.141496-.116099.1396815-.116099.139682-.117913.137868-.119727.137868-.117913.136054-.121541.136054-.1197276.136053-.121541.13424-.121541.13424-.123356.132425-.1233557.132426-.12517.130612-.1251695.130612-.12517.128797-.126983.128798-.126984.128798-.126984.126984-.1287973.12517-.128798.125169-.130612.125169-.130611.123356-.1306114.123355-.130612.121542-.1324254.119728-.13424.121541-.13424.117913-.13424.117913-.134239.117913-.136054.116099-.136054.116099-.136054.114285-.137867.114285-.137868.112471-.139682.112471-.139682.110657-.139681.108843-.139682.110657-.141496.107029-.141496.107029-.14331.107029-.14331.105214-.14331.105215-.14331.103401-.145124.101587-.145124.101587-.146938.101587-.146938.097958-.146938.099773-.146938.0979586-.148752.096145-.148752.096145-.148752.094331-.150566.09433-.148752.092516-.15238.090702-.150566.090703-.15238.090702-.15238.088888-.15238.087074-.154194.087074-.154194.0852605-.154194.08526-.156008.083446-.156008.083447-.156008.081632-.156008.079818-.157822.079818-.157822.078004-.157823.078004-.157822.076191-.159636.07619-.159636.074376-.159636.072562-.16145.072562-.159636.070748-.16145.070748-.1632643.068934-.161451.06712-.1632644.06712-.163265.065305-.1632644.065306-.165078.063492-.165079.063491-.165079.061678-.165078.059864-.166893.05805-.1650783.0580496-.166893.05805-.166893.056235-.168707.054422-.168706.052608-.168707.052608-.168707.052607-.168707.048979-.170521.0507933-.168706.047165-.172335.047165-.170521.045351-.17052.045352-.172335.041723-.172335.043538-.172335.039909-.1723347.039909-.174149.0399094-.174148.036281-.174149.036281-.174148.036281-.174149.034467-.175963.032653-.1741487.030839-.175963.030839-.177777.029025-.175962.029025-.177777.025397-.175963.027211-.177777.023582-.177777.023582-.179591.021769-.1777764.019954-.179591.0199546-.179591.0181404-.179591.018141-.179591.014512-.181405.0145124-.179591.0145123-.181405.010885-.181405.010884-.181405.0108847-.181405.007256-.183219.007256-.181405.005442-.183219.005442-.183219.003628-.183219.001814-.185033v-.181405l-.001814-.248525-.003628-.244897-.007256-.246711-.00907-.244896-.012698-.244897-.0145123-.246711-.018141-.244896-.019955-.244897-.021768-.244897-.025397-.243082-.029025-.244897-.030839-.244896-.032653-.2430828-.036281-.243083-.038095-.243082-.039909-.243083-.043537-.243083-.045352-.243083-.04898-.241269-.050793-.2412687-.054422-.241269-.054422-.241268-.05805-.241269-.061677-.2394545-.063492-.239455-.065306-.2394548-.06712-.239455-.070748-.23764-.072562-.2376408-.074376-.23764-.078004-.23764-.078004-.2358263-.083447-.23764-.083446-.234013-.087075-.2358265-.087075-.2340124-.0907024-.234013-.09433-.232198-.09433-.234012-.097958-.232198-.099773-.230385-.101587-.230385-.105215-.230385-.105214-.22857-.108843-.2285706-.110657-.22857-.112471-.226756-.1142857-.2267567-.116099-.224942-.119727-.224942-.119727-.224942-.123355-.223128-.12517-.223128-.12517-.221314-.128797-.2195-.130611-.2213147-.13424-.217686-.13424-.2195-.136054-.215872-.137868-.215872-.139682-.215872-.14331-.214057-.14331-.214058-.145124-.2122438-.148752-.21043-.148752-.21043-.150566-.21043-.15238-.206802-.1560088-.208616-.156008-.204987-.157822-.204987-.1596363-.203174-.16145-.203174-.1632643-.20136-.163265-.201359-.166893-.197731-.168707-.197731-.168707-.197731-.170521-.195917-.172334-.194104-.174149-.192289-.175963-.192289-.177777-.190475-.177777-.188661-.181405-.188661-.181405-.185033-.183219-.185033-.183219-.185033-.186847-.181405-.186848-.181405-.188662-.179591-.188661-.177777-.192289-.175963-.1922898-.175963-.194104-.174149-.1941032-.172335-.195918-.170521-.197732-.168707-.199545-.166893-.1995456-.166893-.20136-.1650786-.203173-.16145-.203174-.1614503-.203173-.159636-.206802-.157823-.206802-.157822-.206802-.154194-.21043-.15238-.208616-.15238-.212244-.150566-.2104295-.146938-.214058-.146938-.214058-.14331-.214058-.14331-.215872-.141496-.217686-.1396812-.217686-.137868-.217686-.13424-.2195-.13424-.2195-.1324254-.221314-.130612-.221314-.126983-.2231287-.126984-.223128-.125169-.224942-.121541-.224942-.1215413-.224942-.117913-.232199-.119727-.175963-.103401-.16145-.123356-.148752-.139682-.130611-.154195-.114286-.170521-.092516-.179591-.072562-.190475-.050794-.197731-.029025-.20136-.005442-.203174.016326-.201359.039909-.199545.061678-.1941034.083446-.186847.103401-.174149.121541-.163264.139681-.146938.156009-.1324252.168707-.112471.181405-.094331.190475-.072562.195918-.050794.20136-.027211.203174-.005442.203174.0163265z"/>
  <path d="M25.6960738 87.97902h54.9493885v3.6281H25.696074z"/>
  <path d="M36.8923904 64.7047585l.1269835.0090702.125169.0181406.123355.0272107.121541.034467.119727.043537.150566.063492.159636.0653057.157822.0671198.156008.068934.156008.070748.154194.0707478.154194.070748.154194.074376.15238.074376.15238.074376.15238.0761902.148752.0780042.150566.078004.148752.0798183.148752.0798182.146938.0816323.146938.0816322.145124.0834463.145124.0852604.14331.0852603.14331.0870744.14331.087075.141496.087075.141496.088889.139681.090703.139682.090703.139682.090703.137868.092517.137867.094331.136054.09433.136054.094331.13424.096145.13424.096145.132425.097959.134239.097959.130612.097959.132425.099773.128798.099773.130612.101587.128797.101587.128797.103401.126983.101587.126983.105215.12517.103401.125169.105215.125169.105215.123355.107029.123355.107029.121542.107029.121541.108843.119727.108843.121541.108843.117913.108843.119728.110657.117914.110657.116099.112471.116099.110657.116099.112471.116099.114285.114285.112472.112471.114285.112471.114285.112472.114285.112471.116099.2195.230384.217686.232199.215872.235827.212244.235827.21043.235827.206801.239455.203174.239455.201359.239455.199545.243083.195918.241269.192289.243083.192289.244897.186847.244897.186847.244897.181405.244897.181405.246711.177777.246711.174149.244897.172335.246711.170521.246711.166893.246711.1650782.246711.161451.246711.16145.244897.156008.246711.156008.244897.15238.244897.148752.243083.148752.243083.14331.243083.14331.241269.139682.241269.137868.239455.136054.237641.1324255.237641.130612.235827.128797.234013.1251696.234012.123355.232199.121541.228571.1179137.22857.117914.226756.112471.224942.112471.223128.108843.2195.108843.2195.103401.215872.1034.214058.099773.212244.097959.208616.096145.206802.094331.204988.090702.20136.088889.197732.087074.195917.08526.192289.083446.190475.079818.188661.154194.360996.145124.351925.137868.335599.126984.321087.119727.306575.112471.290248.101587.272108.094331.255781.087074.239454.078004.217686.068934.199546.061677.179591.054422.16145.0834464.250339.050793.16145.016326.056236.034467.121542.023583.12517.016326.125169.007256.126983-.001814.126983-.010884.12517-.019955.1251695-.027211.123355-.038095.121542-.043538.117913-.054422.116099-.059864.110657-.068934.105215-.07619.101587-.083446.096144-.088888.088888-.096145.0834467-.0997727.078004-.107029.068934-.110657.061678-.114285.0526075-.117914.047165-.121542.036281-.121541.029025-.12517.019954-.126983.010884-.1269835.003628-.125169-.007256-.1269836-.014512-.123356-.023583-.123356-.032653-.119727-.039909-.116099-.0507933-.112471-.056236-.108843-.065306-.105215-.072562-.097959-.078004-.092516-.087074-.087074-.092517-.079819-.0979582-.072562-.103401-.065306-.108843-.05805-.112471-.050793-.116099-.039909-.119727-.014512-.041723-.039909-.128797-.072562-.221314-.047166-.137868-.054421-.16145-.063492-.179591-.070748-.199546-.079818-.217686-.0870748-.235826-.0943307-.252153-.103401-.2684792-.110657-.282992-.119727-.299319-.1269835-.312017-.134239-.326529-.145124-.341041-.074376-.172335-.07619-.177777-.079818-.179591-.081632-.181405-.083446-.186847-.08526-.186847-.087075-.190475-.088888-.19229-.092516-.195917-.092516-.197731-.096145-.199545-.097959-.201359-.099773-.204988-.101587-.204988-.105215-.206802-.105215-.21043-.108843-.21043-.110657-.212244-.112471-.214058-.114285-.215872-.117914-.215872-.1197278-.217686-.119727-.2195-.1233558-.2195-.12517-.221314-.128797-.223128-.128797-.221314-.132426-.224942-.13424-.223128-.136054-.224942-.137868-.2249426-.141496-.224942-.141496-.226756-.145124-.224943-.146938-.226756-.148752-.226756-.15238-.224942-.15238-.2267567-.156009-.224943-.157823-.224942-.159636-.224942-.16145-.224942-.165078-.2249424-.165079-.223128-.168706-.221314-.170521-.223128-.172335-.2195-.175963-.221314-.175963-.217686-.179591-.217686-.181405-.217686-.183219-.214058-.185033-.214058-.186847-.2122434-.190475-.21043-.19229-.208616-.194103-.208616-.197732-.206801-.0961446-.099773-.099773-.101587-.099772-.101587-.099773-.101587-.101587-.099773-.101587-.099772-.101587-.097959-.103401-.0997724-.101587-.0979585-.105215-.096145-.103401-.097959-.105215-.096145-.105215-.094331-.105215-.096144-.105215-.094331-.107029-.094331-.107029-.092517-.108843-.092516-.107029-.092516-.108843-.090703-.108843-.090702-.110657-.090703-.110657-.088889-.110657-.088889-.110657-.087075-.112471-.087074-.112471-.087075-.112471-.08526-.114285-.085261-.1124713-.083446-.114286-.083446-.116099-.083446-.114285-.081632-.1160994-.081632-.117913-.079818-.1160998-.0798182-.117914-.078004-.117913-.078004-.117913-.078004-.119727-.07619-.119727-.07619-.119727-.074376-.121541-.072562-.119727-.072562-.1233557-.072562-.121542-.070748-.1233556-.070748-.121542-.068934-.12517-.068934-.123355-.06712-.125169-.067119-.1251695-.065305-.125169-.065306-.126984-.063492-.126983-.063492-.126983-.061678-.128798-.059864-.128798-.059863-.128797-.059863-.1287978-.0580496-.130611-.056236-.130612-.056235-.130612-.054421-.139682-.056235-.114285-.052607-.112471-.059864-.107029-.06712-.101586-.07619-.096144-.081633-.090703-.087075-.08526-.094331-.078004-.101587-.068934-.105215-.063492-.108843-.054422-.114285-.047165-.117913-.038095-.119728-.030839-.123355-.021768-.125169-.0126985-.126983-.003628-.125169.005442-.126984.0126984-.12517.023582-.12517.030839-.123355.039909-.1197275.047166-.117913.056236-.1124714.063492-.110657.072562-.103401.078004-.099773.085261-.094331.0907028-.087074.097959-.081633.101587-.072562.108843-.06712.110657-.059864.1160994-.050794.119727-.041723.121541-.034467.12517-.027211.125169-.016326.12517-.00907.126983.001814z"/>
  <path d="M10.176876 64.7029444h53.289533v3.6281H10.176876z"/>
</svg>
