<?xml version="1.0" encoding="UTF-8" standalone="no"?>
<!DOCTYPE svg PUBLIC "-//W3C//DTD SVG 1.1//EN" "http://www.w3.org/Graphics/SVG/1.1/DTD/svg11.dtd">
<svg width="100%" height="100%" viewBox="0 0 100 100" version="1.1" xmlns="http://www.w3.org/2000/svg" xmlns:xlink="http://www.w3.org/1999/xlink" xml:space="preserve" style="fill-rule:evenodd;clip-rule:evenodd;stroke-linejoin:round;stroke-miterlimit:1.41421;">
    <g id="g3327" transform="matrix(0.746229,0,0,0.746229,-674.059,-157.241)">
        <path id="path3262" d="M915,222.375L915,332.375L935,332.375L1005,222.375L925,222.375L915,222.375ZM925,232.375L986.625,232.375L980.25,242.375L925,242.375L925,232.375ZM925,252.375L973.938,252.375L967.563,262.375L925,262.375L925,252.375ZM925,272.375L961.188,272.375L954.813,282.375L925,282.375L925,272.375ZM925,292.375L948.438,292.375L942.063,302.375L925,302.375L925,292.375ZM925,312.375L935.75,312.375L929.375,322.375L925,322.375L925,312.375Z" style="fill:black;fill-rule:nonzero;"/>
        <path id="path3260" d="M1025,222.375L1016.88,222.563L997.938,252.375L1015,252.375L1015,322.375L953.375,322.375L947,332.375L1025,332.375L1025,252.375L1025,222.375ZM991.563,262.375L985.188,272.375L978.813,282.375L972.438,292.375L1005,292.375L1005,282.375L1005,272.375L1005,262.375L991.563,262.375ZM966.063,302.375L959.75,312.375L1005,312.375L1005,302.375L966.063,302.375Z" style="fill:black;fill-rule:nonzero;"/>
    </g>
</svg>
