<?xml version="1.0" encoding="UTF-8" standalone="no"?>
<!DOCTYPE svg PUBLIC "-//W3C//DTD SVG 1.1//EN" "http://www.w3.org/Graphics/SVG/1.1/DTD/svg11.dtd">
<svg width="100%" height="100%" viewBox="0 0 100 100" version="1.1" xmlns="http://www.w3.org/2000/svg" xmlns:xlink="http://www.w3.org/1999/xlink" xml:space="preserve" style="fill-rule:evenodd;clip-rule:evenodd;stroke-linejoin:round;stroke-miterlimit:1.41421;">
    <g transform="matrix(1.12784,0,0,1.12784,-3.72772,-6.65391)">
        <g>
            <path d="M73.264,68.88C67.034,68.88 61.966,73.948 61.966,80.178C61.966,86.409 67.035,91.478 73.264,91.478C79.494,91.478 84.565,86.409 84.565,80.178C84.565,73.948 79.494,68.88 73.264,68.88ZM73.264,88.184C68.851,88.184 65.26,84.594 65.26,80.178C65.26,75.766 68.85,72.174 73.264,72.174C77.679,72.174 81.271,75.765 81.271,80.178C81.27,84.594 77.678,88.184 73.264,88.184ZM46.499,64.45C49.064,61.082 51.645,57.408 53.083,53.513C54.742,49 55.859,44.221 55.849,39.438C55.843,37.047 55.89,35.246 55.451,32.893C55.033,30.535 54.728,27.719 53.888,25.469C52.316,21.194 50.962,17.967 48.052,14.368L48.052,22.297L47.571,25.469L43.661,7.656L57.314,12.481L62.028,14.368L48.771,13.447C53.718,15.98 54.085,16.413 56.896,20.095C58.464,22.148 60.914,29.081 61.41,31.534C61.885,33.99 61.911,37.232 61.895,39.736C61.87,44.743 60.528,50.608 57.945,54.876C55.066,59.635 52.32,62.15 49.284,65.214C53.739,66.354 56.896,69.954 56.896,74.76C56.896,80.447 52.269,85.075 46.581,85.075C40.894,85.075 36.267,80.447 36.267,74.76C36.267,69.102 40.847,64.493 46.499,64.45ZM53.888,74.761C53.888,78.789 50.611,82.069 46.581,82.069C42.553,82.069 39.273,78.79 39.273,74.761C39.273,70.732 42.552,67.454 46.581,67.454C50.611,67.454 53.888,70.731 53.888,74.761ZM8.431,70.52C8.725,70.814 9.11,70.961 9.493,70.961C9.879,70.961 10.264,70.814 10.557,70.52L18.304,62.772L26.052,70.52C26.346,70.814 26.73,70.961 27.114,70.961C27.5,70.961 27.885,70.814 28.177,70.52C28.765,69.933 28.765,68.981 28.177,68.393L20.43,60.646L28.177,52.898C28.765,52.31 28.765,51.359 28.177,50.771C27.59,50.184 26.638,50.184 26.051,50.771L18.303,58.519L10.556,50.771C9.968,50.184 9.016,50.184 8.429,50.771C7.841,51.359 7.841,52.31 8.429,52.898L16.176,60.646L8.429,68.393C7.843,68.981 7.843,69.933 8.431,70.52ZM46.499,64.45L46.448,64.519C46.195,64.562 45.944,64.628 46.306,64.71L46.448,64.519C46.713,64.471 46.98,64.446 46.581,64.446L46.499,64.45ZM67.186,53.701C67.48,53.995 67.865,54.142 68.248,54.142C68.634,54.142 69.019,53.995 69.312,53.701L77.059,45.953L84.807,53.701C85.101,53.995 85.485,54.142 85.869,54.142C86.255,54.142 86.64,53.995 86.932,53.701C87.52,53.114 87.52,52.162 86.932,51.574L79.185,43.827L86.932,36.079C87.52,35.491 87.52,34.54 86.932,33.952C86.345,33.365 85.393,33.365 84.806,33.952L77.058,41.7L69.311,33.952C68.723,33.365 67.771,33.365 67.184,33.952C66.596,34.54 66.596,35.491 67.184,36.079L74.931,43.827L67.184,51.574C66.598,52.162 66.598,53.114 67.186,53.701ZM21.433,43.181C21.727,43.475 22.112,43.622 22.495,43.622C22.881,43.622 23.266,43.475 23.559,43.181L31.306,35.433L39.054,43.181C39.348,43.475 39.732,43.622 40.116,43.622C40.502,43.622 40.887,43.475 41.179,43.181C41.767,42.594 41.767,41.642 41.179,41.054L33.432,33.307L41.179,25.559C41.767,24.971 41.767,24.02 41.179,23.432C40.592,22.845 39.64,22.845 39.053,23.432L31.305,31.18L23.558,23.432C22.97,22.845 22.018,22.845 21.431,23.432C20.843,24.02 20.843,24.971 21.431,25.559L29.178,33.307L21.431,41.054C20.845,41.642 20.845,42.594 21.433,43.181Z" style="fill:black;"/>
            <path d="M73.41,68.88L73.556,68.883L73.701,68.888L73.845,68.894L73.989,68.903L74.133,68.913L74.276,68.924L74.418,68.938L74.56,68.953L74.702,68.97L74.842,68.989L74.983,69.01L75.123,69.032L75.262,69.056L75.401,69.082L75.539,69.109L75.676,69.139L75.813,69.169L75.949,69.202L76.085,69.236L76.22,69.272L76.354,69.309L76.488,69.348L76.621,69.388L76.753,69.43L76.885,69.474L77.015,69.519L77.146,69.566L77.275,69.615L77.404,69.665L77.531,69.716L77.658,69.769L77.785,69.823L77.91,69.879L78.035,69.937L78.159,69.995L78.282,70.056L78.404,70.117L78.526,70.181L78.646,70.245L78.766,70.311L78.884,70.379L79.002,70.447L79.119,70.518L79.235,70.589L79.35,70.662L79.465,70.736L79.578,70.812L79.69,70.889L79.801,70.967L79.912,71.046L80.021,71.127L80.129,71.209L80.237,71.292L80.343,71.377L80.448,71.463L80.552,71.55L80.655,71.638L80.757,71.728L80.858,71.818L80.958,71.91L81.057,72.003L81.155,72.097L81.251,72.193L81.346,72.289L81.441,72.387L81.534,72.485L81.626,72.585L81.716,72.686L81.806,72.788L81.894,72.891L81.981,72.995L82.067,73.101L82.151,73.207L82.235,73.314L82.317,73.422L82.398,73.532L82.477,73.642L82.555,73.753L82.632,73.865L82.708,73.979L82.782,74.093L82.855,74.208L82.927,74.324L82.997,74.441L83.066,74.559L83.133,74.677L83.199,74.797L83.264,74.918L83.327,75.039L83.389,75.161L83.449,75.284L83.508,75.408L83.565,75.533L83.621,75.658L83.676,75.784L83.729,75.912L83.78,76.039L83.83,76.168L83.878,76.297L83.925,76.427L83.97,76.558L84.014,76.69L84.056,76.822L84.097,76.955L84.136,77.089L84.173,77.223L84.209,77.358L84.243,77.493L84.275,77.63L84.306,77.766L84.335,77.904L84.363,78.042L84.388,78.181L84.412,78.32L84.435,78.46L84.455,78.6L84.474,78.741L84.491,78.883L84.507,79.025L84.52,79.167L84.532,79.31L84.542,79.454L84.551,79.598L84.557,79.742L84.562,79.887L84.564,80.032L84.565,80.178L84.564,80.324L84.562,80.469L84.557,80.614L84.551,80.759L84.542,80.903L84.532,81.046L84.52,81.189L84.507,81.332L84.491,81.474L84.474,81.615L84.455,81.756L84.435,81.897L84.412,82.037L84.388,82.176L84.363,82.315L84.335,82.453L84.306,82.59L84.275,82.727L84.243,82.863L84.209,82.999L84.173,83.134L84.136,83.268L84.097,83.402L84.056,83.535L84.014,83.667L83.97,83.799L83.925,83.929L83.878,84.059L83.83,84.189L83.78,84.317L83.729,84.445L83.676,84.572L83.621,84.699L83.565,84.824L83.508,84.949L83.449,85.073L83.389,85.196L83.327,85.318L83.264,85.439L83.199,85.56L83.133,85.68L83.066,85.798L82.997,85.916L82.927,86.033L82.855,86.149L82.782,86.264L82.708,86.378L82.632,86.492L82.555,86.604L82.477,86.715L82.398,86.825L82.317,86.935L82.235,87.043L82.151,87.15L82.067,87.257L81.981,87.362L81.894,87.466L81.806,87.569L81.716,87.671L81.626,87.772L81.534,87.872L81.441,87.97L81.346,88.068L81.251,88.165L81.155,88.26L81.057,88.354L80.958,88.447L80.858,88.539L80.757,88.63L80.655,88.719L80.552,88.807L80.448,88.894L80.343,88.98L80.237,89.065L80.129,89.148L80.021,89.23L79.912,89.311L79.801,89.39L79.69,89.469L79.578,89.545L79.465,89.621L79.35,89.695L79.235,89.768L79.119,89.84L79.002,89.91L78.884,89.979L78.766,90.046L78.646,90.112L78.526,90.177L78.404,90.24L78.282,90.302L78.159,90.362L78.035,90.421L77.91,90.478L77.785,90.534L77.658,90.588L77.531,90.641L77.404,90.693L77.275,90.743L77.146,90.791L77.015,90.838L76.885,90.883L76.753,90.927L76.621,90.969L76.488,91.009L76.354,91.048L76.22,91.086L76.085,91.121L75.949,91.156L75.813,91.188L75.676,91.219L75.539,91.248L75.401,91.275L75.262,91.301L75.123,91.325L74.983,91.347L74.842,91.368L74.702,91.387L74.56,91.404L74.418,91.419L74.276,91.433L74.133,91.445L73.989,91.455L73.845,91.463L73.701,91.469L73.556,91.474L73.41,91.477L73.264,91.478L73.119,91.477L72.973,91.474L72.828,91.469L72.684,91.463L72.54,91.455L72.396,91.445L72.253,91.433L72.111,91.419L71.969,91.404L71.827,91.387L71.687,91.368L71.546,91.347L71.406,91.325L71.267,91.301L71.128,91.275L70.99,91.248L70.853,91.219L70.716,91.188L70.58,91.156L70.444,91.121L70.309,91.086L70.175,91.048L70.041,91.009L69.908,90.969L69.776,90.927L69.645,90.883L69.514,90.838L69.384,90.791L69.254,90.743L69.126,90.693L68.998,90.641L68.871,90.588L68.745,90.534L68.619,90.478L68.494,90.421L68.371,90.362L68.247,90.302L68.125,90.24L68.004,90.177L67.883,90.112L67.764,90.046L67.645,89.979L67.527,89.91L67.41,89.84L67.294,89.768L67.179,89.695L67.065,89.621L66.952,89.545L66.84,89.469L66.728,89.39L66.618,89.311L66.509,89.23L66.4,89.148L66.293,89.065L66.187,88.98L66.082,88.894L65.978,88.807L65.875,88.719L65.773,88.63L65.672,88.539L65.572,88.447L65.473,88.354L65.375,88.26L65.279,88.165L65.184,88.068L65.089,87.97L64.996,87.872L64.905,87.772L64.814,87.671L64.725,87.569L64.636,87.466L64.549,87.362L64.463,87.257L64.379,87.15L64.296,87.043L64.214,86.935L64.133,86.825L64.053,86.715L63.975,86.604L63.898,86.492L63.823,86.378L63.748,86.264L63.676,86.149L63.604,86.033L63.534,85.916L63.465,85.798L63.398,85.68L63.332,85.56L63.267,85.439L63.204,85.318L63.142,85.196L63.082,85.073L63.023,84.949L62.966,84.824L62.91,84.699L62.855,84.572L62.802,84.445L62.751,84.317L62.701,84.189L62.653,84.059L62.606,83.929L62.561,83.799L62.517,83.667L62.475,83.535L62.434,83.402L62.395,83.268L62.358,83.134L62.322,82.999L62.288,82.863L62.256,82.727L62.225,82.59L62.196,82.453L62.168,82.315L62.143,82.176L62.119,82.037L62.096,81.897L62.076,81.756L62.057,81.615L62.04,81.474L62.024,81.332L62.011,81.189L61.999,81.046L61.989,80.903L61.981,80.759L61.974,80.614L61.97,80.469L61.967,80.324L61.966,80.178L61.967,80.032L61.97,79.887L61.974,79.742L61.981,79.598L61.989,79.454L61.999,79.31L62.011,79.167L62.024,79.025L62.04,78.883L62.057,78.741L62.076,78.6L62.096,78.46L62.119,78.32L62.143,78.181L62.168,78.042L62.196,77.904L62.225,77.766L62.256,77.63L62.288,77.493L62.322,77.358L62.358,77.223L62.395,77.089L62.434,76.955L62.475,76.822L62.517,76.69L62.56,76.558L62.606,76.427L62.653,76.297L62.701,76.168L62.751,76.039L62.802,75.912L62.855,75.784L62.91,75.658L62.965,75.533L63.023,75.408L63.082,75.284L63.142,75.161L63.204,75.039L63.267,74.918L63.331,74.797L63.397,74.677L63.465,74.559L63.534,74.441L63.604,74.324L63.675,74.208L63.748,74.093L63.822,73.979L63.898,73.865L63.975,73.753L64.053,73.642L64.132,73.532L64.213,73.422L64.295,73.314L64.379,73.207L64.463,73.101L64.549,72.995L64.636,72.891L64.724,72.788L64.814,72.686L64.904,72.585L64.996,72.485L65.089,72.387L65.183,72.289L65.279,72.193L65.375,72.097L65.473,72.003L65.571,71.91L65.671,71.818L65.772,71.728L65.874,71.638L65.977,71.55L66.081,71.463L66.187,71.377L66.293,71.292L66.4,71.209L66.508,71.127L66.618,71.046L66.728,70.967L66.839,70.889L66.951,70.812L67.065,70.736L67.179,70.662L67.294,70.589L67.41,70.518L67.527,70.447L67.645,70.379L67.763,70.311L67.883,70.245L68.003,70.181L68.125,70.117L68.247,70.056L68.37,69.995L68.494,69.937L68.619,69.879L68.744,69.823L68.87,69.769L68.997,69.716L69.125,69.665L69.254,69.615L69.383,69.566L69.513,69.519L69.644,69.474L69.776,69.43L69.908,69.388L70.041,69.348L70.175,69.309L70.309,69.272L70.444,69.236L70.579,69.202L70.716,69.169L70.853,69.139L70.99,69.109L71.128,69.082L71.267,69.056L71.406,69.032L71.546,69.01L71.686,68.989L71.827,68.97L71.969,68.953L72.111,68.938L72.253,68.924L72.396,68.913L72.54,68.903L72.684,68.894L72.828,68.888L72.973,68.883L73.119,68.88L73.264,68.88L73.41,68.88ZM73.161,72.174L73.058,72.176L72.955,72.179L72.853,72.184L72.751,72.19L72.649,72.197L72.548,72.205L72.447,72.215L72.346,72.226L72.246,72.238L72.146,72.251L72.047,72.266L71.948,72.282L71.849,72.299L71.751,72.317L71.653,72.337L71.556,72.357L71.459,72.379L71.362,72.402L71.266,72.426L71.17,72.451L71.075,72.478L70.981,72.505L70.886,72.534L70.793,72.564L70.7,72.595L70.607,72.627L70.515,72.66L70.423,72.694L70.332,72.73L70.241,72.766L70.151,72.804L70.062,72.842L69.973,72.882L69.885,72.923L69.797,72.964L69.71,73.007L69.623,73.051L69.537,73.096L69.452,73.141L69.367,73.188L69.283,73.236L69.199,73.285L69.117,73.334L69.034,73.385L68.953,73.437L68.872,73.489L68.792,73.543L68.712,73.597L68.633,73.653L68.555,73.709L68.478,73.766L68.401,73.824L68.325,73.883L68.25,73.943L68.175,74.004L68.102,74.066L68.029,74.128L67.956,74.192L67.885,74.256L67.814,74.321L67.744,74.387L67.675,74.454L67.607,74.521L67.539,74.59L67.472,74.659L67.407,74.729L67.342,74.799L67.277,74.871L67.214,74.943L67.151,75.016L67.09,75.09L67.029,75.164L66.969,75.24L66.91,75.316L66.852,75.392L66.795,75.47L66.738,75.548L66.683,75.627L66.629,75.706L66.575,75.787L66.523,75.867L66.471,75.949L66.42,76.031L66.371,76.114L66.322,76.197L66.274,76.282L66.227,76.366L66.182,76.452L66.137,76.538L66.093,76.624L66.05,76.711L66.009,76.799L65.968,76.888L65.928,76.976L65.89,77.066L65.852,77.156L65.816,77.246L65.781,77.338L65.746,77.429L65.713,77.521L65.681,77.614L65.65,77.707L65.62,77.801L65.592,77.895L65.564,77.99L65.538,78.085L65.512,78.18L65.488,78.276L65.465,78.373L65.443,78.47L65.423,78.567L65.403,78.665L65.385,78.763L65.368,78.862L65.352,78.961L65.338,79.06L65.324,79.16L65.312,79.26L65.301,79.361L65.292,79.462L65.283,79.563L65.276,79.665L65.27,79.767L65.266,79.869L65.263,79.972L65.261,80.075L65.26,80.178L65.261,80.281L65.263,80.384L65.266,80.487L65.27,80.59L65.276,80.692L65.283,80.793L65.292,80.895L65.301,80.996L65.312,81.096L65.324,81.197L65.338,81.297L65.352,81.396L65.368,81.495L65.385,81.594L65.403,81.692L65.423,81.79L65.444,81.887L65.465,81.984L65.488,82.081L65.512,82.177L65.538,82.273L65.564,82.368L65.592,82.462L65.62,82.557L65.65,82.65L65.681,82.744L65.713,82.836L65.746,82.928L65.781,83.02L65.816,83.111L65.853,83.202L65.89,83.292L65.929,83.381L65.968,83.47L66.009,83.559L66.051,83.646L66.093,83.734L66.137,83.82L66.182,83.906L66.228,83.992L66.274,84.076L66.322,84.16L66.371,84.244L66.42,84.327L66.471,84.409L66.523,84.491L66.575,84.571L66.629,84.652L66.683,84.731L66.739,84.81L66.795,84.888L66.852,84.966L66.91,85.042L66.969,85.118L67.029,85.194L67.09,85.268L67.152,85.342L67.214,85.415L67.278,85.487L67.342,85.559L67.407,85.629L67.473,85.699L67.54,85.769L67.607,85.837L67.675,85.904L67.745,85.971L67.815,86.037L67.885,86.102L67.957,86.166L68.029,86.23L68.102,86.292L68.176,86.354L68.25,86.415L68.326,86.475L68.402,86.534L68.478,86.592L68.556,86.649L68.634,86.705L68.713,86.761L68.792,86.815L68.872,86.869L68.953,86.921L69.035,86.973L69.117,87.023L69.2,87.073L69.283,87.122L69.367,87.17L69.452,87.216L69.538,87.262L69.624,87.307L69.71,87.351L69.797,87.393L69.885,87.435L69.973,87.476L70.062,87.515L70.152,87.554L70.242,87.591L70.332,87.628L70.424,87.663L70.515,87.697L70.607,87.73L70.7,87.763L70.793,87.794L70.887,87.823L70.981,87.852L71.076,87.88L71.171,87.906L71.266,87.931L71.362,87.955L71.459,87.978L71.556,88L71.653,88.021L71.751,88.04L71.849,88.059L71.948,88.076L72.047,88.091L72.147,88.106L72.246,88.119L72.347,88.131L72.447,88.142L72.548,88.152L72.65,88.16L72.751,88.167L72.853,88.173L72.956,88.178L73.058,88.181L73.161,88.183L73.264,88.184L73.368,88.183L73.471,88.181L73.573,88.178L73.676,88.173L73.778,88.167L73.879,88.16L73.981,88.152L74.082,88.142L74.182,88.131L74.283,88.119L74.382,88.106L74.482,88.091L74.581,88.076L74.68,88.059L74.778,88.04L74.876,88.021L74.973,88L75.07,87.978L75.167,87.955L75.263,87.931L75.358,87.906L75.453,87.88L75.548,87.852L75.642,87.823L75.736,87.794L75.829,87.763L75.922,87.73L76.014,87.697L76.106,87.663L76.197,87.628L76.287,87.591L76.377,87.554L76.467,87.515L76.556,87.476L76.644,87.435L76.732,87.393L76.819,87.351L76.906,87.307L76.992,87.262L77.077,87.216L77.162,87.17L77.246,87.122L77.329,87.073L77.412,87.023L77.495,86.973L77.576,86.921L77.657,86.869L77.737,86.815L77.817,86.761L77.896,86.705L77.974,86.649L78.051,86.592L78.128,86.534L78.204,86.475L78.279,86.415L78.354,86.354L78.427,86.292L78.501,86.23L78.573,86.166L78.644,86.102L78.715,86.037L78.785,85.971L78.854,85.904L78.923,85.837L78.99,85.769L79.057,85.699L79.123,85.629L79.188,85.559L79.252,85.487L79.315,85.415L79.378,85.342L79.44,85.268L79.501,85.194L79.56,85.118L79.619,85.042L79.678,84.966L79.735,84.888L79.791,84.81L79.847,84.731L79.901,84.652L79.955,84.571L80.007,84.491L80.059,84.409L80.11,84.327L80.159,84.244L80.208,84.16L80.256,84.076L80.303,83.992L80.348,83.906L80.393,83.82L80.437,83.734L80.48,83.646L80.521,83.559L80.562,83.47L80.602,83.381L80.64,83.292L80.678,83.202L80.714,83.111L80.75,83.02L80.784,82.928L80.817,82.836L80.849,82.744L80.88,82.65L80.91,82.557L80.939,82.462L80.966,82.368L80.993,82.273L81.018,82.177L81.042,82.081L81.065,81.984L81.087,81.887L81.108,81.79L81.127,81.692L81.146,81.594L81.163,81.495L81.179,81.396L81.193,81.297L81.207,81.197L81.219,81.096L81.23,80.996L81.239,80.895L81.248,80.793L81.255,80.692L81.261,80.59L81.265,80.487L81.269,80.384L81.271,80.281L81.271,80.178L81.271,80.075L81.269,79.972L81.265,79.869L81.261,79.767L81.255,79.665L81.248,79.563L81.239,79.462L81.23,79.361L81.219,79.26L81.207,79.16L81.193,79.06L81.179,78.961L81.163,78.862L81.146,78.763L81.128,78.665L81.108,78.567L81.088,78.47L81.066,78.373L81.043,78.276L81.019,78.18L80.993,78.084L80.967,77.989L80.939,77.895L80.911,77.8L80.881,77.707L80.85,77.614L80.818,77.521L80.785,77.429L80.75,77.337L80.715,77.246L80.678,77.155L80.641,77.065L80.602,76.976L80.563,76.887L80.522,76.799L80.48,76.711L80.438,76.624L80.394,76.537L80.349,76.451L80.303,76.366L80.257,76.281L80.209,76.197L80.16,76.114L80.11,76.031L80.06,75.948L80.008,75.867L79.955,75.786L79.902,75.706L79.847,75.626L79.792,75.548L79.736,75.469L79.678,75.392L79.62,75.315L79.561,75.239L79.501,75.164L79.441,75.089L79.379,75.016L79.316,74.943L79.253,74.87L79.189,74.799L79.124,74.728L79.058,74.658L78.991,74.589L78.923,74.521L78.855,74.453L78.786,74.386L78.716,74.321L78.645,74.256L78.574,74.191L78.501,74.128L78.428,74.065L78.354,74.004L78.28,73.943L78.205,73.883L78.129,73.824L78.052,73.766L77.974,73.709L77.896,73.652L77.817,73.597L77.738,73.543L77.658,73.489L77.577,73.436L77.495,73.385L77.413,73.334L77.33,73.284L77.247,73.236L77.163,73.188L77.078,73.141L76.992,73.095L76.906,73.051L76.82,73.007L76.733,72.964L76.645,72.922L76.556,72.882L76.467,72.842L76.378,72.804L76.288,72.766L76.197,72.73L76.106,72.694L76.015,72.66L75.922,72.627L75.83,72.595L75.736,72.564L75.643,72.534L75.549,72.505L75.454,72.478L75.359,72.451L75.263,72.426L75.167,72.402L75.07,72.379L74.973,72.357L74.876,72.337L74.778,72.317L74.68,72.299L74.581,72.282L74.482,72.266L74.383,72.251L74.283,72.238L74.183,72.226L74.082,72.215L73.981,72.205L73.88,72.197L73.778,72.19L73.676,72.184L73.574,72.179L73.471,72.176L73.368,72.174L73.264,72.174L73.161,72.174ZM57.314,12.481L62.028,14.368L48.771,13.447L49.222,13.679L49.647,13.899L50.048,14.109L50.239,14.21L50.425,14.309L50.606,14.406L50.781,14.501L50.952,14.594L51.117,14.686L51.278,14.776L51.434,14.864L51.585,14.951L51.732,15.037L51.875,15.121L52.015,15.205L52.15,15.288L52.281,15.37L52.41,15.451L52.534,15.532L52.656,15.613L52.775,15.693L52.89,15.773L53.003,15.853L53.114,15.933L53.222,16.014L53.328,16.094L53.432,16.176L53.534,16.258L53.634,16.34L53.733,16.424L53.831,16.508L53.927,16.593L54.022,16.68L54.116,16.768L54.209,16.858L54.302,16.949L54.394,17.041L54.486,17.136L54.578,17.233L54.67,17.331L54.762,17.432L54.855,17.535L54.948,17.64L55.042,17.749L55.136,17.859L55.232,17.973L55.329,18.089L55.427,18.209L55.526,18.332L55.628,18.457L55.731,18.587L55.943,18.856L56.164,19.141L56.396,19.442L56.64,19.759L56.896,20.095L56.933,20.144L56.97,20.195L57.008,20.248L57.046,20.302L57.084,20.358L57.122,20.415L57.2,20.535L57.278,20.661L57.358,20.794L57.439,20.932L57.52,21.076L57.602,21.225L57.685,21.379L57.768,21.539L57.852,21.703L57.937,21.872L58.022,22.045L58.107,22.222L58.193,22.404L58.279,22.589L58.365,22.777L58.452,22.969L58.538,23.164L58.624,23.362L58.711,23.562L58.797,23.765L58.883,23.97L58.968,24.177L59.054,24.386L59.139,24.596L59.223,24.808L59.307,25.021L59.39,25.235L59.473,25.449L59.555,25.665L59.636,25.88L59.717,26.095L59.796,26.311L59.875,26.526L59.952,26.74L60.028,26.954L60.103,27.166L60.177,27.378L60.25,27.588L60.321,27.796L60.391,28.003L60.459,28.207L60.526,28.41L60.591,28.609L60.654,28.806L60.716,29L60.776,29.191L60.834,29.379L60.89,29.563L60.944,29.743L60.996,29.919L61.045,30.092L61.093,30.259L61.138,30.422L61.181,30.58L61.222,30.733L61.26,30.881L61.295,31.024L61.328,31.16L61.358,31.291L61.386,31.416L61.41,31.534L61.432,31.649L61.454,31.766L61.474,31.884L61.494,32.003L61.514,32.123L61.532,32.244L61.551,32.366L61.568,32.489L61.585,32.612L61.602,32.737L61.633,32.988L61.662,33.242L61.689,33.499L61.714,33.759L61.737,34.02L61.758,34.283L61.777,34.548L61.794,34.814L61.81,35.081L61.824,35.349L61.837,35.617L61.848,35.885L61.858,36.153L61.867,36.421L61.874,36.688L61.881,36.954L61.886,37.219L61.89,37.482L61.893,37.743L61.896,38.003L61.897,38.259L61.899,38.765L61.898,39.258L61.895,39.736L61.893,39.971L61.889,40.208L61.883,40.445L61.875,40.684L61.866,40.924L61.854,41.165L61.84,41.406L61.824,41.649L61.807,41.892L61.788,42.136L61.766,42.381L61.743,42.627L61.718,42.873L61.691,43.119L61.662,43.366L61.631,43.614L61.598,43.861L61.563,44.11L61.527,44.358L61.488,44.606L61.448,44.855L61.406,45.104L61.362,45.353L61.316,45.601L61.268,45.85L61.218,46.098L61.166,46.347L61.112,46.595L61.057,46.842L61,47.09L60.94,47.337L60.879,47.583L60.816,47.829L60.752,48.074L60.685,48.319L60.616,48.563L60.546,48.806L60.474,49.048L60.399,49.29L60.323,49.53L60.245,49.77L60.166,50.008L60.084,50.246L60.001,50.482L59.915,50.717L59.828,50.95L59.739,51.183L59.648,51.414L59.556,51.643L59.461,51.871L59.365,52.098L59.267,52.323L59.167,52.546L59.065,52.768L58.961,52.987L58.855,53.205L58.748,53.421L58.639,53.635L58.528,53.847L58.415,54.057L58.3,54.265L58.242,54.368L58.184,54.471L58.125,54.573L58.065,54.674L58.006,54.775L57.945,54.876L57.81,55.097L57.676,55.315L57.541,55.53L57.407,55.742L57.273,55.951L57.139,56.157L57.005,56.36L56.871,56.56L56.737,56.758L56.604,56.953L56.47,57.145L56.337,57.334L56.203,57.521L56.07,57.706L55.937,57.888L55.804,58.068L55.671,58.245L55.538,58.421L55.405,58.594L55.272,58.765L55.139,58.934L55.006,59.101L54.873,59.267L54.74,59.43L54.607,59.592L54.473,59.752L54.34,59.91L54.207,60.067L54.074,60.222L53.94,60.376L53.807,60.529L53.673,60.68L53.539,60.83L53.405,60.979L53.271,61.127L53.137,61.273L53.003,61.419L52.869,61.564L52.734,61.708L52.599,61.851L52.329,62.135L52.058,62.417L51.786,62.697L51.513,62.975L51.239,63.252L50.964,63.53L50.409,64.085L49.85,64.645L49.567,64.928L49.284,65.214L49.388,65.241L49.491,65.269L49.595,65.298L49.697,65.328L49.8,65.358L49.901,65.39L50.003,65.423L50.103,65.456L50.203,65.49L50.303,65.525L50.402,65.561L50.501,65.598L50.599,65.636L50.696,65.674L50.793,65.714L50.89,65.754L50.986,65.795L51.081,65.837L51.176,65.88L51.27,65.923L51.363,65.968L51.456,66.013L51.549,66.059L51.64,66.106L51.732,66.154L51.822,66.202L51.912,66.252L52.001,66.302L52.09,66.353L52.178,66.405L52.266,66.457L52.352,66.51L52.439,66.565L52.524,66.619L52.609,66.675L52.693,66.732L52.777,66.789L52.86,66.847L52.942,66.905L53.023,66.965L53.104,67.025L53.184,67.086L53.264,67.148L53.342,67.211L53.42,67.274L53.498,67.338L53.574,67.403L53.65,67.468L53.725,67.534L53.799,67.601L53.873,67.669L53.946,67.737L54.018,67.806L54.09,67.876L54.16,67.947L54.23,68.018L54.299,68.09L54.367,68.162L54.435,68.236L54.502,68.31L54.568,68.384L54.633,68.46L54.697,68.536L54.761,68.612L54.823,68.69L54.885,68.768L54.946,68.846L55.006,68.926L55.066,69.006L55.124,69.086L55.182,69.168L55.239,69.25L55.295,69.332L55.35,69.416L55.404,69.499L55.458,69.584L55.51,69.669L55.562,69.755L55.612,69.841L55.662,69.928L55.711,70.016L55.759,70.104L55.806,70.193L55.852,70.282L55.898,70.372L55.942,70.463L55.985,70.554L56.028,70.646L56.069,70.739L56.11,70.832L56.15,70.925L56.188,71.019L56.226,71.114L56.263,71.209L56.298,71.305L56.333,71.401L56.367,71.498L56.4,71.596L56.432,71.694L56.462,71.793L56.492,71.892L56.521,71.991L56.549,72.092L56.575,72.192L56.601,72.294L56.626,72.395L56.649,72.498L56.672,72.601L56.694,72.704L56.714,72.808L56.733,72.912L56.752,73.017L56.769,73.122L56.785,73.228L56.8,73.335L56.814,73.441L56.827,73.549L56.839,73.657L56.85,73.765L56.86,73.874L56.868,73.983L56.876,74.093L56.882,74.203L56.887,74.313L56.891,74.424L56.894,74.536L56.896,74.648L56.896,74.76L56.895,74.893L56.893,75.026L56.889,75.158L56.883,75.29L56.875,75.422L56.866,75.553L56.855,75.683L56.843,75.813L56.829,75.943L56.813,76.072L56.796,76.201L56.777,76.329L56.757,76.457L56.735,76.584L56.711,76.71L56.686,76.836L56.66,76.962L56.632,77.087L56.602,77.211L56.571,77.335L56.538,77.458L56.504,77.581L56.469,77.703L56.432,77.824L56.393,77.945L56.353,78.065L56.312,78.184L56.269,78.303L56.225,78.421L56.18,78.539L56.133,78.655L56.084,78.771L56.035,78.887L55.984,79.001L55.931,79.115L55.878,79.228L55.822,79.34L55.766,79.452L55.708,79.563L55.649,79.673L55.589,79.782L55.528,79.89L55.465,79.998L55.401,80.105L55.336,80.211L55.269,80.316L55.201,80.42L55.132,80.523L55.062,80.626L54.991,80.727L54.918,80.828L54.844,80.928L54.769,81.027L54.693,81.125L54.616,81.221L54.538,81.318L54.458,81.413L54.378,81.507L54.296,81.6L54.213,81.692L54.13,81.783L54.045,81.873L53.959,81.962L53.872,82.05L53.784,82.137L53.695,82.223L53.604,82.308L53.513,82.392L53.421,82.475L53.328,82.557L53.234,82.637L53.139,82.717L53.043,82.795L52.946,82.872L52.848,82.948L52.749,83.023L52.649,83.097L52.549,83.17L52.447,83.241L52.345,83.311L52.241,83.38L52.137,83.448L52.032,83.514L51.926,83.58L51.819,83.644L51.712,83.707L51.603,83.768L51.494,83.828L51.384,83.887L51.273,83.945L51.162,84.001L51.049,84.056L50.936,84.11L50.822,84.163L50.708,84.214L50.593,84.263L50.477,84.312L50.36,84.359L50.242,84.404L50.124,84.448L50.006,84.491L49.886,84.532L49.766,84.572L49.645,84.611L49.524,84.648L49.402,84.683L49.279,84.717L49.156,84.75L49.032,84.781L48.908,84.811L48.783,84.839L48.658,84.865L48.531,84.89L48.405,84.914L48.278,84.936L48.15,84.956L48.022,84.975L47.893,84.992L47.764,85.008L47.634,85.022L47.504,85.034L47.374,85.045L47.243,85.054L47.111,85.062L46.979,85.068L46.847,85.072L46.714,85.074L46.581,85.075L46.448,85.074L46.315,85.072L46.183,85.068L46.051,85.062L45.92,85.054L45.789,85.045L45.658,85.034L45.528,85.022L45.399,85.008L45.269,84.992L45.141,84.975L45.013,84.956L44.885,84.936L44.758,84.914L44.631,84.89L44.505,84.865L44.38,84.839L44.255,84.811L44.13,84.781L44.007,84.75L43.883,84.717L43.761,84.683L43.639,84.648L43.518,84.611L43.397,84.572L43.277,84.532L43.157,84.491L43.039,84.448L42.921,84.404L42.803,84.359L42.686,84.312L42.57,84.263L42.455,84.214L42.341,84.163L42.227,84.11L42.114,84.056L42.001,84.001L41.89,83.945L41.779,83.887L41.669,83.828L41.56,83.768L41.451,83.707L41.344,83.644L41.237,83.58L41.131,83.514L41.026,83.448L40.922,83.38L40.819,83.311L40.716,83.241L40.615,83.17L40.514,83.097L40.414,83.023L40.315,82.948L40.217,82.872L40.12,82.795L40.024,82.717L39.929,82.637L39.835,82.557L39.742,82.475L39.65,82.392L39.559,82.308L39.469,82.223L39.38,82.137L39.292,82.05L39.205,81.962L39.119,81.873L39.034,81.783L38.95,81.692L38.867,81.6L38.785,81.507L38.705,81.413L38.625,81.318L38.547,81.221L38.47,81.125L38.394,81.027L38.319,80.928L38.245,80.828L38.173,80.727L38.101,80.626L38.031,80.523L37.962,80.42L37.894,80.316L37.828,80.211L37.763,80.105L37.698,79.998L37.636,79.89L37.574,79.782L37.514,79.673L37.455,79.563L37.397,79.452L37.341,79.34L37.286,79.228L37.232,79.115L37.18,79.001L37.129,78.887L37.079,78.771L37.031,78.655L36.984,78.539L36.938,78.421L36.894,78.303L36.851,78.184L36.81,78.065L36.77,77.945L36.732,77.824L36.695,77.703L36.659,77.581L36.625,77.458L36.592,77.335L36.561,77.211L36.532,77.087L36.504,76.962L36.477,76.836L36.452,76.71L36.429,76.584L36.407,76.457L36.386,76.329L36.367,76.201L36.35,76.072L36.335,75.943L36.321,75.813L36.308,75.683L36.297,75.553L36.288,75.422L36.281,75.29L36.275,75.158L36.271,75.026L36.268,74.893L36.267,74.76L36.268,74.628L36.271,74.496L36.275,74.364L36.281,74.233L36.288,74.102L36.297,73.972L36.308,73.842L36.32,73.712L36.334,73.584L36.349,73.455L36.366,73.327L36.385,73.199L36.405,73.072L36.427,72.946L36.45,72.82L36.475,72.694L36.501,72.57L36.529,72.445L36.558,72.321L36.589,72.198L36.622,72.076L36.655,71.954L36.69,71.832L36.727,71.711L36.765,71.591L36.805,71.472L36.846,71.353L36.888,71.234L36.932,71.117L36.977,71L37.023,70.884L37.071,70.768L37.12,70.653L37.171,70.539L37.223,70.426L37.276,70.313L37.33,70.201L37.386,70.09L37.443,69.98L37.502,69.87L37.562,69.761L37.623,69.653L37.685,69.546L37.748,69.44L37.813,69.334L37.879,69.23L37.946,69.126L38.014,69.023L38.084,68.921L38.155,68.819L38.226,68.719L38.3,68.619L38.374,68.521L38.449,68.423L38.526,68.326L38.603,68.231L38.682,68.136L38.762,68.042L38.843,67.949L38.925,67.857L39.008,67.766L39.092,67.676L39.177,67.587L39.264,67.499L39.351,67.412L39.439,67.327L39.529,67.242L39.619,67.158L39.71,67.075L39.803,66.994L39.896,66.913L39.99,66.834L40.085,66.755L40.181,66.678L40.279,66.602L40.377,66.527L40.476,66.453L40.575,66.381L40.676,66.309L40.778,66.239L40.88,66.17L40.984,66.102L41.088,66.036L41.193,65.97L41.299,65.906L41.405,65.843L41.513,65.781L41.621,65.721L41.73,65.661L41.84,65.604L41.951,65.547L42.063,65.492L42.175,65.438L42.288,65.385L42.401,65.334L42.516,65.283L42.631,65.235L42.747,65.187L42.863,65.142L42.98,65.097L43.098,65.054L43.217,65.012L43.336,64.972L43.456,64.933L43.576,64.895L43.697,64.859L43.819,64.825L43.941,64.791L44.064,64.76L44.188,64.729L44.312,64.701L44.437,64.674L44.562,64.648L44.687,64.624L44.814,64.601L44.94,64.58L45.068,64.56L45.196,64.542L45.324,64.526L45.453,64.511L45.582,64.498L45.711,64.486L45.842,64.476L45.972,64.468L46.103,64.461L46.235,64.456L46.367,64.452L46.499,64.45L46.739,64.134L46.98,63.815L47.22,63.495L47.459,63.173L47.698,62.849L47.936,62.524L48.173,62.197L48.408,61.868L48.641,61.538L48.873,61.206L48.988,61.039L49.103,60.872L49.217,60.704L49.33,60.537L49.443,60.368L49.555,60.2L49.667,60.031L49.778,59.861L49.888,59.691L49.997,59.521L50.106,59.35L50.214,59.179L50.321,59.008L50.427,58.836L50.532,58.664L50.637,58.491L50.74,58.318L50.842,58.145L50.944,57.971L51.044,57.797L51.144,57.623L51.242,57.448L51.34,57.273L51.436,57.097L51.531,56.922L51.625,56.745L51.717,56.569L51.809,56.392L51.899,56.214L51.988,56.037L52.075,55.859L52.162,55.68L52.246,55.502L52.33,55.323L52.412,55.143L52.493,54.963L52.572,54.783L52.65,54.603L52.726,54.422L52.801,54.241L52.874,54.06L52.945,53.878L53.015,53.696L53.083,53.513L53.161,53.302L53.237,53.089L53.313,52.877L53.388,52.664L53.462,52.451L53.535,52.237L53.608,52.023L53.679,51.809L53.749,51.594L53.819,51.379L53.888,51.164L53.956,50.948L54.022,50.732L54.088,50.516L54.153,50.3L54.217,50.083L54.28,49.866L54.342,49.648L54.402,49.43L54.462,49.212L54.521,48.994L54.578,48.776L54.635,48.557L54.69,48.338L54.745,48.118L54.798,47.899L54.85,47.679L54.901,47.459L54.95,47.239L54.999,47.019L55.046,46.798L55.092,46.577L55.137,46.356L55.181,46.135L55.223,45.913L55.264,45.692L55.304,45.47L55.343,45.248L55.38,45.026L55.416,44.804L55.451,44.581L55.484,44.359L55.516,44.136L55.546,43.913L55.576,43.69L55.603,43.467L55.63,43.244L55.655,43.021L55.678,42.797L55.7,42.574L55.721,42.35L55.74,42.127L55.758,41.903L55.774,41.679L55.788,41.455L55.801,41.231L55.813,41.007L55.823,40.783L55.831,40.559L55.838,40.335L55.843,40.111L55.847,39.887L55.849,39.663L55.849,39.438L55.849,38.997L55.849,38.567L55.848,38.148L55.846,37.738L55.843,37.335L55.84,37.135L55.836,36.937L55.832,36.74L55.827,36.543L55.82,36.347L55.813,36.152L55.804,35.956L55.793,35.76L55.782,35.564L55.768,35.368L55.753,35.17L55.737,34.972L55.718,34.773L55.698,34.572L55.675,34.37L55.65,34.166L55.623,33.96L55.594,33.752L55.562,33.541L55.528,33.328L55.491,33.112L55.451,32.893L55.412,32.671L55.374,32.446L55.336,32.219L55.298,31.99L55.224,31.525L55.149,31.055L55.073,30.58L54.994,30.101L54.954,29.861L54.913,29.621L54.871,29.381L54.828,29.141L54.783,28.901L54.738,28.662L54.69,28.423L54.642,28.185L54.591,27.949L54.539,27.713L54.484,27.479L54.428,27.247L54.399,27.131L54.369,27.016L54.339,26.902L54.309,26.788L54.277,26.674L54.245,26.561L54.213,26.449L54.179,26.337L54.145,26.226L54.111,26.116L54.076,26.006L54.04,25.897L54.003,25.789L53.965,25.682L53.927,25.575L53.888,25.469L53.741,25.071L53.596,24.68L53.45,24.293L53.305,23.912L53.161,23.537L53.015,23.166L52.869,22.799L52.796,22.618L52.722,22.437L52.648,22.258L52.574,22.079L52.499,21.902L52.424,21.725L52.349,21.549L52.272,21.374L52.196,21.2L52.118,21.027L52.04,20.854L51.961,20.683L51.882,20.511L51.802,20.341L51.72,20.171L51.639,20.002L51.556,19.833L51.472,19.665L51.387,19.497L51.301,19.33L51.215,19.163L51.127,18.997L51.038,18.831L50.947,18.665L50.856,18.5L50.763,18.335L50.669,18.17L50.574,18.005L50.477,17.841L50.379,17.676L50.279,17.512L50.178,17.348L50.075,17.184L49.971,17.019L49.865,16.855L49.757,16.691L49.648,16.527L49.537,16.362L49.424,16.198L49.309,16.033L49.192,15.868L49.074,15.703L48.954,15.537L48.831,15.371L48.707,15.205L48.58,15.039L48.451,14.872L48.321,14.704L48.187,14.536L48.052,14.368L48.052,22.297L47.571,25.469L43.661,7.656L57.314,12.481ZM46.487,67.455L46.393,67.457L46.299,67.46L46.206,67.464L46.113,67.469L46.02,67.476L45.927,67.483L45.835,67.492L45.743,67.502L45.652,67.513L45.561,67.525L45.47,67.539L45.379,67.553L45.289,67.569L45.2,67.585L45.11,67.603L45.022,67.622L44.933,67.642L44.845,67.663L44.757,67.685L44.67,67.708L44.583,67.732L44.497,67.757L44.411,67.783L44.325,67.811L44.24,67.839L44.155,67.868L44.071,67.898L43.988,67.93L43.904,67.962L43.822,67.995L43.74,68.029L43.658,68.065L43.577,68.101L43.496,68.138L43.416,68.176L43.336,68.215L43.257,68.255L43.179,68.296L43.101,68.338L43.024,68.38L42.947,68.424L42.871,68.468L42.795,68.514L42.72,68.56L42.645,68.607L42.572,68.655L42.498,68.704L42.426,68.754L42.354,68.804L42.282,68.856L42.212,68.908L42.142,68.961L42.072,69.015L42.004,69.069L41.936,69.125L41.868,69.181L41.802,69.238L41.736,69.296L41.67,69.355L41.606,69.414L41.542,69.474L41.479,69.535L41.416,69.597L41.355,69.659L41.294,69.722L41.234,69.786L41.174,69.851L41.116,69.916L41.058,69.982L41.001,70.049L40.944,70.116L40.889,70.184L40.834,70.253L40.78,70.322L40.727,70.392L40.675,70.463L40.623,70.534L40.573,70.606L40.523,70.679L40.474,70.752L40.426,70.826L40.379,70.9L40.333,70.975L40.287,71.051L40.243,71.127L40.199,71.204L40.157,71.281L40.115,71.359L40.074,71.438L40.034,71.517L39.995,71.596L39.957,71.676L39.92,71.757L39.884,71.838L39.848,71.92L39.814,72.002L39.781,72.085L39.749,72.168L39.717,72.252L39.687,72.336L39.658,72.42L39.63,72.505L39.602,72.591L39.576,72.677L39.551,72.763L39.527,72.85L39.504,72.937L39.482,73.025L39.461,73.113L39.441,73.202L39.422,73.291L39.404,73.38L39.388,73.47L39.372,73.56L39.358,73.65L39.344,73.741L39.332,73.832L39.321,73.923L39.311,74.015L39.302,74.107L39.295,74.2L39.288,74.293L39.283,74.386L39.279,74.479L39.276,74.573L39.274,74.667L39.273,74.761L39.274,74.856L39.276,74.95L39.279,75.043L39.283,75.137L39.288,75.23L39.295,75.323L39.302,75.415L39.311,75.507L39.321,75.599L39.332,75.691L39.344,75.782L39.358,75.873L39.372,75.963L39.388,76.053L39.404,76.143L39.422,76.232L39.441,76.321L39.461,76.41L39.482,76.498L39.504,76.585L39.527,76.673L39.551,76.759L39.576,76.846L39.602,76.932L39.63,77.017L39.658,77.102L39.687,77.187L39.718,77.271L39.749,77.355L39.781,77.438L39.814,77.521L39.849,77.603L39.884,77.685L39.92,77.766L39.957,77.846L39.995,77.927L40.034,78.006L40.074,78.085L40.115,78.164L40.157,78.242L40.2,78.319L40.243,78.396L40.288,78.472L40.333,78.548L40.379,78.623L40.427,78.697L40.475,78.771L40.523,78.844L40.573,78.917L40.624,78.989L40.675,79.06L40.727,79.131L40.781,79.201L40.834,79.27L40.889,79.339L40.945,79.407L41.001,79.474L41.058,79.541L41.116,79.607L41.175,79.672L41.234,79.737L41.294,79.801L41.355,79.864L41.417,79.926L41.479,79.988L41.542,80.049L41.606,80.109L41.671,80.168L41.736,80.227L41.802,80.285L41.869,80.342L41.936,80.398L42.004,80.454L42.073,80.508L42.142,80.562L42.212,80.615L42.283,80.668L42.354,80.719L42.426,80.77L42.499,80.819L42.572,80.868L42.646,80.916L42.72,80.963L42.795,81.01L42.871,81.055L42.947,81.1L43.024,81.143L43.101,81.186L43.179,81.228L43.258,81.268L43.337,81.308L43.416,81.347L43.497,81.386L43.577,81.423L43.658,81.459L43.74,81.494L43.822,81.528L43.905,81.562L43.988,81.594L44.072,81.625L44.156,81.655L44.24,81.685L44.326,81.713L44.411,81.74L44.497,81.766L44.583,81.792L44.67,81.816L44.758,81.839L44.845,81.861L44.933,81.882L45.022,81.902L45.111,81.921L45.2,81.938L45.29,81.955L45.38,81.97L45.47,81.985L45.561,81.998L45.652,82.01L45.744,82.022L45.835,82.032L45.927,82.04L46.02,82.048L46.113,82.054L46.206,82.06L46.299,82.064L46.393,82.067L46.487,82.069L46.581,82.069L46.676,82.069L46.77,82.067L46.863,82.064L46.957,82.06L47.05,82.054L47.143,82.048L47.235,82.04L47.327,82.031L47.419,82.022L47.511,82.01L47.602,81.998L47.693,81.985L47.783,81.97L47.873,81.955L47.963,81.938L48.052,81.921L48.141,81.902L48.23,81.882L48.318,81.861L48.405,81.839L48.493,81.816L48.58,81.791L48.666,81.766L48.752,81.74L48.838,81.713L48.923,81.685L49.007,81.655L49.091,81.625L49.175,81.594L49.258,81.561L49.341,81.528L49.423,81.494L49.505,81.459L49.586,81.422L49.667,81.385L49.747,81.347L49.826,81.308L49.905,81.268L49.984,81.227L50.062,81.186L50.139,81.143L50.216,81.099L50.292,81.055L50.368,81.009L50.443,80.963L50.517,80.916L50.591,80.868L50.664,80.819L50.737,80.769L50.809,80.719L50.88,80.667L50.951,80.615L51.021,80.562L51.09,80.508L51.159,80.453L51.227,80.398L51.294,80.342L51.361,80.285L51.427,80.227L51.492,80.168L51.557,80.109L51.62,80.048L51.684,79.987L51.746,79.926L51.808,79.863L51.868,79.8L51.929,79.736L51.988,79.672L52.047,79.607L52.105,79.541L52.162,79.474L52.218,79.407L52.273,79.338L52.328,79.27L52.382,79.2L52.435,79.13L52.487,79.06L52.539,78.988L52.589,78.916L52.639,78.844L52.688,78.771L52.736,78.697L52.783,78.622L52.829,78.547L52.874,78.472L52.919,78.395L52.962,78.319L53.005,78.241L53.047,78.163L53.088,78.085L53.128,78.006L53.167,77.926L53.205,77.846L53.242,77.765L53.278,77.684L53.313,77.602L53.347,77.52L53.381,77.438L53.413,77.354L53.444,77.271L53.474,77.187L53.504,77.102L53.532,77.017L53.559,76.931L53.585,76.846L53.611,76.759L53.635,76.672L53.658,76.585L53.68,76.497L53.701,76.409L53.721,76.321L53.74,76.232L53.757,76.143L53.774,76.053L53.789,75.963L53.804,75.872L53.817,75.782L53.829,75.69L53.84,75.599L53.85,75.507L53.859,75.415L53.867,75.323L53.873,75.23L53.879,75.137L53.883,75.043L53.886,74.95L53.888,74.856L53.888,74.761L53.888,74.667L53.886,74.573L53.883,74.479L53.879,74.386L53.873,74.293L53.867,74.2L53.859,74.107L53.85,74.015L53.84,73.923L53.829,73.832L53.817,73.741L53.804,73.65L53.789,73.559L53.774,73.469L53.757,73.38L53.74,73.29L53.721,73.201L53.701,73.113L53.68,73.025L53.658,72.937L53.635,72.85L53.611,72.763L53.585,72.676L53.559,72.59L53.532,72.505L53.504,72.42L53.474,72.335L53.444,72.251L53.413,72.167L53.381,72.084L53.347,72.002L53.313,71.919L53.278,71.838L53.242,71.757L53.205,71.676L53.167,71.596L53.128,71.516L53.088,71.437L53.047,71.359L53.005,71.281L52.962,71.203L52.919,71.127L52.874,71.05L52.829,70.975L52.783,70.9L52.736,70.825L52.688,70.752L52.639,70.678L52.589,70.606L52.539,70.534L52.487,70.462L52.435,70.392L52.382,70.322L52.328,70.252L52.273,70.184L52.218,70.116L52.162,70.048L52.105,69.982L52.047,69.916L51.988,69.85L51.929,69.786L51.868,69.722L51.808,69.659L51.746,69.597L51.684,69.535L51.62,69.474L51.557,69.414L51.492,69.354L51.427,69.296L51.361,69.238L51.294,69.181L51.227,69.125L51.159,69.069L51.09,69.015L51.021,68.961L50.951,68.908L50.88,68.855L50.809,68.804L50.737,68.753L50.664,68.704L50.591,68.655L50.517,68.607L50.443,68.56L50.368,68.513L50.292,68.468L50.216,68.424L50.139,68.38L50.062,68.337L49.984,68.296L49.905,68.255L49.826,68.215L49.747,68.176L49.667,68.138L49.586,68.101L49.505,68.064L49.423,68.029L49.341,67.995L49.258,67.962L49.175,67.93L49.091,67.898L49.007,67.868L48.923,67.839L48.838,67.811L48.752,67.783L48.666,67.757L48.58,67.732L48.493,67.708L48.405,67.685L48.318,67.663L48.23,67.642L48.141,67.622L48.052,67.603L47.963,67.585L47.873,67.569L47.783,67.553L47.693,67.539L47.602,67.525L47.511,67.513L47.419,67.502L47.327,67.492L47.235,67.483L47.143,67.476L47.05,67.469L46.957,67.464L46.863,67.46L46.77,67.457L46.676,67.455L46.581,67.454L46.487,67.455ZM27.15,50.332L27.186,50.333L27.222,50.335L27.258,50.338L27.294,50.342L27.33,50.347L27.366,50.352L27.401,50.359L27.437,50.366L27.472,50.374L27.507,50.383L27.542,50.393L27.577,50.404L27.611,50.415L27.646,50.428L27.68,50.441L27.714,50.455L27.747,50.47L27.78,50.486L27.813,50.503L27.846,50.521L27.878,50.539L27.91,50.559L27.941,50.579L27.972,50.6L28.003,50.622L28.033,50.645L28.063,50.668L28.092,50.693L28.121,50.718L28.149,50.744L28.177,50.771L28.204,50.799L28.23,50.828L28.256,50.856L28.28,50.886L28.304,50.915L28.327,50.946L28.349,50.976L28.37,51.007L28.39,51.039L28.41,51.071L28.428,51.103L28.446,51.136L28.463,51.169L28.479,51.202L28.494,51.235L28.508,51.269L28.521,51.303L28.534,51.337L28.545,51.372L28.556,51.407L28.566,51.442L28.575,51.477L28.583,51.512L28.591,51.548L28.597,51.583L28.603,51.619L28.607,51.655L28.611,51.691L28.614,51.727L28.616,51.763L28.618,51.799L28.618,51.835L28.618,51.871L28.616,51.907L28.614,51.943L28.611,51.979L28.607,52.015L28.603,52.051L28.597,52.086L28.591,52.122L28.583,52.157L28.575,52.193L28.566,52.228L28.556,52.263L28.545,52.298L28.534,52.332L28.521,52.367L28.508,52.401L28.494,52.434L28.479,52.468L28.463,52.501L28.446,52.534L28.428,52.567L28.41,52.599L28.39,52.631L28.37,52.662L28.349,52.693L28.327,52.724L28.304,52.754L28.28,52.784L28.256,52.813L28.23,52.842L28.204,52.871L28.177,52.898L20.43,60.646L28.177,68.393L28.204,68.421L28.23,68.45L28.256,68.478L28.28,68.508L28.304,68.538L28.327,68.568L28.349,68.598L28.37,68.63L28.39,68.661L28.41,68.693L28.428,68.725L28.446,68.758L28.463,68.791L28.479,68.824L28.494,68.857L28.508,68.891L28.521,68.925L28.534,68.96L28.545,68.994L28.556,69.029L28.566,69.064L28.575,69.099L28.583,69.135L28.591,69.17L28.597,69.206L28.603,69.241L28.607,69.277L28.611,69.313L28.614,69.349L28.616,69.385L28.618,69.421L28.618,69.457L28.618,69.493L28.616,69.529L28.614,69.565L28.611,69.601L28.607,69.637L28.603,69.673L28.597,69.709L28.591,69.744L28.583,69.78L28.575,69.815L28.566,69.85L28.556,69.885L28.545,69.92L28.534,69.955L28.521,69.989L28.508,70.023L28.494,70.057L28.479,70.09L28.463,70.124L28.446,70.156L28.428,70.189L28.41,70.221L28.39,70.253L28.37,70.285L28.349,70.316L28.327,70.346L28.304,70.376L28.28,70.406L28.256,70.435L28.23,70.464L28.204,70.493L28.177,70.52L28.149,70.548L28.121,70.574L28.093,70.599L28.063,70.624L28.034,70.647L28.004,70.67L27.973,70.692L27.942,70.713L27.911,70.734L27.879,70.753L27.847,70.771L27.814,70.789L27.781,70.806L27.748,70.822L27.715,70.837L27.681,70.851L27.647,70.864L27.612,70.877L27.578,70.889L27.543,70.899L27.508,70.909L27.473,70.918L27.437,70.926L27.402,70.934L27.366,70.94L27.33,70.946L27.295,70.951L27.259,70.954L27.223,70.957L27.186,70.96L27.15,70.961L27.114,70.961L27.078,70.961L27.042,70.96L27.006,70.957L26.97,70.954L26.934,70.951L26.899,70.946L26.863,70.94L26.827,70.934L26.792,70.926L26.757,70.918L26.722,70.909L26.687,70.899L26.652,70.889L26.618,70.877L26.583,70.864L26.549,70.851L26.516,70.837L26.482,70.822L26.449,70.806L26.416,70.789L26.384,70.771L26.351,70.753L26.319,70.734L26.288,70.713L26.257,70.692L26.226,70.67L26.196,70.647L26.166,70.624L26.137,70.599L26.108,70.574L26.08,70.548L26.052,70.52L18.304,62.772L10.557,70.52L10.529,70.548L10.501,70.574L10.472,70.599L10.443,70.624L10.413,70.647L10.383,70.67L10.353,70.692L10.321,70.713L10.29,70.734L10.258,70.753L10.226,70.771L10.193,70.789L10.161,70.806L10.127,70.822L10.094,70.837L10.06,70.851L10.026,70.864L9.991,70.877L9.957,70.889L9.922,70.899L9.887,70.909L9.852,70.918L9.816,70.926L9.781,70.934L9.745,70.94L9.709,70.946L9.674,70.951L9.638,70.954L9.602,70.957L9.565,70.96L9.529,70.961L9.493,70.961L9.457,70.961L9.421,70.96L9.385,70.957L9.35,70.954L9.314,70.951L9.278,70.946L9.242,70.94L9.207,70.934L9.172,70.926L9.136,70.918L9.101,70.909L9.066,70.899L9.032,70.889L8.997,70.877L8.963,70.864L8.929,70.851L8.895,70.837L8.861,70.822L8.828,70.806L8.795,70.789L8.763,70.771L8.731,70.753L8.699,70.734L8.667,70.713L8.636,70.692L8.605,70.67L8.575,70.647L8.545,70.624L8.516,70.599L8.487,70.574L8.459,70.548L8.431,70.52L8.404,70.493L8.378,70.464L8.352,70.435L8.328,70.406L8.304,70.376L8.281,70.346L8.259,70.316L8.238,70.285L8.218,70.253L8.199,70.221L8.18,70.189L8.162,70.156L8.146,70.124L8.13,70.09L8.115,70.057L8.1,70.023L8.087,69.989L8.074,69.955L8.063,69.92L8.052,69.885L8.042,69.85L8.033,69.815L8.025,69.78L8.018,69.744L8.011,69.709L8.005,69.673L8.001,69.637L7.997,69.601L7.994,69.565L7.992,69.529L7.99,69.493L7.99,69.457L7.99,69.421L7.991,69.385L7.994,69.349L7.997,69.313L8,69.277L8.005,69.241L8.011,69.206L8.017,69.17L8.024,69.135L8.033,69.099L8.042,69.064L8.051,69.029L8.062,68.994L8.074,68.96L8.086,68.925L8.099,68.891L8.114,68.857L8.129,68.824L8.145,68.791L8.161,68.758L8.179,68.725L8.197,68.693L8.217,68.661L8.237,68.63L8.258,68.598L8.28,68.568L8.302,68.538L8.326,68.508L8.351,68.478L8.376,68.45L8.402,68.421L8.429,68.393L16.176,60.646L8.429,52.898L8.402,52.871L8.376,52.842L8.35,52.813L8.326,52.784L8.302,52.754L8.279,52.724L8.257,52.693L8.236,52.662L8.216,52.631L8.197,52.599L8.178,52.567L8.16,52.534L8.144,52.501L8.128,52.468L8.113,52.434L8.098,52.401L8.085,52.367L8.072,52.332L8.061,52.298L8.05,52.263L8.04,52.228L8.031,52.193L8.023,52.157L8.016,52.122L8.009,52.086L8.004,52.051L7.999,52.015L7.995,51.979L7.992,51.943L7.99,51.907L7.988,51.871L7.988,51.835L7.988,51.799L7.99,51.763L7.992,51.727L7.995,51.691L7.999,51.655L8.004,51.619L8.009,51.583L8.016,51.548L8.023,51.512L8.031,51.477L8.04,51.442L8.05,51.407L8.061,51.372L8.072,51.337L8.085,51.303L8.098,51.269L8.113,51.235L8.128,51.202L8.144,51.169L8.16,51.136L8.178,51.103L8.197,51.071L8.216,51.039L8.236,51.007L8.257,50.976L8.279,50.946L8.302,50.915L8.326,50.886L8.35,50.856L8.376,50.828L8.402,50.799L8.429,50.771L8.457,50.744L8.485,50.718L8.514,50.693L8.543,50.668L8.573,50.645L8.603,50.622L8.634,50.6L8.665,50.579L8.696,50.559L8.728,50.539L8.76,50.521L8.793,50.503L8.826,50.486L8.859,50.47L8.893,50.455L8.926,50.441L8.96,50.428L8.995,50.415L9.029,50.404L9.064,50.393L9.099,50.383L9.134,50.374L9.17,50.366L9.205,50.359L9.241,50.352L9.276,50.347L9.312,50.342L9.348,50.338L9.384,50.335L9.42,50.333L9.456,50.332L9.492,50.331L9.528,50.332L9.564,50.333L9.6,50.335L9.636,50.338L9.672,50.342L9.708,50.347L9.744,50.352L9.779,50.359L9.815,50.366L9.85,50.374L9.885,50.383L9.92,50.393L9.955,50.404L9.99,50.415L10.024,50.428L10.058,50.441L10.092,50.455L10.126,50.47L10.159,50.486L10.192,50.503L10.224,50.521L10.257,50.539L10.288,50.559L10.32,50.579L10.351,50.6L10.382,50.622L10.412,50.645L10.442,50.668L10.471,50.693L10.5,50.718L10.528,50.744L10.556,50.771L18.303,58.519L26.051,50.771L26.079,50.744L26.107,50.718L26.136,50.693L26.165,50.668L26.195,50.645L26.225,50.622L26.256,50.6L26.287,50.579L26.318,50.559L26.35,50.539L26.382,50.521L26.415,50.503L26.448,50.486L26.481,50.47L26.515,50.455L26.548,50.441L26.582,50.428L26.617,50.415L26.651,50.404L26.686,50.393L26.721,50.383L26.756,50.374L26.791,50.366L26.827,50.359L26.863,50.352L26.898,50.347L26.934,50.342L26.97,50.338L27.006,50.335L27.042,50.333L27.078,50.332L27.114,50.331L27.15,50.332ZM46.499,64.45L46.448,64.519L46.401,64.527L46.354,64.536L46.31,64.546L46.268,64.556L46.23,64.566L46.196,64.577L46.181,64.582L46.168,64.588L46.156,64.594L46.146,64.6L46.138,64.606L46.132,64.612L46.127,64.618L46.125,64.625L46.125,64.631L46.127,64.638L46.132,64.645L46.14,64.652L46.15,64.659L46.163,64.666L46.179,64.673L46.198,64.68L46.22,64.688L46.245,64.695L46.274,64.703L46.306,64.71L46.448,64.519L46.546,64.502L46.637,64.487L46.712,64.475L46.741,64.47L46.763,64.465L46.778,64.46L46.782,64.458L46.784,64.457L46.783,64.455L46.78,64.454L46.766,64.451L46.74,64.449L46.701,64.447L46.648,64.447L46.581,64.446L46.499,64.45ZM85.905,33.512L85.941,33.513L85.977,33.515L86.013,33.518L86.049,33.522L86.085,33.527L86.121,33.532L86.156,33.539L86.192,33.546L86.227,33.554L86.262,33.563L86.297,33.573L86.332,33.584L86.366,33.596L86.401,33.608L86.435,33.621L86.469,33.636L86.502,33.651L86.535,33.667L86.568,33.683L86.601,33.701L86.633,33.72L86.665,33.739L86.696,33.759L86.727,33.78L86.758,33.802L86.788,33.825L86.818,33.848L86.847,33.873L86.876,33.898L86.904,33.925L86.932,33.952L86.959,33.98L86.985,34.008L87.011,34.037L87.035,34.066L87.059,34.096L87.082,34.126L87.104,34.157L87.125,34.188L87.145,34.219L87.165,34.251L87.183,34.283L87.201,34.316L87.218,34.349L87.234,34.382L87.249,34.416L87.263,34.449L87.276,34.483L87.289,34.518L87.3,34.552L87.311,34.587L87.321,34.622L87.33,34.657L87.338,34.693L87.346,34.728L87.352,34.764L87.358,34.799L87.362,34.835L87.366,34.871L87.369,34.907L87.371,34.943L87.373,34.979L87.373,35.015L87.373,35.051L87.371,35.087L87.369,35.123L87.366,35.159L87.362,35.195L87.358,35.231L87.352,35.267L87.346,35.302L87.338,35.338L87.33,35.373L87.321,35.408L87.311,35.443L87.3,35.478L87.289,35.513L87.276,35.547L87.263,35.581L87.249,35.615L87.234,35.648L87.218,35.682L87.201,35.714L87.183,35.747L87.165,35.779L87.145,35.811L87.125,35.843L87.104,35.874L87.082,35.904L87.059,35.935L87.035,35.964L87.011,35.994L86.985,36.023L86.959,36.051L86.932,36.079L79.185,43.827L86.932,51.574L86.959,51.602L86.985,51.63L87.011,51.659L87.035,51.688L87.059,51.718L87.082,51.748L87.104,51.779L87.125,51.81L87.145,51.841L87.165,51.873L87.183,51.905L87.201,51.938L87.218,51.971L87.234,52.004L87.249,52.038L87.263,52.072L87.276,52.106L87.289,52.14L87.3,52.175L87.311,52.209L87.321,52.244L87.33,52.279L87.338,52.315L87.346,52.35L87.352,52.386L87.358,52.422L87.362,52.457L87.366,52.493L87.369,52.529L87.371,52.565L87.373,52.601L87.373,52.638L87.373,52.674L87.371,52.71L87.369,52.746L87.366,52.782L87.362,52.818L87.358,52.853L87.352,52.889L87.346,52.925L87.338,52.96L87.33,52.996L87.321,53.031L87.311,53.066L87.3,53.1L87.289,53.135L87.276,53.169L87.263,53.203L87.249,53.237L87.234,53.271L87.218,53.304L87.201,53.337L87.183,53.369L87.165,53.402L87.145,53.433L87.125,53.465L87.104,53.496L87.082,53.527L87.059,53.557L87.035,53.587L87.011,53.616L86.985,53.645L86.959,53.673L86.932,53.701L86.904,53.728L86.876,53.754L86.848,53.779L86.818,53.804L86.789,53.828L86.759,53.851L86.728,53.873L86.697,53.894L86.666,53.914L86.634,53.933L86.602,53.952L86.569,53.969L86.536,53.986L86.503,54.002L86.47,54.017L86.436,54.031L86.402,54.045L86.367,54.057L86.333,54.069L86.298,54.08L86.263,54.09L86.228,54.099L86.192,54.107L86.157,54.114L86.121,54.121L86.085,54.126L86.05,54.131L86.014,54.135L85.978,54.138L85.941,54.14L85.905,54.141L85.869,54.142L85.833,54.141L85.797,54.14L85.761,54.138L85.725,54.135L85.689,54.131L85.654,54.126L85.618,54.121L85.582,54.114L85.547,54.107L85.512,54.099L85.477,54.09L85.442,54.08L85.407,54.069L85.373,54.057L85.338,54.045L85.304,54.031L85.271,54.017L85.237,54.002L85.204,53.986L85.171,53.969L85.139,53.952L85.106,53.933L85.074,53.914L85.043,53.894L85.012,53.873L84.981,53.851L84.951,53.828L84.921,53.804L84.892,53.779L84.863,53.754L84.835,53.728L84.807,53.701L77.059,45.953L69.312,53.701L69.284,53.728L69.256,53.754L69.227,53.779L69.198,53.804L69.168,53.828L69.138,53.851L69.108,53.873L69.076,53.894L69.045,53.914L69.013,53.933L68.981,53.952L68.948,53.969L68.916,53.986L68.882,54.002L68.849,54.017L68.815,54.031L68.781,54.045L68.746,54.057L68.712,54.069L68.677,54.08L68.642,54.09L68.607,54.099L68.571,54.107L68.536,54.114L68.5,54.121L68.464,54.126L68.429,54.131L68.393,54.135L68.357,54.138L68.32,54.14L68.284,54.141L68.248,54.142L68.212,54.141L68.176,54.14L68.14,54.138L68.105,54.135L68.069,54.131L68.033,54.126L67.997,54.121L67.962,54.114L67.927,54.107L67.891,54.099L67.856,54.09L67.821,54.08L67.787,54.069L67.752,54.057L67.718,54.045L67.684,54.031L67.65,54.017L67.616,54.002L67.583,53.986L67.55,53.969L67.518,53.952L67.486,53.933L67.454,53.914L67.422,53.894L67.391,53.873L67.36,53.851L67.33,53.828L67.3,53.804L67.271,53.779L67.242,53.754L67.214,53.728L67.186,53.701L67.159,53.673L67.133,53.645L67.107,53.616L67.083,53.587L67.059,53.557L67.036,53.527L67.014,53.496L66.993,53.465L66.973,53.433L66.953,53.402L66.935,53.369L66.917,53.337L66.901,53.304L66.885,53.271L66.87,53.237L66.855,53.203L66.842,53.169L66.829,53.135L66.818,53.1L66.807,53.066L66.797,53.031L66.788,52.996L66.78,52.96L66.773,52.925L66.766,52.889L66.76,52.853L66.756,52.818L66.752,52.782L66.749,52.746L66.747,52.71L66.745,52.674L66.745,52.638L66.745,52.601L66.746,52.565L66.749,52.529L66.752,52.493L66.755,52.457L66.76,52.422L66.766,52.386L66.772,52.35L66.779,52.315L66.788,52.279L66.797,52.244L66.806,52.209L66.817,52.175L66.829,52.14L66.841,52.106L66.854,52.072L66.869,52.038L66.884,52.004L66.9,51.971L66.916,51.938L66.934,51.905L66.952,51.873L66.972,51.841L66.992,51.81L67.013,51.779L67.035,51.748L67.057,51.718L67.081,51.688L67.106,51.659L67.131,51.63L67.157,51.602L67.184,51.574L74.931,43.827L67.184,36.079L67.157,36.051L67.131,36.023L67.105,35.994L67.081,35.964L67.057,35.935L67.034,35.904L67.012,35.874L66.991,35.843L66.971,35.811L66.952,35.779L66.933,35.747L66.915,35.714L66.899,35.682L66.883,35.648L66.868,35.615L66.853,35.581L66.84,35.547L66.827,35.513L66.816,35.478L66.805,35.443L66.795,35.408L66.786,35.373L66.778,35.338L66.771,35.302L66.764,35.267L66.759,35.231L66.754,35.195L66.75,35.159L66.747,35.123L66.745,35.087L66.743,35.051L66.743,35.015L66.743,34.979L66.745,34.943L66.747,34.907L66.75,34.871L66.754,34.835L66.759,34.799L66.764,34.764L66.771,34.728L66.778,34.693L66.786,34.657L66.795,34.622L66.805,34.587L66.816,34.552L66.827,34.518L66.84,34.483L66.853,34.449L66.868,34.416L66.883,34.382L66.899,34.349L66.915,34.316L66.933,34.283L66.952,34.251L66.971,34.219L66.991,34.188L67.012,34.157L67.034,34.126L67.057,34.096L67.081,34.066L67.105,34.037L67.131,34.008L67.157,33.98L67.184,33.952L67.212,33.925L67.24,33.898L67.269,33.873L67.298,33.848L67.328,33.825L67.358,33.802L67.389,33.78L67.42,33.759L67.451,33.739L67.483,33.72L67.515,33.701L67.548,33.683L67.581,33.667L67.614,33.651L67.648,33.636L67.681,33.621L67.715,33.608L67.75,33.596L67.784,33.584L67.819,33.573L67.854,33.563L67.889,33.554L67.925,33.546L67.96,33.539L67.996,33.532L68.031,33.527L68.067,33.522L68.103,33.518L68.139,33.515L68.175,33.513L68.211,33.512L68.247,33.511L68.283,33.512L68.319,33.513L68.355,33.515L68.391,33.518L68.427,33.522L68.463,33.527L68.499,33.532L68.534,33.539L68.57,33.546L68.605,33.554L68.64,33.563L68.675,33.573L68.71,33.584L68.745,33.596L68.779,33.608L68.813,33.621L68.847,33.636L68.881,33.651L68.914,33.667L68.947,33.683L68.979,33.701L69.012,33.72L69.043,33.739L69.075,33.759L69.106,33.78L69.137,33.802L69.167,33.825L69.197,33.848L69.226,33.873L69.255,33.898L69.283,33.925L69.311,33.952L77.058,41.7L84.806,33.952L84.834,33.925L84.862,33.898L84.891,33.873L84.92,33.848L84.95,33.825L84.98,33.802L85.011,33.78L85.042,33.759L85.073,33.739L85.105,33.72L85.137,33.701L85.17,33.683L85.203,33.667L85.236,33.651L85.27,33.636L85.303,33.621L85.337,33.608L85.372,33.596L85.406,33.584L85.441,33.573L85.476,33.563L85.511,33.554L85.546,33.546L85.582,33.539L85.618,33.532L85.653,33.527L85.689,33.522L85.725,33.518L85.761,33.515L85.797,33.513L85.833,33.512L85.869,33.511L85.905,33.512ZM40.152,22.992L40.188,22.993L40.224,22.996L40.26,22.999L40.296,23.002L40.332,23.007L40.368,23.013L40.403,23.019L40.439,23.027L40.474,23.035L40.509,23.044L40.544,23.054L40.579,23.064L40.613,23.076L40.648,23.088L40.682,23.102L40.716,23.116L40.749,23.131L40.782,23.147L40.815,23.164L40.848,23.181L40.88,23.2L40.912,23.219L40.943,23.239L40.974,23.26L41.005,23.282L41.035,23.305L41.065,23.329L41.094,23.353L41.123,23.379L41.151,23.405L41.179,23.432L41.206,23.46L41.232,23.488L41.258,23.517L41.282,23.546L41.306,23.576L41.329,23.606L41.351,23.637L41.372,23.668L41.392,23.7L41.412,23.731L41.43,23.764L41.448,23.796L41.465,23.829L41.48,23.862L41.496,23.896L41.51,23.93L41.523,23.964L41.536,23.998L41.547,24.033L41.558,24.067L41.568,24.102L41.577,24.138L41.585,24.173L41.592,24.208L41.599,24.244L41.604,24.28L41.609,24.315L41.613,24.351L41.616,24.387L41.618,24.423L41.62,24.459L41.62,24.495L41.62,24.532L41.618,24.568L41.616,24.604L41.613,24.64L41.609,24.676L41.604,24.711L41.599,24.747L41.592,24.783L41.585,24.818L41.577,24.853L41.568,24.889L41.558,24.924L41.547,24.958L41.536,24.993L41.523,25.027L41.51,25.061L41.496,25.095L41.48,25.129L41.465,25.162L41.448,25.195L41.43,25.227L41.412,25.26L41.392,25.291L41.372,25.323L41.351,25.354L41.329,25.385L41.306,25.415L41.282,25.445L41.258,25.474L41.232,25.503L41.206,25.531L41.179,25.559L33.432,33.307L41.179,41.054L41.206,41.082L41.232,41.11L41.258,41.139L41.282,41.168L41.306,41.198L41.329,41.228L41.351,41.259L41.372,41.29L41.392,41.322L41.412,41.354L41.43,41.386L41.448,41.418L41.465,41.451L41.48,41.484L41.496,41.518L41.51,41.552L41.523,41.586L41.536,41.62L41.547,41.655L41.558,41.69L41.568,41.725L41.577,41.76L41.585,41.795L41.592,41.831L41.599,41.866L41.604,41.902L41.609,41.938L41.613,41.974L41.616,42.01L41.618,42.046L41.62,42.082L41.62,42.118L41.62,42.154L41.618,42.19L41.616,42.226L41.613,42.262L41.609,42.298L41.604,42.334L41.599,42.369L41.592,42.405L41.585,42.441L41.577,42.476L41.568,42.511L41.558,42.546L41.547,42.581L41.536,42.615L41.523,42.65L41.51,42.684L41.496,42.718L41.48,42.751L41.465,42.784L41.448,42.817L41.43,42.85L41.412,42.882L41.392,42.914L41.372,42.945L41.351,42.976L41.329,43.007L41.306,43.037L41.282,43.067L41.258,43.096L41.232,43.125L41.206,43.153L41.179,43.181L41.151,43.208L41.123,43.234L41.094,43.26L41.065,43.284L41.036,43.308L41.006,43.331L40.975,43.353L40.944,43.374L40.913,43.394L40.881,43.414L40.849,43.432L40.816,43.45L40.783,43.467L40.75,43.482L40.717,43.498L40.683,43.512L40.649,43.525L40.614,43.538L40.58,43.549L40.545,43.56L40.51,43.57L40.475,43.579L40.439,43.587L40.404,43.594L40.368,43.601L40.332,43.606L40.297,43.611L40.261,43.615L40.224,43.618L40.188,43.62L40.152,43.622L40.116,43.622L40.08,43.622L40.044,43.62L40.008,43.618L39.972,43.615L39.936,43.611L39.901,43.606L39.865,43.601L39.829,43.594L39.794,43.587L39.759,43.579L39.724,43.57L39.689,43.56L39.654,43.549L39.62,43.538L39.585,43.525L39.551,43.512L39.517,43.498L39.484,43.482L39.451,43.467L39.418,43.45L39.385,43.432L39.353,43.414L39.321,43.394L39.29,43.374L39.259,43.353L39.228,43.331L39.198,43.308L39.168,43.284L39.139,43.26L39.11,43.234L39.082,43.208L39.054,43.181L31.306,35.433L23.559,43.181L23.531,43.208L23.503,43.234L23.474,43.26L23.445,43.284L23.415,43.308L23.385,43.331L23.354,43.353L23.323,43.374L23.292,43.394L23.26,43.414L23.228,43.432L23.195,43.45L23.162,43.467L23.129,43.482L23.096,43.498L23.062,43.512L23.028,43.525L22.993,43.538L22.959,43.549L22.924,43.56L22.889,43.57L22.854,43.579L22.818,43.587L22.783,43.594L22.747,43.601L22.711,43.606L22.676,43.611L22.64,43.615L22.603,43.618L22.567,43.62L22.531,43.622L22.495,43.622L22.459,43.622L22.423,43.62L22.387,43.618L22.351,43.615L22.316,43.611L22.28,43.606L22.244,43.601L22.209,43.594L22.173,43.587L22.138,43.579L22.103,43.57L22.068,43.56L22.033,43.549L21.999,43.538L21.965,43.525L21.931,43.512L21.897,43.498L21.863,43.482L21.83,43.467L21.797,43.45L21.765,43.432L21.732,43.414L21.701,43.394L21.669,43.374L21.638,43.353L21.607,43.331L21.577,43.308L21.547,43.284L21.518,43.26L21.489,43.234L21.461,43.208L21.433,43.181L21.406,43.153L21.38,43.125L21.354,43.096L21.33,43.067L21.306,43.037L21.283,43.007L21.261,42.976L21.24,42.945L21.22,42.914L21.2,42.882L21.182,42.85L21.164,42.817L21.147,42.784L21.132,42.751L21.116,42.718L21.102,42.684L21.089,42.65L21.076,42.615L21.065,42.581L21.054,42.546L21.044,42.511L21.035,42.476L21.027,42.441L21.019,42.405L21.013,42.369L21.007,42.334L21.003,42.298L20.999,42.262L20.996,42.226L20.994,42.19L20.992,42.154L20.992,42.118L20.992,42.082L20.993,42.046L20.996,42.01L20.999,41.974L21.002,41.938L21.007,41.902L21.013,41.866L21.019,41.831L21.026,41.795L21.035,41.76L21.044,41.725L21.053,41.69L21.064,41.655L21.076,41.62L21.088,41.586L21.101,41.552L21.116,41.518L21.131,41.484L21.146,41.451L21.163,41.418L21.181,41.386L21.199,41.354L21.219,41.322L21.239,41.29L21.26,41.259L21.282,41.228L21.304,41.198L21.328,41.168L21.352,41.139L21.378,41.11L21.404,41.082L21.431,41.054L29.178,33.307L21.431,25.559L21.404,25.531L21.378,25.503L21.352,25.474L21.328,25.445L21.304,25.415L21.281,25.385L21.259,25.354L21.238,25.323L21.218,25.291L21.198,25.26L21.18,25.227L21.162,25.195L21.145,25.162L21.13,25.129L21.114,25.095L21.1,25.061L21.087,25.027L21.074,24.993L21.063,24.958L21.052,24.924L21.042,24.889L21.033,24.853L21.025,24.818L21.018,24.783L21.011,24.747L21.006,24.711L21.001,24.676L20.997,24.64L20.994,24.604L20.992,24.568L20.99,24.532L20.99,24.495L20.99,24.459L20.992,24.423L20.994,24.387L20.997,24.351L21.001,24.315L21.006,24.28L21.011,24.244L21.018,24.208L21.025,24.173L21.033,24.138L21.042,24.102L21.052,24.067L21.063,24.033L21.074,23.998L21.087,23.964L21.1,23.93L21.114,23.896L21.13,23.862L21.145,23.829L21.162,23.796L21.18,23.764L21.198,23.731L21.218,23.7L21.238,23.668L21.259,23.637L21.281,23.606L21.304,23.576L21.328,23.546L21.352,23.517L21.378,23.488L21.404,23.46L21.431,23.432L21.459,23.405L21.487,23.379L21.516,23.353L21.545,23.329L21.575,23.305L21.605,23.282L21.636,23.26L21.667,23.239L21.698,23.219L21.73,23.2L21.762,23.181L21.795,23.164L21.828,23.147L21.861,23.131L21.894,23.116L21.928,23.102L21.962,23.088L21.997,23.076L22.031,23.064L22.066,23.054L22.101,23.044L22.136,23.035L22.171,23.027L22.207,23.019L22.243,23.013L22.278,23.007L22.314,23.002L22.35,22.999L22.386,22.996L22.422,22.993L22.458,22.992L22.494,22.992L22.53,22.992L22.566,22.993L22.602,22.996L22.638,22.999L22.674,23.002L22.71,23.007L22.746,23.013L22.781,23.019L22.817,23.027L22.852,23.035L22.887,23.044L22.922,23.054L22.957,23.064L22.992,23.076L23.026,23.088L23.06,23.102L23.094,23.116L23.128,23.131L23.161,23.147L23.194,23.164L23.226,23.181L23.258,23.2L23.29,23.219L23.322,23.239L23.353,23.26L23.384,23.282L23.414,23.305L23.444,23.329L23.473,23.353L23.502,23.379L23.53,23.405L23.558,23.432L31.305,31.18L39.053,23.432L39.081,23.405L39.109,23.379L39.138,23.353L39.167,23.329L39.197,23.305L39.227,23.282L39.258,23.26L39.289,23.239L39.32,23.219L39.352,23.2L39.384,23.181L39.417,23.164L39.45,23.147L39.483,23.131L39.516,23.116L39.55,23.102L39.584,23.088L39.619,23.076L39.653,23.064L39.688,23.054L39.723,23.044L39.758,23.035L39.793,23.027L39.829,23.019L39.864,23.013L39.9,23.007L39.936,23.002L39.972,22.999L40.008,22.996L40.044,22.993L40.08,22.992L40.116,22.992L40.152,22.992Z" style="fill:black;"/>
        </g>
    </g>
</svg>
