<?xml version="1.0" encoding="UTF-8" standalone="no"?>
<!DOCTYPE svg PUBLIC "-//W3C//DTD SVG 1.1//EN" "http://www.w3.org/Graphics/SVG/1.1/DTD/svg11.dtd">
<svg width="100%" height="100%" viewBox="0 0 60 60" version="1.1" xmlns="http://www.w3.org/2000/svg" xmlns:xlink="http://www.w3.org/1999/xlink" xml:space="preserve" style="fill-rule:evenodd;clip-rule:evenodd;stroke-linejoin:round;stroke-miterlimit:1.41421;">
    <g id="Home">
        <g id="Symbols">
            <path d="M59.58,42.673C59.579,42.662 59.578,42.652 59.578,42.643C59.579,42.652 59.579,42.662 59.58,42.673Z" style="fill:rgb(255,148,25);fill-rule:nonzero;"/>
            <path d="M59.578,42.643C59.576,42.622 59.575,42.603 59.574,42.586C59.575,42.602 59.576,42.62 59.578,42.643Z" style="fill:rgb(255,148,25);fill-rule:nonzero;"/>
            <path d="M59.57,42.535C59.569,42.522 59.569,42.521 59.57,42.535Z" style="fill:rgb(255,148,25);fill-rule:nonzero;"/>
            <path d="M59.574,42.586C59.572,42.562 59.571,42.545 59.57,42.535C59.571,42.545 59.572,42.563 59.574,42.586Z" style="fill:rgb(255,148,25);fill-rule:nonzero;"/>
            <path d="M59.649,43.601C59.675,43.939 59.687,44.107 59.649,43.601C59.134,36.714 58.455,29.838 57.858,22.959C57.579,19.742 57.299,16.526 57.027,13.309C56.883,11.598 56.745,9.885 56.608,8.173C56.49,6.704 56.626,3.564 55.983,2.22C54.985,0.133 49.796,0 49.796,0L10.16,0C10.16,0 4.768,0.075 3.712,2.818C3.15,5.261 2.983,9.273 2.761,12.008C2.474,15.542 2.155,19.273 1.846,22.804C1.25,29.633 0.679,36.566 0.082,43.395C-0.57,50.844 3.796,50.894 10.392,50.885C20.008,50.873 29.624,50.917 39.24,50.918C44.213,50.919 49.186,50.931 54.159,50.928C55.827,50.927 57.562,50.987 58.877,49.66C60.516,48.005 59.813,45.792 59.649,43.601ZM41.586,30.492C41.6,32.998 39.366,36.04 37.804,37.206C36.241,38.372 34.269,38.929 34.269,38.929C31.499,39.681 28.72,39.464 25.923,39.033C24.198,38.767 23.039,38.532 21.437,37.835C20.682,37.506 19.774,36.907 19.303,36.469C18.833,36.032 18.466,35.264 18.391,34.647C18.314,34.02 18.429,33.489 18.879,32.923C19.631,32.216 20.207,31.806 21.259,31.75C22.093,31.706 22.884,31.909 23.672,32.148C25.335,32.653 26.944,33.381 28.674,33.61C30.092,33.798 31.488,33.731 32.767,32.959C33.26,32.662 33.785,32.053 33.993,31.59C34.201,31.127 34.343,30.503 34.417,29.892C34.47,28.396 33.389,27.533 31.421,26.871C29.453,26.209 27.429,25.675 26.556,25.44C25.683,25.205 21.965,23.933 20.581,21.166C20.096,20.196 20.142,19.213 20.213,18.477C20.284,17.741 20.621,16.253 21.495,14.93C23.106,12.492 28.202,11.092 32.467,11.571C33.955,11.738 35.428,12.019 36.837,12.623C37.627,12.962 38.725,13.527 38.968,14.029C39.211,14.532 39.204,14.82 39.204,14.82C39.351,15.763 38.787,16.257 38.18,16.704C37.933,16.886 37.475,17.105 36.967,17.148C36.352,17.2 35.109,17.025 34,16.636C32.67,16.169 31.307,15.83 29.877,15.921C27.962,16.043 26.758,17.008 26.884,18.865C27.058,19.68 27.835,19.956 28.135,20.157C28.435,20.358 28.926,20.599 29.945,20.906C30.869,21.184 31.799,21.44 32.724,21.717C35.606,22.579 39.234,24.033 40.544,26.073C41.554,27.717 41.6,28.523 41.586,30.492Z" style="fill:black;fill-rule:nonzero;"/>
            <path d="M59.512,42.673C59.524,42.829 59.581,43.121 59.581,43.601L59.581,43.602C59.582,43.31 59.529,42.893 59.512,42.673Z" style="fill:rgb(255,148,25);fill-rule:nonzero;"/>
            <path d="M60,51.09C59.979,52.378 59.711,56.005 59.614,56.533C59.57,56.773 59.566,58.419 58.047,59.324C56.946,59.819 56.458,59.993 55.556,59.994C42.301,59.999 29.046,59.996 15.791,59.995C11.944,59.995 8.096,60.008 4.249,59.991C3.293,59.987 2.42,59.649 1.698,58.929C1.106,58.407 0.691,57.77 0.606,56.92L0,51.087C0,51.087 1.129,52.493 1.894,52.845C2.659,53.198 4.72,53.394 5.156,53.394C5.584,53.394 54.273,53.51 55.757,53.315C58.83,53.18 60,51.09 60,51.09Z" style="fill:black;fill-rule:nonzero;"/>
        </g>
    </g>
</svg>
