<?xml version="1.0" encoding="UTF-8" standalone="no"?>
<!DOCTYPE svg PUBLIC "-//W3C//DTD SVG 1.1//EN" "http://www.w3.org/Graphics/SVG/1.1/DTD/svg11.dtd">
<svg width="100%" height="100%" viewBox="0 0 340 80" version="1.1" xmlns="http://www.w3.org/2000/svg" xmlns:xlink="http://www.w3.org/1999/xlink" xml:space="preserve" style="fill-rule:evenodd;clip-rule:evenodd;stroke-linejoin:round;stroke-miterlimit:1.41421;">
    <g transform="matrix(1.01161,0,0,1.01161,-7.9144,-3.29385)">
        <path d="M45.609,6.462C65.863,6.462 82.306,22.905 82.306,43.158C82.306,63.412 65.863,79.855 45.609,79.855C25.356,79.855 8.913,63.412 8.913,43.158C8.913,22.905 25.356,6.462 45.609,6.462ZM45.609,15.636C60.799,15.636 73.132,27.969 73.132,43.158C73.132,58.348 60.799,70.68 45.609,70.68C30.42,70.68 18.087,58.348 18.087,43.158C18.087,27.969 30.42,15.636 45.609,15.636Z" style="fill:white;"/>
    </g>
    <g>
        <path d="M94.647,55.758L94.647,41.204L81.405,21.399L86.936,21.399L93.709,31.758C94.959,33.696 96.123,35.633 97.201,37.571C98.233,35.774 99.483,33.751 100.951,31.501L107.608,21.399L112.905,21.399L99.194,41.204L99.194,55.758L94.647,55.758Z" style="fill:white;fill-rule:nonzero;"/>
        <path d="M110.467,43.313C110.467,38.704 111.748,35.29 114.311,33.071C116.451,31.227 119.061,30.305 122.139,30.305C125.561,30.305 128.358,31.426 130.53,33.669C132.701,35.911 133.787,39.008 133.787,42.962C133.787,46.165 133.307,48.684 132.346,50.52C131.385,52.356 129.987,53.782 128.151,54.797C126.315,55.813 124.311,56.321 122.139,56.321C118.655,56.321 115.838,55.204 113.69,52.969C111.541,50.735 110.467,47.516 110.467,43.313ZM114.803,43.313C114.803,46.501 115.498,48.887 116.889,50.473C118.28,52.059 120.03,52.852 122.139,52.852C124.233,52.852 125.975,52.055 127.365,50.462C128.756,48.868 129.451,46.438 129.451,43.172C129.451,40.094 128.752,37.762 127.354,36.176C125.955,34.59 124.217,33.797 122.139,33.797C120.03,33.797 118.28,34.587 116.889,36.165C115.498,37.743 114.803,40.126 114.803,43.313Z" style="fill:white;fill-rule:nonzero;"/>
        <path d="M155.045,55.758L155.045,52.102C153.108,54.915 150.475,56.321 147.147,56.321C145.678,56.321 144.307,56.04 143.033,55.477C141.76,54.915 140.815,54.208 140.197,53.356C139.58,52.505 139.147,51.462 138.897,50.227C138.725,49.399 138.639,48.087 138.639,46.29L138.639,30.868L142.858,30.868L142.858,44.672C142.858,46.876 142.944,48.36 143.115,49.126C143.381,50.235 143.944,51.106 144.803,51.739C145.662,52.372 146.725,52.688 147.99,52.688C149.256,52.688 150.444,52.364 151.553,51.715C152.662,51.067 153.447,50.184 153.908,49.067C154.369,47.95 154.6,46.329 154.6,44.204L154.6,30.868L158.819,30.868L158.819,55.758L155.045,55.758Z" style="fill:white;fill-rule:nonzero;"/>
        <path d="M165.381,55.758L165.381,30.868L169.178,30.868L169.178,34.641C170.147,32.876 171.041,31.712 171.862,31.149C172.682,30.587 173.584,30.305 174.569,30.305C175.99,30.305 177.436,30.758 178.905,31.665L177.451,35.579C176.42,34.969 175.389,34.665 174.358,34.665C173.436,34.665 172.608,34.942 171.873,35.497C171.139,36.051 170.615,36.821 170.303,37.805C169.834,39.305 169.6,40.946 169.6,42.727L169.6,55.758L165.381,55.758Z" style="fill:white;fill-rule:nonzero;"/>
        <path d="M195.1,55.758L195.1,21.399L199.647,21.399L199.647,51.704L216.569,51.704L216.569,55.758L195.1,55.758Z" style="fill:white;fill-rule:nonzero;"/>
        <path d="M219.873,43.313C219.873,38.704 221.155,35.29 223.717,33.071C225.858,31.227 228.467,30.305 231.545,30.305C234.967,30.305 237.764,31.426 239.936,33.669C242.108,35.911 243.194,39.008 243.194,42.962C243.194,46.165 242.713,48.684 241.752,50.52C240.791,52.356 239.393,53.782 237.557,54.797C235.721,55.813 233.717,56.321 231.545,56.321C228.061,56.321 225.244,55.204 223.096,52.969C220.947,50.735 219.873,47.516 219.873,43.313ZM224.209,43.313C224.209,46.501 224.905,48.887 226.295,50.473C227.686,52.059 229.436,52.852 231.545,52.852C233.639,52.852 235.381,52.055 236.772,50.462C238.162,48.868 238.858,46.438 238.858,43.172C238.858,40.094 238.158,37.762 236.76,36.176C235.362,34.59 233.623,33.797 231.545,33.797C229.436,33.797 227.686,34.587 226.295,36.165C224.905,37.743 224.209,40.126 224.209,43.313Z" style="fill:white;fill-rule:nonzero;"/>
        <path d="M247.365,57.821L251.467,58.43C251.639,59.696 252.115,60.618 252.897,61.196C253.944,61.977 255.373,62.368 257.186,62.368C259.139,62.368 260.647,61.977 261.709,61.196C262.772,60.415 263.49,59.321 263.865,57.915C264.084,57.055 264.186,55.251 264.17,52.501C262.326,54.672 260.03,55.758 257.28,55.758C253.858,55.758 251.209,54.524 249.334,52.055C247.459,49.587 246.522,46.626 246.522,43.172C246.522,40.797 246.951,38.606 247.811,36.598C248.67,34.59 249.916,33.04 251.549,31.946C253.182,30.852 255.1,30.305 257.303,30.305C260.24,30.305 262.662,31.493 264.569,33.868L264.569,30.868L268.459,30.868L268.459,52.383C268.459,56.258 268.065,59.005 267.276,60.622C266.487,62.239 265.237,63.516 263.526,64.454C261.815,65.391 259.709,65.86 257.209,65.86C254.24,65.86 251.842,65.192 250.014,63.856C248.186,62.52 247.303,60.508 247.365,57.821ZM250.858,42.868C250.858,46.133 251.506,48.516 252.803,50.016C254.1,51.516 255.725,52.266 257.678,52.266C259.615,52.266 261.24,51.52 262.553,50.028C263.865,48.536 264.522,46.196 264.522,43.008C264.522,39.962 263.846,37.665 262.494,36.118C261.143,34.571 259.514,33.797 257.608,33.797C255.733,33.797 254.139,34.559 252.826,36.083C251.514,37.606 250.858,39.868 250.858,42.868Z" style="fill:white;fill-rule:nonzero;"/>
        <path d="M273.264,43.313C273.264,38.704 274.545,35.29 277.108,33.071C279.248,31.227 281.858,30.305 284.936,30.305C288.358,30.305 291.155,31.426 293.326,33.669C295.498,35.911 296.584,39.008 296.584,42.962C296.584,46.165 296.104,48.684 295.143,50.52C294.182,52.356 292.783,53.782 290.947,54.797C289.112,55.813 287.108,56.321 284.936,56.321C281.451,56.321 278.635,55.204 276.487,52.969C274.338,50.735 273.264,47.516 273.264,43.313ZM277.6,43.313C277.6,46.501 278.295,48.887 279.686,50.473C281.076,52.059 282.826,52.852 284.936,52.852C287.03,52.852 288.772,52.055 290.162,50.462C291.553,48.868 292.248,46.438 292.248,43.172C292.248,40.094 291.549,37.762 290.151,36.176C288.752,34.59 287.014,33.797 284.936,33.797C282.826,33.797 281.076,34.587 279.686,36.165C278.295,37.743 277.6,40.126 277.6,43.313Z" style="fill:white;fill-rule:nonzero;"/>
    </g>
    <g transform="matrix(1,0,0,1,-6.44799,18.0009)">
        <path d="M42.014,39.855L42.014,25.394L29.428,5.495L37.561,5.495L45.647,19.089L53.569,5.495L61.561,5.495L48.928,25.441L48.928,39.855L42.014,39.855Z" style="fill:white;fill-rule:nonzero;"/>
    </g>
</svg>
