<?xml version="1.0" encoding="UTF-8" standalone="no"?>
<!DOCTYPE svg PUBLIC "-//W3C//DTD SVG 1.1//EN" "http://www.w3.org/Graphics/SVG/1.1/DTD/svg11.dtd">
<svg width="100%" height="100%" viewBox="0 0 100 100" version="1.1" xmlns="http://www.w3.org/2000/svg" xmlns:xlink="http://www.w3.org/1999/xlink" xml:space="preserve" style="fill-rule:evenodd;clip-rule:evenodd;stroke-linecap:round;stroke-linejoin:round;stroke-miterlimit:1.41421;">
    <g>
        <g transform="matrix(1,0,0,1,0,-952.362)">
            <path d="M12,968.362C8.711,968.362 6,971.073 6,974.362L6,1030.36C6,1033.65 8.711,1036.36 12,1036.36L88,1036.36C91.289,1036.36 94,1033.65 94,1030.36L94,974.362C94,971.073 91.289,968.362 88,968.362L12,968.362ZM12,972.362L34.063,972.362L41.906,982.362L10,982.362L10,974.362C10,973.22 10.857,972.362 12,972.362ZM39.125,972.362L88,972.362C89.143,972.362 90,973.22 90,974.362L90,982.362L46.969,982.362L39.125,972.362ZM15,975.362C13.895,975.362 13,976.258 13,977.362C13,978.467 13.895,979.362 15,979.362C16.105,979.362 17,978.467 17,977.362C17,976.258 16.105,975.362 15,975.362ZM22,975.362C20.895,975.362 20,976.258 20,977.362C20,978.467 20.895,979.362 22,979.362C23.105,979.362 24,978.467 24,977.362C24,976.258 23.105,975.362 22,975.362ZM29,975.362C27.895,975.362 27,976.258 27,977.362C27,978.467 27.895,979.362 29,979.362C30.105,979.362 31,978.467 31,977.362C31,976.258 30.105,975.362 29,975.362ZM10,986.362L90,986.362L90,1030.36C90,1031.51 89.143,1032.36 88,1032.36L12,1032.36C10.857,1032.36 10,1031.51 10,1030.36L10,986.362ZM50,987.362C37.873,987.362 28,997.236 28,1009.36C28,1021.49 37.873,1031.36 50,1031.36C62.127,1031.36 72,1021.49 72,1009.36C72,997.236 62.127,987.362 50,987.362ZM48,991.518L48,998.362L42.688,998.362C42.969,997.541 43.257,996.773 43.594,996.081C44.896,993.405 46.418,991.951 48,991.518ZM52,991.518C53.582,991.951 55.104,993.405 56.406,996.081C56.743,996.773 57.031,997.541 57.313,998.362L52,998.362L52,991.518ZM39.938,994.425C39.36,995.626 38.882,996.956 38.469,998.362L35.75,998.362C36.924,996.842 38.342,995.501 39.938,994.425ZM60.063,994.425C61.658,995.501 63.076,996.842 64.25,998.362L61.531,998.362C61.118,996.956 60.64,995.626 60.063,994.425ZM33.406,1002.36L37.563,1002.36C37.299,1003.95 37.138,1005.64 37.063,1007.36L32.125,1007.36C32.318,1005.61 32.751,1003.92 33.406,1002.36ZM41.656,1002.36L48,1002.36L48,1007.36L41.031,1007.36C41.118,1005.61 41.363,1003.93 41.656,1002.36ZM52,1002.36L58.344,1002.36C58.637,1003.93 58.882,1005.61 58.969,1007.36L52,1007.36L52,1002.36ZM62.438,1002.36L66.594,1002.36C67.249,1003.92 67.682,1005.61 67.875,1007.36L62.938,1007.36C62.863,1005.64 62.701,1003.95 62.438,1002.36ZM32.125,1011.36L37.063,1011.36C37.139,1013.1 37.296,1014.77 37.563,1016.36L33.406,1016.36C32.751,1014.8 32.318,1013.11 32.125,1011.36ZM41.031,1011.36L48,1011.36L48,1016.36L41.656,1016.36C41.361,1014.8 41.119,1013.12 41.031,1011.36ZM52,1011.36L58.969,1011.36C58.881,1013.12 58.639,1014.8 58.344,1016.36L52,1016.36L52,1011.36ZM62.938,1011.36L67.875,1011.36C67.682,1013.11 67.249,1014.8 66.594,1016.36L62.438,1016.36C62.704,1014.77 62.862,1013.1 62.938,1011.36ZM35.75,1020.36L38.469,1020.36C38.89,1021.79 39.41,1023.11 40,1024.33C38.381,1023.25 36.938,1021.9 35.75,1020.36ZM42.688,1020.36L48,1020.36L48,1027.21C46.418,1026.77 44.896,1025.29 43.594,1022.61C43.261,1021.93 42.966,1021.17 42.688,1020.36ZM52,1020.36L57.313,1020.36C57.034,1021.17 56.739,1021.93 56.406,1022.61C55.104,1025.29 53.582,1026.77 52,1027.21L52,1020.36ZM61.531,1020.36L64.25,1020.36C63.062,1021.9 61.619,1023.25 60,1024.33C60.59,1023.11 61.11,1021.79 61.531,1020.36Z" style="fill:black;fill-rule:nonzero;"/>
        </g>
        <g>
            <g transform="matrix(1.11066,0,0,1.11066,-13.7295,-10.1884)">
                <circle cx="87.404" cy="79.797" r="12.435" style="fill:black;"/>
                <path d="M87.565,67.363L87.725,67.366L87.884,67.371L88.044,67.378L88.202,67.387L88.36,67.398L88.518,67.411L88.675,67.426L88.831,67.443L88.987,67.462L89.142,67.483L89.297,67.505L89.451,67.53L89.604,67.556L89.757,67.585L89.909,67.615L90.06,67.647L90.211,67.681L90.361,67.716L90.51,67.754L90.659,67.793L90.807,67.834L90.954,67.877L91.1,67.922L91.246,67.968L91.391,68.016L91.535,68.066L91.678,68.117L91.82,68.17L91.962,68.225L92.103,68.282L92.243,68.34L92.382,68.4L92.52,68.461L92.657,68.524L92.793,68.589L92.929,68.655L93.063,68.723L93.197,68.793L93.329,68.864L93.461,68.937L93.592,69.011L93.722,69.086L93.85,69.163L93.978,69.242L94.105,69.322L94.23,69.404L94.355,69.487L94.478,69.572L94.601,69.658L94.722,69.745L94.842,69.834L94.962,69.924L95.08,70.016L95.196,70.109L95.312,70.203L95.427,70.299L95.54,70.396L95.652,70.494L95.764,70.594L95.873,70.695L95.982,70.798L96.089,70.901L96.195,71.006L96.3,71.112L96.404,71.22L96.506,71.328L96.607,71.438L96.707,71.549L96.805,71.661L96.903,71.775L96.998,71.889L97.093,72.005L97.186,72.122L97.277,72.24L97.368,72.359L97.456,72.479L97.544,72.601L97.63,72.723L97.798,72.971L97.879,73.097L97.959,73.224L98.038,73.351L98.115,73.48L98.191,73.61L98.265,73.74L98.338,73.872L98.409,74.005L98.478,74.138L98.546,74.273L98.612,74.408L98.677,74.545L98.74,74.682L98.802,74.82L98.862,74.959L98.92,75.099L98.976,75.24L99.031,75.381L99.084,75.524L99.136,75.667L99.186,75.811L99.234,75.956L99.28,76.101L99.325,76.248L99.367,76.395L99.408,76.543L99.448,76.691L99.485,76.84L99.521,76.99L99.555,77.141L99.587,77.293L99.617,77.445L99.645,77.597L99.671,77.751L99.696,77.905L99.719,78.059L99.739,78.215L99.758,78.37L99.775,78.527L99.79,78.684L99.803,78.841L99.814,78.999L99.823,79.158L99.83,79.317L99.835,79.477L99.838,79.637L99.839,79.797L99.838,79.958L99.835,80.118L99.83,80.278L99.823,80.437L99.814,80.596L99.803,80.754L99.79,80.911L99.775,81.068L99.758,81.224L99.739,81.38L99.719,81.536L99.696,81.69L99.671,81.844L99.645,81.997L99.617,82.15L99.587,82.302L99.555,82.454L99.521,82.604L99.485,82.754L99.448,82.904L99.408,83.052L99.367,83.2L99.325,83.347L99.28,83.494L99.234,83.639L99.186,83.784L99.136,83.928L99.084,84.071L99.031,84.214L98.976,84.355L98.92,84.496L98.862,84.636L98.802,84.775L98.74,84.913L98.677,85.05L98.612,85.187L98.546,85.322L98.478,85.457L98.409,85.59L98.338,85.723L98.265,85.854L98.191,85.985L98.115,86.115L98.038,86.244L97.959,86.371L97.879,86.498L97.798,86.624L97.714,86.748L97.63,86.872L97.544,86.994L97.456,87.115L97.368,87.236L97.277,87.355L97.186,87.473L97.093,87.59L96.998,87.706L96.903,87.82L96.805,87.934L96.707,88.046L96.607,88.157L96.506,88.267L96.404,88.375L96.3,88.483L96.195,88.589L96.089,88.694L95.982,88.797L95.873,88.9L95.764,89.001L95.652,89.1L95.54,89.199L95.427,89.296L95.312,89.392L95.196,89.486L95.08,89.579L94.962,89.671L94.842,89.761L94.722,89.85L94.601,89.937L94.478,90.023L94.355,90.108L94.23,90.191L94.105,90.273L93.978,90.353L93.85,90.431L93.722,90.509L93.592,90.584L93.461,90.658L93.329,90.731L93.197,90.802L93.063,90.871L92.929,90.939L92.793,91.006L92.657,91.07L92.52,91.134L92.382,91.195L92.243,91.255L92.103,91.313L91.962,91.37L91.82,91.424L91.678,91.478L91.535,91.529L91.391,91.579L91.246,91.627L91.1,91.673L90.954,91.718L90.807,91.761L90.659,91.802L90.51,91.841L90.361,91.878L90.211,91.914L90.06,91.948L89.909,91.98L89.757,92.01L89.604,92.038L89.451,92.065L89.297,92.089L89.142,92.112L88.987,92.133L88.831,92.152L88.675,92.168L88.518,92.183L88.36,92.196L88.202,92.207L88.044,92.217L87.884,92.224L87.725,92.229L87.565,92.232L87.404,92.233L87.243,92.232L87.083,92.229L86.924,92.224L86.765,92.217L86.606,92.207L86.448,92.196L86.29,92.183L86.133,92.168L85.977,92.152L85.821,92.133L85.666,92.112L85.511,92.089L85.357,92.065L85.204,92.038L85.051,92.01L84.899,91.98L84.748,91.948L84.597,91.914L84.447,91.878L84.298,91.841L84.149,91.802L84.001,91.761L83.854,91.718L83.708,91.673L83.562,91.627L83.418,91.579L83.273,91.529L83.13,91.478L82.988,91.424L82.846,91.37L82.706,91.313L82.566,91.255L82.427,91.195L82.288,91.134L82.151,91.07L82.015,91.006L81.879,90.939L81.745,90.871L81.611,90.802L81.479,90.731L81.347,90.658L81.216,90.584L81.087,90.509L80.958,90.431L80.83,90.353L80.704,90.273L80.578,90.191L80.453,90.108L80.33,90.023L80.207,89.937L80.086,89.85L79.966,89.761L79.847,89.671L79.729,89.579L79.612,89.486L79.496,89.392L79.381,89.296L79.268,89.199L79.156,89.1L79.045,89.001L78.935,88.9L78.826,88.797L78.719,88.694L78.613,88.589L78.508,88.483L78.404,88.375L78.302,88.267L78.201,88.157L78.101,88.046L78.003,87.934L77.906,87.82L77.81,87.706L77.715,87.59L77.622,87.473L77.531,87.355L77.441,87.236L77.352,87.115L77.264,86.994L77.178,86.872L77.094,86.748L77.011,86.624L76.929,86.498L76.849,86.371L76.77,86.244L76.693,86.115L76.617,85.985L76.543,85.854L76.471,85.723L76.4,85.59L76.33,85.457L76.262,85.322L76.196,85.187L76.131,85.05L76.068,84.913L76.007,84.775L75.947,84.636L75.888,84.496L75.832,84.355L75.777,84.214L75.724,84.071L75.672,83.928L75.623,83.784L75.575,83.639L75.528,83.494L75.484,83.347L75.441,83.2L75.4,83.052L75.361,82.904L75.323,82.754L75.287,82.604L75.254,82.454L75.222,82.302L75.191,82.15L75.163,81.997L75.137,81.844L75.112,81.69L75.09,81.536L75.069,81.38L75.05,81.224L75.033,81.068L75.018,80.911L75.005,80.754L74.994,80.596L74.985,80.437L74.978,80.278L74.973,80.118L74.97,79.958L74.969,79.797L74.97,79.637L74.973,79.477L74.978,79.317L74.985,79.158L74.994,78.999L75.005,78.841L75.018,78.684L75.033,78.527L75.05,78.37L75.069,78.215L75.09,78.059L75.112,77.905L75.137,77.751L75.163,77.597L75.191,77.445L75.222,77.293L75.254,77.141L75.287,76.99L75.323,76.84L75.361,76.691L75.4,76.543L75.441,76.395L75.484,76.248L75.528,76.101L75.575,75.956L75.623,75.811L75.672,75.667L75.724,75.524L75.777,75.381L75.832,75.24L75.888,75.099L75.947,74.959L76.007,74.82L76.068,74.682L76.131,74.545L76.196,74.408L76.262,74.273L76.33,74.138L76.4,74.005L76.471,73.872L76.543,73.74L76.617,73.61L76.693,73.48L76.77,73.351L76.849,73.224L76.929,73.097L77.011,72.971L77.094,72.847L77.178,72.723L77.264,72.601L77.352,72.479L77.441,72.359L77.531,72.24L77.622,72.122L77.715,72.005L77.81,71.889L77.906,71.775L78.003,71.661L78.101,71.549L78.201,71.438L78.302,71.328L78.404,71.22L78.508,71.112L78.613,71.006L78.719,70.901L78.826,70.798L78.935,70.695L79.045,70.594L79.156,70.494L79.268,70.396L79.381,70.299L79.496,70.203L79.612,70.109L79.729,70.016L79.847,69.924L79.966,69.834L80.086,69.745L80.207,69.658L80.33,69.572L80.453,69.487L80.578,69.404L80.704,69.322L80.83,69.242L80.958,69.163L81.087,69.086L81.216,69.011L81.347,68.937L81.479,68.864L81.611,68.793L81.745,68.723L81.879,68.655L82.015,68.589L82.151,68.524L82.288,68.461L82.427,68.4L82.566,68.34L82.706,68.282L82.846,68.225L82.988,68.17L83.13,68.117L83.273,68.066L83.418,68.016L83.562,67.968L83.708,67.922L83.854,67.877L84.001,67.834L84.149,67.793L84.298,67.754L84.447,67.716L84.597,67.681L84.748,67.647L84.899,67.615L85.051,67.585L85.204,67.556L85.357,67.53L85.511,67.505L85.666,67.483L85.821,67.462L85.977,67.443L86.133,67.426L86.29,67.411L86.448,67.398L86.606,67.387L86.765,67.378L86.924,67.371L87.083,67.366L87.243,67.363L87.404,67.362L87.565,67.363ZM87.295,71.415L87.186,71.417L87.078,71.42L86.97,71.425L86.863,71.431L86.756,71.438L86.649,71.447L86.543,71.457L86.438,71.469L86.333,71.481L86.228,71.495L86.124,71.511L86.02,71.527L85.917,71.545L85.815,71.564L85.712,71.584L85.611,71.606L85.509,71.628L85.409,71.652L85.308,71.678L85.209,71.704L85.109,71.731L85.011,71.76L84.912,71.79L84.814,71.821L84.717,71.854L84.621,71.887L84.524,71.922L84.429,71.957L84.334,71.994L84.239,72.032L84.145,72.071L84.052,72.111L83.959,72.153L83.866,72.195L83.775,72.239L83.683,72.283L83.593,72.329L83.503,72.376L83.414,72.424L83.325,72.473L83.237,72.523L83.149,72.574L83.063,72.626L82.976,72.679L82.891,72.733L82.806,72.788L82.722,72.844L82.639,72.901L82.556,72.959L82.474,73.018L82.393,73.078L82.312,73.139L82.233,73.201L82.153,73.264L82.075,73.328L81.998,73.393L81.921,73.458L81.845,73.525L81.77,73.592L81.696,73.661L81.622,73.73L81.55,73.8L81.478,73.871L81.407,73.943L81.337,74.015L81.267,74.089L81.199,74.163L81.132,74.238L81.065,74.314L80.999,74.391L80.935,74.469L80.871,74.547L80.808,74.626L80.746,74.706L80.685,74.786L80.625,74.867L80.566,74.949L80.508,75.032L80.451,75.115L80.395,75.2L80.339,75.284L80.285,75.37L80.232,75.456L80.18,75.543L80.129,75.63L80.079,75.718L80.03,75.807L79.983,75.896L79.936,75.986L79.89,76.077L79.845,76.168L79.802,76.26L79.759,76.352L79.718,76.445L79.678,76.538L79.639,76.632L79.601,76.727L79.564,76.822L79.528,76.918L79.494,77.014L79.46,77.111L79.428,77.208L79.397,77.306L79.367,77.404L79.338,77.503L79.311,77.602L79.284,77.702L79.259,77.802L79.235,77.903L79.212,78.004L79.191,78.106L79.171,78.208L79.152,78.311L79.134,78.414L79.117,78.517L79.102,78.622L79.088,78.726L79.075,78.831L79.064,78.937L79.054,79.043L79.045,79.149L79.038,79.256L79.031,79.363L79.027,79.471L79.023,79.579L79.021,79.688L79.02,79.797L79.021,79.907L79.023,80.015L79.027,80.124L79.031,80.232L79.045,80.446L79.054,80.552L79.064,80.658L79.075,80.764L79.088,80.869L79.102,80.973L79.117,81.077L79.134,81.181L79.152,81.284L79.171,81.387L79.191,81.489L79.212,81.591L79.235,81.692L79.259,81.793L79.284,81.893L79.311,81.993L79.338,82.092L79.367,82.191L79.397,82.289L79.428,82.387L79.46,82.484L79.494,82.581L79.528,82.677L79.564,82.773L79.601,82.868L79.639,82.963L79.678,83.057L79.718,83.15L79.759,83.243L79.845,83.427L79.89,83.518L79.936,83.609L79.983,83.699L80.03,83.788L80.079,83.877L80.129,83.965L80.18,84.052L80.232,84.139L80.285,84.225L80.339,84.31L80.395,84.395L80.451,84.479L80.508,84.563L80.566,84.645L80.625,84.727L80.685,84.809L80.746,84.889L80.808,84.969L80.871,85.048L80.999,85.204L81.065,85.281L81.132,85.356L81.199,85.432L81.267,85.506L81.407,85.652L81.478,85.724L81.55,85.795L81.622,85.865L81.696,85.934L81.77,86.002L81.845,86.07L81.921,86.136L81.998,86.202L82.075,86.267L82.153,86.331L82.233,86.394L82.312,86.456L82.393,86.517L82.474,86.577L82.556,86.636L82.639,86.694L82.722,86.751L82.806,86.807L82.891,86.862L82.976,86.916L83.063,86.969L83.149,87.021L83.237,87.072L83.325,87.122L83.414,87.171L83.503,87.219L83.593,87.266L83.683,87.311L83.774,87.356L83.866,87.4L83.959,87.442L84.051,87.483L84.145,87.524L84.239,87.563L84.334,87.601L84.429,87.638L84.524,87.673L84.62,87.708L84.717,87.741L84.815,87.774L84.912,87.805L85.01,87.835L85.109,87.863L85.209,87.891L85.308,87.917L85.409,87.942L85.509,87.966L85.611,87.989L85.712,88.011L85.815,88.031L85.917,88.05L86.02,88.068L86.124,88.084L86.228,88.099L86.333,88.113L86.438,88.126L86.543,88.138L86.649,88.148L86.863,88.164L86.97,88.17L87.078,88.175L87.186,88.178L87.295,88.18L87.404,88.181L87.513,88.18L87.622,88.178L87.73,88.175L87.838,88.17L87.946,88.164L88.052,88.156L88.159,88.148L88.265,88.138L88.37,88.126L88.475,88.113L88.58,88.099L88.684,88.084L88.788,88.068L88.891,88.05L88.994,88.031L89.096,88.011L89.198,87.989L89.299,87.966L89.4,87.942L89.5,87.917L89.6,87.891L89.699,87.863L89.798,87.835L89.896,87.805L89.994,87.774L90.091,87.741L90.188,87.708L90.284,87.673L90.379,87.638L90.475,87.601L90.569,87.563L90.663,87.524L90.757,87.483L90.85,87.442L90.942,87.4L91.034,87.356L91.125,87.311L91.215,87.266L91.305,87.219L91.395,87.171L91.483,87.122L91.571,87.072L91.659,87.021L91.746,86.969L91.832,86.916L91.917,86.862L92.002,86.807L92.086,86.751L92.169,86.694L92.252,86.636L92.334,86.577L92.415,86.517L92.496,86.456L92.576,86.394L92.655,86.331L92.733,86.267L92.81,86.202L92.887,86.136L92.963,86.07L93.038,86.002L93.113,85.934L93.186,85.865L93.259,85.795L93.331,85.724L93.401,85.652L93.472,85.579L93.541,85.506L93.609,85.432L93.677,85.357L93.743,85.28L93.809,85.204L93.874,85.126L93.937,85.048L94,84.969L94.062,84.889L94.123,84.809L94.183,84.727L94.242,84.646L94.3,84.563L94.357,84.479L94.414,84.395L94.469,84.31L94.523,84.225L94.576,84.139L94.628,84.052L94.679,83.965L94.729,83.877L94.778,83.788L94.826,83.699L94.872,83.609L94.918,83.518L94.963,83.427L95.006,83.335L95.049,83.243L95.09,83.15L95.13,83.056L95.169,82.963L95.207,82.868L95.244,82.773L95.28,82.677L95.315,82.581L95.348,82.484L95.38,82.387L95.411,82.289L95.441,82.191L95.47,82.092L95.498,81.993L95.524,81.893L95.549,81.793L95.573,81.692L95.596,81.591L95.617,81.489L95.638,81.387L95.657,81.284L95.674,81.181L95.691,81.077L95.706,80.973L95.72,80.869L95.733,80.764L95.744,80.658L95.754,80.552L95.763,80.446L95.771,80.339L95.777,80.232L95.782,80.124L95.785,80.016L95.787,79.907L95.788,79.797L95.787,79.688L95.785,79.579L95.782,79.471L95.777,79.363L95.771,79.256L95.763,79.149L95.754,79.043L95.744,78.937L95.733,78.831L95.72,78.726L95.706,78.622L95.691,78.517L95.674,78.414L95.657,78.311L95.638,78.208L95.617,78.106L95.596,78.004L95.573,77.903L95.549,77.802L95.524,77.702L95.498,77.602L95.47,77.503L95.441,77.404L95.411,77.306L95.38,77.208L95.348,77.111L95.315,77.014L95.28,76.918L95.244,76.822L95.207,76.727L95.169,76.632L95.13,76.538L95.09,76.445L95.049,76.352L95.006,76.26L94.963,76.168L94.918,76.077L94.872,75.986L94.826,75.896L94.778,75.807L94.729,75.718L94.679,75.63L94.628,75.543L94.576,75.456L94.523,75.37L94.469,75.284L94.414,75.2L94.357,75.115L94.3,75.032L94.242,74.949L94.183,74.867L94.123,74.786L94.062,74.706L94,74.626L93.937,74.547L93.874,74.468L93.809,74.391L93.743,74.314L93.677,74.238L93.609,74.163L93.541,74.089L93.472,74.016L93.401,73.943L93.331,73.871L93.259,73.8L93.186,73.73L93.113,73.661L93.038,73.592L92.963,73.525L92.887,73.458L92.81,73.393L92.733,73.328L92.655,73.264L92.576,73.201L92.496,73.139L92.415,73.078L92.334,73.018L92.252,72.959L92.169,72.901L92.086,72.844L92.002,72.788L91.917,72.733L91.832,72.679L91.746,72.626L91.659,72.574L91.571,72.523L91.483,72.473L91.395,72.424L91.305,72.376L91.215,72.329L91.125,72.283L91.034,72.239L90.942,72.195L90.85,72.153L90.757,72.111L90.663,72.071L90.569,72.032L90.475,71.994L90.38,71.957L90.284,71.922L90.188,71.887L90.091,71.854L89.994,71.821L89.896,71.79L89.798,71.76L89.699,71.731L89.6,71.704L89.5,71.678L89.4,71.652L89.299,71.628L89.198,71.606L89.096,71.584L88.994,71.564L88.891,71.545L88.788,71.527L88.684,71.511L88.58,71.495L88.475,71.481L88.37,71.469L88.265,71.457L88.159,71.447L88.053,71.438L87.946,71.431L87.838,71.425L87.73,71.42L87.622,71.417L87.513,71.415L87.404,71.414L87.295,71.415Z" style="fill:black;"/>
            </g>
            <g transform="matrix(1,0,0,1,-0.00700958,0.899776)">
                <path d="M76.848,77.693L82.583,83.441L90.013,71.289" style="fill:none;stroke-width:3.5px;stroke:white;"/>
            </g>
        </g>
    </g>
</svg>
