<svg xmlns="http://www.w3.org/2000/svg" xmlns:xlink="http://www.w3.org/1999/xlink" version="1.1" id="cap-logo" class="caplogo" x="0px" y="0px" viewBox="0 0 234.25 40.32" enable-background="new 0 0 234.25 40.32" xml:space="preserve">
    <path d="M17.25,2.285c0-0.784,0.634-1.418,1.421-1.418c0.781,0,1.417,0.634,1.417,1.418c0,0.787-0.636,1.422-1.417,1.422  C17.883,3.708,17.25,3.072,17.25,2.285z" />
    <circle fill="#009BBF" cx="13.559" cy="2.288" r="0.851" />
    <path fill="#B41F28" d="M27.468,2.285c0-0.784,0.637-1.418,1.418-1.418c0.787,0,1.421,0.634,1.421,1.418  c0,0.787-0.634,1.422-1.421,1.422C28.105,3.708,27.468,3.072,27.468,2.285z" />
    <path fill="#009BBF" d="M21.793,2.285c0-1.096,0.89-1.985,1.985-1.985c1.092,0,1.984,0.889,1.984,1.985  c0,1.098-0.893,1.987-1.984,1.987C22.683,4.272,21.793,3.383,21.793,2.285z" />
    <path d="M7.028,7.425c0-0.785,0.641-1.423,1.419-1.423c0.784,0,1.423,0.638,1.423,1.423c0,0.782-0.639,1.416-1.423,1.416  C7.668,8.841,7.028,8.208,7.028,7.425z" />
    <path d="M27.468,7.425c0-0.785,0.637-1.423,1.418-1.423c0.787,0,1.421,0.638,1.421,1.423c0,0.782-0.634,1.416-1.421,1.416  C28.105,8.841,27.468,8.208,27.468,7.425z" />
    <path d="M33.142,7.425c0-0.468,0.384-0.854,0.851-0.854c0.473,0,0.854,0.386,0.854,0.854c0,0.472-0.381,0.849-0.854,0.849  C33.526,8.274,33.142,7.897,33.142,7.425z" />
    <path fill="#B41F28" d="M22.358,7.425c0-0.759,0.639-1.375,1.421-1.375c0.778,0,1.418,0.616,1.418,1.375  c0,0.757-0.64,1.369-1.418,1.369C22.997,8.794,22.358,8.183,22.358,7.425z" />
    <path fill="#C4C6C9" d="M17.25,7.425c0-0.785,0.634-1.423,1.421-1.423c0.781,0,1.418,0.638,1.418,1.423  c0,0.782-0.637,1.416-1.418,1.416C17.883,8.841,17.25,8.208,17.25,7.425z" />
    <path fill="#009BBF" d="M11.572,7.425c0-1.101,0.893-1.99,1.987-1.99c1.099,0,1.987,0.889,1.987,1.99  c0,1.094-0.889,1.986-1.987,1.986C12.464,9.412,11.572,8.519,11.572,7.425z" />
    <path d="M12.137,27.701c0-0.786,0.636-1.418,1.419-1.418c0.787,0,1.421,0.632,1.421,1.418c0,0.785-0.634,1.421-1.421,1.421  C12.773,29.122,12.137,28.486,12.137,27.701z" />
    <path d="M28.036,27.701c0-0.472,0.381-0.852,0.849-0.852c0.474,0,0.854,0.38,0.854,0.852c0,0.476-0.38,0.851-0.854,0.851  C28.417,28.552,28.036,28.177,28.036,27.701z" />
    <path d="M32.575,27.701c0-0.786,0.634-1.418,1.418-1.418c0.783,0,1.419,0.632,1.419,1.418c0,0.785-0.636,1.421-1.419,1.421  C33.208,29.122,32.575,28.486,32.575,27.701z" />
    <path fill="#B41F28" d="M7.028,27.701c0-0.786,0.641-1.418,1.419-1.418c0.784,0,1.423,0.632,1.423,1.418  c0,0.785-0.639,1.421-1.423,1.421C7.668,29.122,7.028,28.486,7.028,27.701z" />
    <path fill="#B41F28" d="M37.686,27.701c0-0.786,0.632-1.418,1.42-1.418c0.78,0,1.416,0.632,1.416,1.418  c0,0.785-0.636,1.421-1.416,1.421C38.318,29.122,37.686,28.486,37.686,27.701z" />
    <path fill="#C4C6C9" d="M1.922,27.701c0-0.786,0.633-1.418,1.415-1.418c0.785,0,1.42,0.632,1.42,1.418  c0,0.785-0.635,1.421-1.42,1.421C2.555,29.122,1.922,28.486,1.922,27.701z" />
    <path fill="#C4C6C9" d="M17.25,27.701c0-0.786,0.634-1.418,1.421-1.418c0.781,0,1.418,0.632,1.418,1.418  c0,0.785-0.637,1.421-1.418,1.421C17.883,29.122,17.25,28.486,17.25,27.701z" />
    <path fill="#009BBF" d="M22.358,27.701c0-0.786,0.639-1.418,1.421-1.418c0.778,0,1.418,0.632,1.418,1.418  c0,0.785-0.64,1.421-1.418,1.421C22.997,29.122,22.358,28.486,22.358,27.701z" />
    <path d="M17.816,32.81c0-0.475,0.38-0.854,0.854-0.854c0.468,0,0.851,0.379,0.851,0.854c0,0.476-0.383,0.852-0.851,0.852  C18.196,33.661,17.816,33.285,17.816,32.81z" />
    <path d="M22.358,32.814c0-0.788,0.639-1.425,1.421-1.425c0.778,0,1.418,0.637,1.418,1.425c0,0.782-0.64,1.413-1.418,1.413  C22.997,34.228,22.358,33.597,22.358,32.814z" />
    <circle fill="#B41F28" cx="13.559" cy="32.808" r="1.987" />
    <path fill="#B41F28" d="M27.468,32.814c0-0.788,0.637-1.425,1.418-1.425c0.787,0,1.421,0.637,1.421,1.425  c0,0.782-0.634,1.413-1.421,1.413C28.105,34.228,27.468,33.597,27.468,32.814z" />
    <path fill="#009BBF" d="M32.574,32.814c0-0.788,0.637-1.425,1.419-1.425c0.783,0,1.423,0.637,1.423,1.425  c0,0.782-0.64,1.413-1.423,1.413C33.21,34.228,32.574,33.597,32.574,32.814z" />
    <path fill="#009BBF" d="M7.028,32.814c0-0.786,0.641-1.425,1.419-1.425c0.784,0,1.423,0.639,1.423,1.425  c0,0.783-0.639,1.413-1.423,1.413C7.668,34.228,7.028,33.598,7.028,32.814z" />
    <path d="M7.028,12.454c0-0.786,0.641-1.422,1.419-1.422c0.784,0,1.423,0.636,1.423,1.422c0,0.78-0.639,1.417-1.423,1.417  C7.668,13.871,7.028,13.234,7.028,12.454z" />
    <path d="M17.25,12.454c0-0.786,0.634-1.422,1.421-1.422c0.781,0,1.418,0.636,1.418,1.422c0,0.78-0.637,1.417-1.418,1.417  C17.883,13.871,17.25,13.234,17.25,12.454z" />
    <path fill="#B41F28" d="M12.137,12.454c0-0.786,0.636-1.422,1.419-1.422c0.787,0,1.421,0.636,1.421,1.422  c0,0.78-0.634,1.417-1.421,1.417C12.773,13.871,12.137,13.234,12.137,12.454z" />
    <path fill="#C4C6C9" d="M27.468,12.454c0-0.786,0.637-1.422,1.418-1.422c0.787,0,1.421,0.636,1.421,1.422  c0,0.78-0.634,1.417-1.421,1.417C28.105,13.871,27.468,13.234,27.468,12.454z" />
    <path fill="#C4C6C9" d="M37.684,12.454c0-0.786,0.633-1.422,1.423-1.422c0.779,0,1.417,0.636,1.417,1.422  c0,0.78-0.638,1.417-1.417,1.417C38.317,13.871,37.684,13.234,37.684,12.454z" />
    <path fill="#009BBF" d="M1.922,12.454c0-0.786,0.633-1.422,1.415-1.422c0.785,0,1.42,0.636,1.42,1.422  c0,0.78-0.635,1.417-1.42,1.417C2.555,13.871,1.922,13.234,1.922,12.454z" />
    <path fill="#009BBF" d="M22.924,12.454c0-0.477,0.384-0.854,0.854-0.854c0.469,0,0.848,0.377,0.848,0.854  c0,0.466-0.379,0.85-0.848,0.85C23.308,13.304,22.924,12.92,22.924,12.454z" />
    <path fill="#009BBF" d="M32.574,12.454c0-0.786,0.637-1.422,1.419-1.422c0.783,0,1.423,0.636,1.423,1.422  c0,0.78-0.64,1.417-1.423,1.417C33.21,13.871,32.574,13.234,32.574,12.454z" />
    <path d="M2.488,17.499c0-0.474,0.381-0.858,0.853-0.858c0.47,0,0.852,0.384,0.852,0.858c0,0.466-0.382,0.845-0.852,0.845  C2.869,18.344,2.488,17.964,2.488,17.499z" />
    <path d="M12.708,17.494c0-0.475,0.377-0.854,0.849-0.854c0.471,0,0.854,0.379,0.854,0.854c0,0.465-0.383,0.85-0.854,0.85  C13.084,18.344,12.708,17.959,12.708,17.494z" />
    <path d="M22.358,17.497c0-0.788,0.639-1.425,1.421-1.425c0.778,0,1.418,0.637,1.418,1.425c0,0.779-0.64,1.416-1.418,1.416  C22.997,18.913,22.358,18.276,22.358,17.497z" />
    <path d="M32.574,17.497c0-0.788,0.637-1.425,1.419-1.425c0.783,0,1.423,0.637,1.423,1.425c0,0.779-0.64,1.416-1.423,1.416  C33.21,18.913,32.574,18.276,32.574,17.497z" />
    <path fill="#B41F28" d="M27.468,17.497c0-0.788,0.637-1.425,1.418-1.425c0.787,0,1.421,0.637,1.421,1.425  c0,0.779-0.634,1.416-1.421,1.416C28.105,18.913,27.468,18.276,27.468,17.497z" />
    <path fill="#C4C6C9" d="M7.028,17.497c0-0.788,0.641-1.425,1.419-1.425c0.784,0,1.423,0.637,1.423,1.425  c0,0.779-0.639,1.416-1.423,1.416C7.668,18.913,7.028,18.276,7.028,17.497z" />
    <path fill="#009BBF" d="M16.68,17.494c0-1.104,0.892-1.988,1.99-1.988c1.096,0,1.985,0.885,1.985,1.988  c0,1.098-0.89,1.986-1.985,1.986C17.572,19.48,16.68,18.592,16.68,17.494z" />
    <path fill="#009BBF" d="M37.118,17.494c0-1.1,0.887-1.988,1.988-1.988c1.092,0,1.985,0.888,1.985,1.988  c0,1.09-0.894,1.986-1.985,1.986C38.004,19.48,37.118,18.584,37.118,17.494z" />
    <path d="M7.028,22.599c0-0.781,0.641-1.416,1.419-1.416c0.784,0,1.423,0.634,1.423,1.416c0,0.783-0.639,1.42-1.423,1.42  C7.668,24.019,7.028,23.382,7.028,22.599z" />
    <path d="M17.25,22.599c0-0.781,0.634-1.416,1.421-1.416c0.781,0,1.418,0.634,1.418,1.416c0,0.783-0.637,1.42-1.418,1.42  C17.883,24.019,17.25,23.382,17.25,22.599z" />
    <path fill="#C4C6C9" d="M27.468,22.599c0-0.781,0.637-1.416,1.418-1.416c0.787,0,1.421,0.634,1.421,1.416  c0,0.783-0.634,1.42-1.421,1.42C28.105,24.019,27.468,23.382,27.468,22.599z" />
    <path d="M37.684,22.599c0-0.781,0.633-1.416,1.423-1.416c0.779,0,1.417,0.634,1.417,1.416c0,0.783-0.638,1.42-1.417,1.42  C38.317,24.019,37.684,23.382,37.684,22.599z" />
    <path fill="#B41F28" d="M21.793,22.599c0-1.102,0.886-1.987,1.985-1.987c1.098,0,1.984,0.886,1.984,1.987  c0,1.098-0.887,1.986-1.984,1.986C22.679,24.585,21.793,23.696,21.793,22.599z" />
    <circle fill="#009BBF" cx="3.34" cy="22.599" r="1.987" />
    <path fill="#009BBF" d="M12.137,22.599c0-0.781,0.636-1.416,1.419-1.416c0.787,0,1.421,0.634,1.421,1.416  c0,0.783-0.634,1.42-1.421,1.42C12.773,24.019,12.137,23.382,12.137,22.599z" />
    <path fill="#009BBF" d="M32.574,22.599c0-0.781,0.637-1.416,1.419-1.416c0.783,0,1.423,0.634,1.423,1.416  c0,0.783-0.64,1.42-1.423,1.42C33.21,24.019,32.574,23.382,32.574,22.599z" />
    <path d="M12.137,37.915c0-0.784,0.636-1.422,1.419-1.422c0.787,0,1.421,0.638,1.421,1.422c0,0.779-0.634,1.418-1.421,1.418  C12.773,39.333,12.137,38.694,12.137,37.915z" />
    <path d="M22.924,37.915c0-0.472,0.384-0.854,0.854-0.854c0.467,0,0.848,0.382,0.848,0.854c0,0.467-0.381,0.849-0.848,0.849  C23.308,38.764,22.924,38.382,22.924,37.915z" />
    <path fill="#009BBF" d="M16.68,37.909c0-1.094,0.89-1.981,1.99-1.981c1.096,0,1.985,0.888,1.985,1.981c0,1.096-0.89,1.99-1.985,1.99  C17.57,39.899,16.68,39.005,16.68,37.909z" />
    <path fill="#009BBF" d="M27.468,37.915c0-0.784,0.637-1.422,1.418-1.422c0.787,0,1.421,0.638,1.421,1.422  c0,0.779-0.634,1.418-1.421,1.418C28.105,39.333,27.468,38.694,27.468,37.915z" />
    <g>
        <path d="M131.102,34.354c2.14,0,3.675-0.977,3.693-0.988c0.08-0.058,0.152-0.201,0.152-0.301v-3.385   c0-0.158-0.106-0.289-0.245-0.336c-0.042-0.021-0.088-0.032-0.136-0.032h-2.577c-0.2,0-0.353,0.151-0.353,0.353v0.551   c0,0.189,0.155,0.338,0.353,0.338h1.675v1.965c-0.199,0.107-1.166,0.59-2.578,0.59c-2.221,0-4.027-1.883-4.027-4.195   c0-2.293,1.807-4.158,4.027-4.158c0.911,0,1.966,0.433,2.751,1.133c0.079,0.072,0.169,0.137,0.266,0.137   c0.104,0,0.179-0.07,0.232-0.131c0.076-0.086,0.178-0.182,0.274-0.273c0.046-0.046,0.093-0.092,0.14-0.135   c0.065-0.07,0.102-0.157,0.102-0.252c0-0.102-0.043-0.198-0.123-0.277c-1.131-0.965-2.251-1.396-3.626-1.396   c-2.986,0-5.414,2.431-5.414,5.414C125.688,31.942,128.116,34.354,131.102,34.354z" />
        <path d="M56.757,16.638c1.402,0,2.665-0.503,3.645-1.456c0.076-0.073,0.121-0.194,0.116-0.306   c-0.006-0.089-0.043-0.163-0.103-0.208l-0.452-0.403c-0.136-0.091-0.294-0.077-0.448,0.044c-0.818,0.619-1.542,1.09-2.773,1.09   c-2.228,0-4.04-1.864-4.04-4.157c0-2.303,1.812-4.177,4.04-4.177c0.949,0,1.985,0.407,2.767,1.085   c0.188,0.191,0.364,0.183,0.495,0.016l0.398-0.397c0.067-0.07,0.105-0.159,0.105-0.252c0-0.102-0.043-0.199-0.124-0.279   c-1.131-0.963-2.25-1.394-3.626-1.394c-2.984,0-5.413,2.43-5.413,5.415C51.344,14.225,53.773,16.638,56.757,16.638z" />
        <path d="M68.213,16.638c3.027,0,5.397-2.363,5.397-5.379c0-2.985-2.419-5.415-5.397-5.415c-2.968,0-5.383,2.43-5.383,5.415   C62.831,14.274,65.196,16.638,68.213,16.638z M68.213,7.037c2.319,0,4.204,1.893,4.204,4.222c0,2.31-1.885,4.189-4.204,4.189   c-2.31,0-4.19-1.88-4.19-4.189C64.023,8.929,65.904,7.037,68.213,7.037z" />
        <path d="M76.767,16.491h5.11c0.202,0,0.361-0.162,0.361-0.363v-0.424c0-0.199-0.159-0.362-0.361-0.362h-4.175v-8.99   c0-0.193-0.167-0.362-0.36-0.362h-0.575c-0.198,0-0.359,0.163-0.359,0.362v9.776C76.408,16.329,76.569,16.491,76.767,16.491z" />
        <path d="M91.094,15.341h-4.176v-8.99c0-0.193-0.169-0.362-0.361-0.362H85.98c-0.197,0-0.359,0.163-0.359,0.362v9.776   c0,0.201,0.162,0.363,0.359,0.363h5.114c0.202,0,0.36-0.159,0.36-0.363v-0.424C91.455,15.504,91.292,15.341,91.094,15.341z" />
        <path d="M95.136,16.491h5.82c0.199,0,0.36-0.162,0.36-0.363v-0.424c0-0.199-0.161-0.362-0.36-0.362h-4.886v-3.608h4.161   c0.198,0,0.359-0.161,0.359-0.359v-0.427c0-0.192-0.168-0.363-0.359-0.363h-4.161V7.141h4.886c0.199,0,0.36-0.161,0.36-0.36v-0.43   c0-0.199-0.161-0.362-0.36-0.362h-5.82c-0.198,0-0.359,0.163-0.359,0.362v9.776C94.777,16.329,94.938,16.491,95.136,16.491z" />
        <path d="M116.947,16.491h5.819c0.199,0,0.361-0.162,0.361-0.363v-0.424c0-0.199-0.162-0.362-0.361-0.362h-4.883v-3.608h4.16   c0.199,0,0.36-0.161,0.36-0.359v-0.427c0-0.192-0.17-0.363-0.36-0.363h-4.16V7.141h4.883c0.199,0,0.361-0.161,0.361-0.36v-0.43   c0-0.199-0.162-0.362-0.361-0.362h-5.819c-0.199,0-0.359,0.163-0.359,0.362v9.776C116.587,16.329,116.748,16.491,116.947,16.491z" />
        <g>
            <path d="M133.29,10.274c-1.665,0-3.02,1.421-3.02,3.167c0,1.763,1.354,3.197,3.02,3.197s3.021-1.434,3.021-3.197    C136.31,11.695,134.955,10.274,133.29,10.274z M133.29,15.521c-1.032,0-1.843-0.913-1.843-2.08c0-1.138,0.811-2.029,1.843-2.029    c1.033,0,1.841,0.892,1.841,2.029C135.13,14.607,134.323,15.521,133.29,15.521z" />
            <path d="M140.789,5.843c-1.44,0-2.338,0.994-2.338,2.592v1.991h-0.961c-0.205,0-0.361,0.153-0.361,0.357v0.325    c0,0.199,0.161,0.362,0.361,0.362h0.961v8.103c0,0.193,0.168,0.363,0.359,0.363h0.457c0.193,0,0.362-0.169,0.362-0.363V11.47    h1.635c0.199,0,0.36-0.163,0.36-0.362v-0.325c0-0.204-0.154-0.357-0.36-0.357h-1.635V8.435c0-0.964,0.417-1.52,1.146-1.52    c0.452,0,0.903,0.317,1.026,0.414c0.092,0.073,0.18,0.11,0.265,0.11c0.069,0,0.165-0.024,0.237-0.144l0.24-0.387    c0.08-0.143,0.048-0.331-0.076-0.436C142.27,6.281,141.703,5.843,140.789,5.843z" />
        </g>
        <path d="M156.662,16.275c0.041,0.107,0.155,0.216,0.326,0.216h0.591c0.13,0,0.243-0.057,0.308-0.156   c0.063-0.098,0.069-0.222,0.016-0.34l-4.464-9.946c-0.069-0.134-0.179-0.205-0.319-0.205h-0.149c-0.144,0-0.254,0.071-0.323,0.207   l-4.49,9.944c-0.054,0.118-0.051,0.242,0.013,0.34c0.064,0.099,0.178,0.156,0.312,0.156h0.589c0.167,0,0.286-0.108,0.324-0.209   l1.059-2.39h5.14L156.662,16.275z M155.122,12.816h-4.187l2.085-4.688h0.015c0.357,0.794,0.71,1.591,1.063,2.389   C154.438,11.284,154.779,12.052,155.122,12.816z" />
        <path d="M181.947,5.989h-5.818c-0.201,0-0.362,0.163-0.362,0.362v9.776c0,0.201,0.161,0.363,0.362,0.363h5.818   c0.202,0,0.36-0.159,0.36-0.363v-0.424c0-0.199-0.162-0.362-0.36-0.362h-4.884v-3.608h4.16c0.198,0,0.359-0.161,0.359-0.359v-0.427   c0-0.192-0.168-0.363-0.359-0.363h-4.16V7.141h4.884c0.198,0,0.36-0.161,0.36-0.36v-0.43   C182.307,6.152,182.145,5.989,181.947,5.989z" />
        <path d="M193.178,9.217c0-1.781-1.48-3.228-3.299-3.228h-3.826c-0.199,0-0.362,0.163-0.362,0.362v9.776   c0,0.201,0.163,0.363,0.362,0.363h0.574c0.191,0,0.362-0.17,0.362-0.363v-3.683h2.691l1.943,3.871   c0.021,0.042,0.105,0.175,0.308,0.175h0.752c0.141,0,0.258-0.062,0.322-0.171c0.065-0.109,0.066-0.252,0-0.375l-1.981-3.674   C192.336,11.709,193.178,10.519,193.178,9.217z M191.853,9.232c0,1.146-0.919,2.077-2.048,2.077h-2.787V7.227h2.787   C190.896,7.227,191.853,8.165,191.853,9.232z" />
        <path d="M197.621,5.989h-0.592c-0.192,0-0.362,0.168-0.362,0.362v9.776c0,0.193,0.17,0.363,0.362,0.363h0.592   c0.189,0,0.358-0.17,0.358-0.363V6.351C197.979,6.158,197.81,5.989,197.621,5.989z" />
        <path d="M209.428,14.265c-0.135-0.091-0.292-0.077-0.446,0.044c-0.819,0.619-1.543,1.09-2.772,1.09   c-2.229,0-4.043-1.864-4.043-4.157c0-2.303,1.813-4.177,4.043-4.177c0.948,0,1.983,0.407,2.765,1.085   c0.19,0.191,0.365,0.183,0.496,0.016l0.398-0.397c0.068-0.07,0.106-0.159,0.106-0.252c0-0.102-0.043-0.199-0.125-0.279   c-1.132-0.963-2.25-1.394-3.629-1.394c-2.982,0-5.41,2.43-5.41,5.415c0,2.967,2.428,5.379,5.41,5.379   c1.406,0,2.667-0.503,3.647-1.456c0.075-0.073,0.122-0.194,0.115-0.306c-0.008-0.089-0.046-0.163-0.104-0.208L209.428,14.265z" />
        <path d="M217.532,6.048c-0.069-0.138-0.178-0.205-0.322-0.205h-0.149c-0.141,0-0.248,0.067-0.322,0.207l-4.49,9.943   c-0.054,0.118-0.049,0.243,0.016,0.341c0.064,0.1,0.176,0.157,0.309,0.157h0.592c0.168,0,0.284-0.108,0.323-0.209l1.058-2.39h5.141   l1.07,2.388c0.043,0.106,0.161,0.211,0.327,0.211h0.591c0.13,0,0.242-0.057,0.307-0.156c0.063-0.098,0.07-0.222,0.017-0.34   L217.532,6.048z M219.214,12.816h-4.187l2.085-4.688h0.017c0.368,0.816,0.73,1.636,1.091,2.456   C218.551,11.33,218.881,12.075,219.214,12.816z" />
        <path d="M233.177,5.989h-0.518c-0.197,0-0.359,0.163-0.359,0.362v7.686l-6.551-8.164l-0.023-0.03h-0.407   c-0.196,0-0.359,0.159-0.359,0.347v9.938c0,0.193,0.167,0.363,0.359,0.363h0.518c0.197,0,0.358-0.162,0.358-0.363V8.301   l6.678,8.337h0.305c0.195,0,0.359-0.159,0.359-0.344V6.351C233.537,6.158,233.371,5.989,233.177,5.989z" />
        <path d="M55.721,23.708h-3.263c-0.199,0-0.359,0.162-0.359,0.36v9.78c0,0.199,0.16,0.362,0.359,0.362h0.561   c0.191,0,0.36-0.169,0.36-0.362v-3.393h2.356c1.861,0,3.375-1.525,3.375-3.4C59.111,25.212,57.59,23.708,55.721,23.708z    M57.812,27.024c0,1.202-0.969,2.181-2.164,2.181h-2.269v-4.216h2.269C56.843,24.989,57.812,25.903,57.812,27.024z" />
        <path d="M65.432,23.768c-0.065-0.136-0.179-0.208-0.322-0.208h-0.147c-0.144,0-0.253,0.07-0.323,0.21l-4.492,9.945   c-0.054,0.116-0.048,0.239,0.015,0.339c0.064,0.1,0.177,0.157,0.309,0.157h0.592c0.166,0,0.286-0.112,0.324-0.212l1.058-2.389h5.14   l1.073,2.387c0.04,0.102,0.159,0.214,0.323,0.214h0.59c0.135,0,0.247-0.058,0.312-0.157s0.07-0.223,0.013-0.339L65.432,23.768z    M67.116,30.535h-4.188l2.086-4.687h0.017c0.351,0.783,0.701,1.573,1.052,2.359C66.423,28.985,66.769,29.761,67.116,30.535z" />
        <path d="M77.262,23.708H71c-0.203,0-0.36,0.158-0.36,0.36v0.429c0,0.203,0.157,0.361,0.36,0.361h2.491v8.99   c0,0.193,0.168,0.362,0.36,0.362h0.562c0.191,0,0.36-0.169,0.36-0.362v-8.99h2.489c0.199,0,0.36-0.162,0.36-0.361v-0.429   C77.623,23.87,77.461,23.708,77.262,23.708z" />
        <path d="M88.548,23.708h-0.576c-0.199,0-0.36,0.162-0.36,0.36v4.235h-5.838v-4.235c0-0.198-0.162-0.36-0.364-0.36h-0.573   c-0.191,0-0.362,0.169-0.362,0.36v9.78c0,0.193,0.171,0.362,0.362,0.362h0.573c0.202,0,0.364-0.163,0.364-0.362v-4.396h5.838v4.396   c0,0.199,0.161,0.362,0.36,0.362h0.576c0.192,0,0.359-0.169,0.359-0.362v-9.78C88.908,23.877,88.741,23.708,88.548,23.708z" />
        <path d="M97.087,23.56c-2.969,0-5.382,2.431-5.382,5.414c0,3.02,2.364,5.383,5.382,5.383c3.026,0,5.397-2.363,5.397-5.383   C102.485,25.99,100.064,23.56,97.087,23.56z M97.087,33.163c-2.311,0-4.189-1.879-4.189-4.189c0-2.327,1.879-4.221,4.189-4.221   c2.317,0,4.204,1.894,4.204,4.221C101.292,31.284,99.405,33.163,97.087,33.163z" />
        <path d="M110.643,33.062h-4.177v-8.993c0-0.191-0.169-0.36-0.358-0.36h-0.577c-0.199,0-0.361,0.162-0.361,0.36v9.78   c0,0.199,0.162,0.362,0.361,0.362h5.112c0.198,0,0.359-0.163,0.359-0.362v-0.428C111.002,33.224,110.841,33.062,110.643,33.062z" />
        <path d="M117.732,23.56c-2.971,0-5.385,2.431-5.385,5.414c0,3.02,2.366,5.383,5.385,5.383c3.024,0,5.396-2.363,5.396-5.383   C123.127,25.99,120.707,23.56,117.732,23.56z M117.732,33.163c-2.311,0-4.189-1.879-4.189-4.189c0-2.327,1.879-4.221,4.189-4.221   c2.315,0,4.202,1.894,4.202,4.221C121.934,31.284,120.047,33.163,117.732,33.163z" />
        <path d="M139.423,23.708h-0.589c-0.194,0-0.362,0.169-0.362,0.36v9.78c0,0.193,0.168,0.362,0.362,0.362h0.589   c0.193,0,0.362-0.169,0.362-0.362v-9.78C139.786,23.877,139.617,23.708,139.423,23.708z" />
        <path d="M146.535,28.268c-1.384-0.579-1.947-1.16-1.947-2.009c0-0.536,0.408-1.547,1.958-1.547c0.367,0,0.988,0.109,1.852,0.641   l0.046,0.027c0.097,0.054,0.184,0.082,0.263,0.082c0.186,0,0.294-0.138,0.36-0.24c0.031-0.044,0.06-0.094,0.091-0.144   c0.028-0.048,0.06-0.094,0.087-0.138c0.103-0.163,0.097-0.293,0.074-0.376c-0.032-0.122-0.123-0.205-0.185-0.233   c-0.045-0.034-1.115-0.771-2.571-0.771c-2.368,0-3.228,1.625-3.228,2.713c0,1.662,0.933,2.381,2.651,3.129   c1.605,0.672,2.536,1.258,2.536,2.262c0,0.881-0.817,1.543-1.901,1.543c-1.06,0-1.971-0.678-2.422-1.081l-0.023-0.021   c-0.082-0.069-0.165-0.104-0.251-0.104c-0.167,0-0.297,0.143-0.379,0.25c-0.039,0.045-0.075,0.096-0.115,0.145   c-0.035,0.045-0.069,0.092-0.111,0.143c-0.211,0.331-0.019,0.498,0.101,0.602c0.135,0.126,1.351,1.219,3.17,1.219   c1.836,0,3.271-1.2,3.271-2.736C149.861,29.771,148.355,29.007,146.535,28.268z" />
        <path d="M158.637,23.708h-6.265c-0.201,0-0.358,0.158-0.358,0.36v0.429c0,0.199,0.161,0.361,0.358,0.361h2.492v8.99   c0,0.193,0.167,0.362,0.356,0.362h0.563c0.193,0,0.361-0.169,0.361-0.362v-8.99h2.491c0.198,0,0.36-0.162,0.36-0.361v-0.429   C158.998,23.87,158.835,23.708,158.637,23.708z" />
        <path d="M164.498,28.268c-1.381-0.579-1.946-1.16-1.946-2.009c0-0.536,0.41-1.547,1.957-1.547c0.368,0,0.987,0.109,1.855,0.641   l0.044,0.027c0.099,0.054,0.185,0.082,0.265,0.082c0.185,0,0.293-0.138,0.358-0.24c0.027-0.041,0.056-0.086,0.082-0.13   c0.031-0.05,0.062-0.103,0.097-0.151c0.103-0.163,0.098-0.293,0.075-0.376c-0.037-0.122-0.125-0.205-0.188-0.233   c-0.044-0.034-1.117-0.771-2.572-0.771c-2.364,0-3.223,1.625-3.223,2.713c0,1.66,0.929,2.381,2.647,3.129   c1.607,0.67,2.535,1.258,2.535,2.262c0,0.881-0.816,1.543-1.899,1.543c-1.055,0-1.968-0.678-2.419-1.08l-0.026-0.022   c-0.081-0.069-0.164-0.104-0.248-0.104c-0.171,0-0.3,0.143-0.381,0.25c-0.038,0.048-0.08,0.096-0.118,0.15   c-0.034,0.043-0.069,0.086-0.11,0.137c-0.212,0.332-0.019,0.498,0.1,0.602c0.221,0.203,1.405,1.219,3.174,1.219   c1.834,0,3.271-1.2,3.271-2.736C167.827,29.771,166.32,29.007,164.498,28.268z" />
        <path d="M171.945,5.843h-0.324h-0.207h-0.028c-0.141,0-0.287,0.097-0.323,0.207l-4.395,8.86l-4.464-8.851   c-0.039-0.118-0.189-0.217-0.327-0.217h-0.029h-0.208h-0.323c-0.196,0-0.361,0.159-0.361,0.347v9.938   c0,0.193,0.17,0.363,0.361,0.363h0.531c0.196,0,0.36-0.158,0.36-0.344V8.422l3.977,8.003c0.043,0.121,0.211,0.212,0.329,0.212   h0.266c0.119,0,0.284-0.091,0.318-0.204l3.955-7.882v7.576c0,0.193,0.169,0.363,0.361,0.363h0.531c0.195,0,0.359-0.158,0.359-0.344   V6.204C172.304,6.013,172.137,5.843,171.945,5.843z" />
        <path d="M109.4,16.638c2.141,0,3.675-0.978,3.694-0.988c0.079-0.058,0.152-0.202,0.152-0.301v-3.385   c0-0.158-0.107-0.29-0.246-0.337c-0.042-0.019-0.087-0.03-0.135-0.03h-2.577c-0.2,0-0.352,0.15-0.352,0.351v0.551   c0,0.189,0.154,0.337,0.352,0.337h1.675v1.964c-0.2,0.109-1.168,0.588-2.578,0.588c-2.221,0-4.029-1.881-4.029-4.193   c0-2.293,1.809-4.159,4.029-4.159c0.911,0,1.965,0.434,2.752,1.134c0.079,0.071,0.166,0.135,0.266,0.135   c0.102,0,0.178-0.07,0.231-0.131c0.076-0.086,0.177-0.181,0.271-0.272c0.048-0.048,0.095-0.092,0.142-0.134   c0.066-0.07,0.104-0.159,0.103-0.252c0-0.102-0.043-0.199-0.123-0.279c-1.132-0.963-2.251-1.394-3.627-1.394   c-2.986,0-5.414,2.43-5.414,5.415C103.986,14.225,106.414,16.638,109.4,16.638z" />
    </g>
</svg>
