<?xml version="1.0" encoding="UTF-8" standalone="no"?>
<!DOCTYPE svg PUBLIC "-//W3C//DTD SVG 1.1//EN" "http://www.w3.org/Graphics/SVG/1.1/DTD/svg11.dtd">
<svg width="100%" height="100%" viewBox="0 0 100 100" version="1.1" xmlns="http://www.w3.org/2000/svg" xmlns:xlink="http://www.w3.org/1999/xlink" xml:space="preserve" style="fill-rule:evenodd;clip-rule:evenodd;stroke-linecap:square;stroke-linejoin:round;stroke-miterlimit:1.41421;">
    <g transform="matrix(1,0,0,1,1.35285,3.33529)">
        <path d="M94.184,36.406L78.589,36.406C78.57,39.536 78.478,54.083 78.459,57.126L94.184,57.126L94.184,87.406L60.632,87.406L60.632,57.126L78.459,57.126L78.589,36.406L60.632,36.406L60.632,6.126L94.184,6.126L94.184,36.406ZM92.684,58.626L62.132,58.626L62.132,85.906L92.684,85.906L92.684,58.626ZM47.67,49.222C53.439,49.217 78.051,49.218 78.051,49.218L47.67,49.227L47.67,77.428L1.527,77.428L1.527,10.552L47.67,10.552L47.67,49.222ZM46.114,12.303L3.083,12.303L3.083,75.677L46.114,75.677L46.114,12.303ZM40.016,46.962C40.016,46.962 3.58,46.96 8.981,46.971L40.016,46.962ZM40.016,38.962C40.016,38.962 3.58,38.96 8.981,38.971L40.016,38.962ZM92.684,7.626L62.132,7.626L62.132,34.906L92.684,34.906L92.684,7.626ZM40.016,30.962C40.016,30.962 3.58,30.96 8.981,30.971L40.016,30.962ZM40.016,22.962C40.016,22.962 3.58,22.96 8.981,22.971L40.016,22.962Z" style="fill:black;stroke-width:4px;stroke:white;"/>
    </g>
</svg>
