<svg xmlns="http://www.w3.org/2000/svg" xmlns:xlink="http://www.w3.org/1999/xlink" version="1.1" x="0px" y="0px" viewBox="0 0 100 100" style="enable-background:new 0 0 100 100;" xml:space="preserve" width="18px" height="18px">
  <path d="M39.5,5C20.6,5,5.3,20.4,5.3,39.3c0,18.9,15.3,34.2,34.2,34.2s34.2-15.3,34.2-34.2C73.7,20.4,58.4,5,39.5,5z M39.5,67.7  c-15.7,0-28.4-12.7-28.4-28.4c0-15.7,12.7-28.4,28.4-28.4s28.4,12.7,28.4,28.4C67.9,54.9,55.1,67.7,39.5,67.7z M94,90.4L68.7,65.1  l-3.8,3.8l25.3,25.3c1.1,1.1,2.8,1.1,3.8,0h0C95,93.1,95,91.4,94,90.4z M54,36.4H42.4V24.7c0-1.6-1.3-2.9-2.9-2.9s-2.9,1.3-2.9,2.9  v11.6H25c-1.6,0-2.9,1.3-2.9,2.9c0,1.6,1.3,2.9,2.9,2.9h11.6v11.6c0,1.6,1.3,2.9,2.9,2.9s2.9-1.3,2.9-2.9V42.2H54  c1.6,0,2.9-1.3,2.9-2.9C56.9,37.6,55.6,36.4,54,36.4z" />
</svg>
