<svg xmlns="http://www.w3.org/2000/svg" xmlns:xlink="http://www.w3.org/1999/xlink" version="1.1" x="0px" y="0px" viewBox="0 0 100 100" enable-background="new 0 0 100 100" xml:space="preserve">
  <g>
    <path d="M5,43.598v-9.526v-2.458h10.379V6.71h68.319h0.755v24.904H95v2.458v9.526H82.943c0-9.514,0-34.209,0-35.38   c-1.455,0-64.602,0-66.056,0c0,1.171,0,25.866,0,35.38H5z M94.908,45.859V93.29H5.047V45.859H94.908z M57.898,69.248   c0,1.407,1.142,2.549,2.547,2.549c1.407,0,2.547-1.142,2.547-2.549c0-1.407-1.14-2.545-2.547-2.545   C59.041,66.703,57.898,67.841,57.898,69.248z M20.952,83.796c0-1.407-1.14-2.55-2.547-2.55c-1.407,0-2.547,1.143-2.547,2.55   c0,1.407,1.14,2.545,2.547,2.545C19.813,86.341,20.952,85.203,20.952,83.796z M20.952,69.248c0-1.407-1.14-2.545-2.547-2.545   c-1.407,0-2.547,1.138-2.547,2.545c0,1.407,1.14,2.549,2.547,2.549C19.813,71.797,20.952,70.655,20.952,69.248z M26.28,76.717   c0-1.407-1.137-2.548-2.544-2.548c-1.407,0-2.547,1.141-2.547,2.548c0,1.406,1.14,2.546,2.547,2.546   C25.143,79.263,26.28,78.124,26.28,76.717z M31.463,83.796c0-1.407-1.142-2.55-2.547-2.55c-1.41,0-2.547,1.143-2.547,2.55   c0,1.407,1.137,2.545,2.547,2.545C30.321,86.341,31.463,85.203,31.463,83.796z M31.463,69.248c0-1.407-1.142-2.545-2.547-2.545   c-1.41,0-2.547,1.138-2.547,2.545c0,1.407,1.137,2.549,2.547,2.549C30.321,71.797,31.463,70.655,31.463,69.248z M36.791,76.717   c0-1.407-1.14-2.548-2.544-2.548c-1.407,0-2.547,1.141-2.547,2.548c0,1.406,1.14,2.546,2.547,2.546   C35.651,79.263,36.791,78.124,36.791,76.717z M41.974,83.796c0-1.407-1.142-2.55-2.55-2.55c-1.404,0-2.547,1.143-2.547,2.55   c0,1.407,1.142,2.545,2.547,2.545C40.831,86.341,41.974,85.203,41.974,83.796z M41.974,69.248c0-1.407-1.142-2.545-2.55-2.545   c-1.404,0-2.547,1.138-2.547,2.545c0,1.407,1.142,2.549,2.547,2.549C40.831,71.797,41.974,70.655,41.974,69.248z M47.301,76.717   c0-1.407-1.14-2.548-2.547-2.548c-1.404,0-2.544,1.141-2.544,2.548c0,1.406,1.14,2.546,2.544,2.546   C46.162,79.263,47.301,78.124,47.301,76.717z M52.484,83.796c0-1.407-1.142-2.55-2.547-2.55c-1.41,0-2.55,1.143-2.55,2.55   c0,1.407,1.14,2.545,2.55,2.545C51.342,86.341,52.484,85.203,52.484,83.796z M52.484,69.248c0-1.407-1.142-2.545-2.547-2.545   c-1.41,0-2.55,1.138-2.55,2.545c0,1.407,1.14,2.549,2.55,2.549C51.342,71.797,52.484,70.655,52.484,69.248z M57.812,76.717   c0-1.407-1.14-2.548-2.547-2.548c-1.404,0-2.547,1.141-2.547,2.548c0,1.406,1.142,2.546,2.547,2.546   C56.672,79.263,57.812,78.124,57.812,76.717z M62.992,83.796c0-1.407-1.14-2.55-2.547-2.55c-1.404,0-2.547,1.143-2.547,2.55   c0,1.407,1.142,2.545,2.547,2.545C61.852,86.341,62.992,85.203,62.992,83.796z M68.322,76.717c0-1.407-1.14-2.548-2.547-2.548   c-1.407,0-2.547,1.141-2.547,2.548c0,1.406,1.14,2.546,2.547,2.546C67.183,79.263,68.322,78.124,68.322,76.717z M73.505,83.796   c0-1.407-1.142-2.55-2.547-2.55c-1.41,0-2.55,1.143-2.55,2.55c0,1.407,1.14,2.545,2.55,2.545   C72.363,86.341,73.505,85.203,73.505,83.796z M73.505,69.248c0-1.407-1.142-2.545-2.547-2.545c-1.41,0-2.55,1.138-2.55,2.545   c0,1.407,1.14,2.549,2.55,2.549C72.363,71.797,73.505,70.655,73.505,69.248z M78.833,76.717c0-1.407-1.145-2.548-2.55-2.548   c-1.404,0-2.547,1.141-2.547,2.548c0,1.406,1.142,2.546,2.547,2.546C77.688,79.263,78.833,78.124,78.833,76.717z M84.013,83.796   c0-1.407-1.14-2.55-2.547-2.55c-1.407,0-2.547,1.143-2.547,2.55c0,1.407,1.14,2.545,2.547,2.545   C82.873,86.341,84.013,85.203,84.013,83.796z M84.013,69.248c0-1.407-1.14-2.545-2.547-2.545c-1.407,0-2.547,1.138-2.547,2.545   c0,1.407,1.14,2.549,2.547,2.549C82.873,71.797,84.013,70.655,84.013,69.248z M88.282,36.88H11.718v1.635h76.565V36.88z" />
  </g>
</svg>
