<svg xmlns="http://www.w3.org/2000/svg" xmlns:xlink="http://www.w3.org/1999/xlink" version="1.1" x="0px" y="0px" viewBox="0 0 100 125" enable-background="new 0 0 100 100" xml:space="preserve"><g><path d="M50,87.502c-6.341,0-11.5-5.159-11.5-11.5c0-1.657,1.343-3,3-3h17c1.657,0,3,1.343,3,3   C61.5,82.343,56.341,87.502,50,87.502z M45.392,79.002c0.983,1.504,2.682,2.5,4.608,2.5s3.625-0.996,4.607-2.5H45.392z"/></g><g><path d="M84.47,69.058c-0.005,0-0.012,0-0.02,0h-68.9c-1.01,0-1.952-0.508-2.507-1.353c-0.555-0.844-0.647-1.91-0.247-2.838   c2.235-5.17,7.302-9.661,14.374-12.783V40.498c0-8.224,4.492-15.846,11.572-19.861c1.09-5.248,5.73-9.139,11.258-9.139   c5.527,0,10.167,3.891,11.258,9.139c7.081,4.015,11.572,11.637,11.572,19.861v11.586c6.921,3.056,11.922,7.423,14.228,12.454   c0.262,0.445,0.412,0.965,0.412,1.52C87.47,67.715,86.127,69.058,84.47,69.058z M21.249,63.058h57.502   c-2.393-2.412-5.836-4.557-10.005-6.173c-1.155-0.447-1.916-1.559-1.916-2.797v-13.59c0-6.477-3.776-12.446-9.621-15.208   c-1.002-0.473-1.661-1.459-1.715-2.565c-0.145-2.931-2.558-5.227-5.494-5.227c-2.938,0-5.35,2.296-5.493,5.227   c-0.054,1.106-0.713,2.093-1.715,2.566c-5.845,2.761-9.622,8.73-9.622,15.208v13.59c0,1.238-0.761,2.35-1.916,2.797   C27.085,58.501,23.642,60.646,21.249,63.058z"/></g><text x="0" y="115" fill="#000000" font-size="5px" font-weight="bold" font-family="'Helvetica Neue', Helvetica, Arial-Unicode, Arial, Sans-serif">Created by ChangHoon Baek</text><text x="0" y="120" fill="#000000" font-size="5px" font-weight="bold" font-family="'Helvetica Neue', Helvetica, Arial-Unicode, Arial, Sans-serif">from the Noun Project</text></svg>