<?xml version="1.0" encoding="UTF-8" standalone="no"?>
<!DOCTYPE svg PUBLIC "-//W3C//DTD SVG 1.1//EN" "http://www.w3.org/Graphics/SVG/1.1/DTD/svg11.dtd">
<svg width="100%" height="100%" viewBox="0 0 48 48" version="1.1" xmlns="http://www.w3.org/2000/svg" xmlns:xlink="http://www.w3.org/1999/xlink" xml:space="preserve" style="fill-rule:evenodd;clip-rule:evenodd;stroke-linejoin:round;stroke-miterlimit:1.41421;">
    <g>
        <path d="M2.5,0.5L2.5,45.5L47.5,45.5L47.5,47.5L0.5,47.5L0.5,0.5L2.5,0.5ZM27.6,20.4C28.219,19.186 29.411,18.3 30.8,18.3C31.3,18.3 31.8,18.4 32.2,18.6L40.7,10C40.5,9.5 40.3,9 40.3,8.4C40.3,6.5 41.8,5 43.7,5C45.6,5 47,6.6 47,8.5C47,10.4 45.5,11.9 43.6,11.9C43,11.9 42.5,11.7 42,11.5L33.6,20C33.9,20.5 34.1,21.1 34.1,21.8C34.1,23.7 32.6,25.2 30.7,25.2C29,25.2 27.6,24.1 27.3,22.5L20.8,22.5C20.4,24 19.1,25.2 17.4,25.2C17.1,25.2 16.9,25.2 16.6,25.1L11.1,36.1C11.8,36.8 12.2,37.6 12.2,38.6C12.2,40.5 10.7,42 8.8,42C6.9,42 5.4,40.5 5.4,38.5C5.4,36.6 6.9,35.1 8.8,35.1C8.9,35.1 9.1,35.2 9.3,35.2L15,24C14.4,23.4 14.1,22.6 14.1,21.7C14.1,19.8 15.6,18.3 17.5,18.3C19,18.3 20.2,19.2 20.7,20.4L27.6,20.4Z" style="fill:black;"/>
    </g>
</svg>
