<svg xmlns:dc="http://purl.org/dc/elements/1.1/" xmlns:cc="http://creativecommons.org/ns#" xmlns:rdf="http://www.w3.org/1999/02/22-rdf-syntax-ns#" xmlns:svg="http://www.w3.org/2000/svg" xmlns="http://www.w3.org/2000/svg" xmlns:sodipodi="http://sodipodi.sourceforge.net/DTD/sodipodi-0.dtd" xmlns:inkscape="http://www.inkscape.org/namespaces/inkscape" version="1.1" x="0px" y="0px" viewBox="0 0 100 100">
  <g transform="translate(0,-952.36218)">
    <path style="text-indent:0;text-transform:none;direction:ltr;block-progression:tb;baseline-shift:baseline;color:#000000;enable-background:accumulate;" d="m 12.000002,968.36216 c -3.2894,0 -6,2.71058 -6,6 l 0,56.00004 c 0,3.2894 2.7106,6 6,6 l 75.999996,0 c 3.2894,0 6,-2.7106 6,-6 l 0,-56.00004 c 0,-3.28942 -2.7106,-6 -6,-6 l -75.999996,0 z m 0,4 22.0625,0 7.8437,10 -31.9062,0 0,-8 c 0,-1.1426 0.8574,-2 2,-2 z m 27.125,0 48.874996,0 c 1.1426,0 2,0.8574 2,2 l 0,8 -43.031196,0 -7.8438,-10 z m -24.125,3 c -1.1046,0 -2,0.89543 -2,2 0,1.10457 0.8954,2 2,2 1.1046,0 2,-0.89543 2,-2 0,-1.10457 -0.8954,-2 -2,-2 z m 7,0 c -1.1046,0 -2,0.89543 -2,2 0,1.10457 0.8954,2 2,2 1.1046,0 2,-0.89543 2,-2 0,-1.10457 -0.8954,-2 -2,-2 z m 7,0 c -1.1046,0 -2,0.89543 -2,2 0,1.10457 0.8954,2 2,2 1.1046,0 2,-0.89543 2,-2 0,-1.10457 -0.8954,-2 -2,-2 z m -19,11 79.999996,0 0,44.00004 c 0,1.1426 -0.8574,2 -2,2 l -75.999996,0 c -1.1426,0 -2,-0.8574 -2,-2 l 0,-44.00004 z m 40,1 c -12.1266,0 -22,9.8735 -22,22.00004 0,12.1266 9.8734,22 22,22 12.1266,0 21.999996,-9.8734 21.999996,-22 0,-12.12654 -9.873396,-22.00004 -21.999996,-22.00004 z m -2,4.15625 0,6.84375 -5.3125,0 c 0.2813,-0.8213 0.5693,-1.58895 0.9063,-2.28125 1.3025,-2.6764 2.8245,-4.13 4.4062,-4.5625 z m 4,0 c 1.5817,0.4325 3.1035,1.8861 4.4062,4.5625 0.3369,0.6923 0.625,1.45995 0.9063,2.28125 l -5.3125,0 0,-6.84375 z m -12.0625,2.90625 c -0.5774,1.2014 -1.0554,2.5309 -1.4687,3.9375 l -2.7188,0 c 1.1742,-1.5202 2.5919,-2.8609 4.1875,-3.9375 z m 20.125,0 c 1.5956,1.0766 3.0133,2.4173 4.1875,3.9375 l -2.7188,0 c -0.4135,-1.4066 -0.8913,-2.7361 -1.4687,-3.9375 z m -26.6563,7.93754 4.1563,0 c -0.2639,1.591 -0.4248,3.2761 -0.5,5 l -4.9375,0 c 0.1927,-1.7504 0.6257,-3.4393 1.2812,-5 z m 8.25,0 6.3438,0 0,5 -6.9688,0 c 0.087,-1.7536 0.332,-3.4372 0.625,-5 z m 10.3438,0 6.3438,0 c 0.2928,1.5628 0.5378,3.2464 0.625,5 l -6.9688,0 0,-5 z m 10.4375,0 4.1563,0 c 0.6554,1.5607 1.0885,3.2496 1.2812,5 l -4.9375,0 c -0.075,-1.7239 -0.2361,-3.409 -0.5,-5 z m -30.3125,9 4.9375,0 c 0.076,1.733 0.2332,3.4045 0.5,5 l -4.1563,0 c -0.6554,-1.5607 -1.0885,-3.2496 -1.2812,-5 z m 8.9062,0 6.9688,0 0,5 -6.3438,0 c -0.2953,-1.5641 -0.5374,-3.2402 -0.625,-5 z m 10.9688,0 6.9688,0 c -0.088,1.7598 -0.3297,3.4359 -0.625,5 l -6.3438,0 0,-5 z m 10.9375,0 4.9375,0 c -0.1927,1.7504 -0.6258,3.4393 -1.2812,5 l -4.1563,0 c 0.2668,-1.5955 0.4244,-3.267 0.5,-5 z m -27.1875,9 2.7188,0 c 0.4209,1.425 0.941,2.7522 1.5312,3.9687 -1.6194,-1.0835 -3.0616,-2.4301 -4.25,-3.9687 z m 6.9375,0 5.3125,0 0,6.8437 c -1.5817,-0.4398 -3.1037,-1.9172 -4.4062,-4.5937 -0.3331,-0.6843 -0.6276,-1.4418 -0.9063,-2.25 z m 9.3125,0 5.3125,0 c -0.2787,0.8082 -0.5732,1.5657 -0.9063,2.25 -1.3027,2.6765 -2.8245,4.1539 -4.4062,4.5937 l 0,-6.8437 z m 9.5312,0 2.7188,0 c -1.1884,1.5386 -2.6306,2.8852 -4.25,3.9687 0.5902,-1.2165 1.1102,-2.5437 1.5312,-3.9687 z" fill="#000000" fill-opacity="1" stroke="none" marker="none" visibility="visible" display="inline" overflow="visible" />
  </g>
</svg>
