<?xml version="1.0" encoding="utf-8"?>
<!-- Generator: Adobe Illustrator 19.2.0, SVG Export Plug-In . SVG Version: 6.00 Build 0)  -->
<!DOCTYPE svg PUBLIC "-//W3C//DTD SVG 1.1//EN" "http://www.w3.org/Graphics/SVG/1.1/DTD/svg11.dtd">
<svg version="1.1" id="Layer_1" xmlns="http://www.w3.org/2000/svg" xmlns:xlink="http://www.w3.org/1999/xlink" x="0px" y="0px"
	 viewBox="0 0 42 35.3" style="enable-background:new 0 0 42 35.3;" xml:space="preserve">
<style type="text/css">
	.st0{fill:#434343;}
</style>
<g>
	<path class="st0" d="M33.4,15.2c0-2.4-1.7-4.5-4-4.9V1c0-0.3-0.2-0.7-0.5-0.8c-0.3-0.2-0.6-0.2-0.9-0.1L5.7,10.9H1
		c-0.6,0-1,0.4-1,1v9.5c0,0.6,0.4,1,1,1h4v12.2c0,0.6,0.4,0.7,0.9,0.7h2.8c1.7,0,3.3-1.1,3.3-2.8v-7.9l16,5.7c0.1,0,0.2,0,0.3,0
		c0.2,0,0.4-0.1,0.6-0.2c0.3-0.2,0.4-0.5,0.4-0.8v-9.2C31.6,19.7,33.4,17.7,33.4,15.2z M7,20.6v-8.1l3.1-1.5v10.7L7,20.6z M2,12.9h3
		v7.5H2V12.9z M10,32.5c0,0.6-0.7,0.8-1.3,0.8H7V22.8l3,1.1V32.5z M27.3,28L12,22.5V10.1l15.3-7.6V28z M29.3,18.1v-5.7
		c1.2,0.4,2,1.5,2,2.9C31.4,16.5,30.5,17.7,29.3,18.1z"/>
	<g>
		<rect x="37" y="14.2" class="st0" width="5" height="2"/>
		<rect x="33.3" y="5" transform="matrix(0.7071 -0.7071 0.7071 0.7071 6.2388 27.0391)" class="st0" width="5" height="2"/>
		<rect x="33.3" y="23.5" transform="matrix(0.7071 0.7071 -0.7071 0.7071 27.7534 -18.1274)" class="st0" width="5" height="2"/>
	</g>
</g>
</svg>
