<?xml version="1.0" encoding="UTF-8" standalone="no"?>
<!DOCTYPE svg PUBLIC "-//W3C//DTD SVG 1.1//EN" "http://www.w3.org/Graphics/SVG/1.1/DTD/svg11.dtd">
<svg width="100%" height="100%" viewBox="0 0 60 40" version="1.1" xmlns="http://www.w3.org/2000/svg" xmlns:xlink="http://www.w3.org/1999/xlink" xml:space="preserve" style="fill-rule:evenodd;clip-rule:evenodd;stroke-linejoin:round;stroke-miterlimit:1.41421;">
    <g transform="matrix(0.696236,0,0,0.696236,0.102481,4.9305)">
        <path d="M78.372,19.29L85.11,19.29L85.895,15.206L79.158,15.206L80.305,9.232L80.283,9.232L75.173,13.205L74.789,15.205L69.496,15.205L71.042,7.157C71.406,4.12 76.072,5.04 76.767,5.211L77.514,1.333C69.122,-1.863 66.674,7.158 66.674,7.158L65.127,15.208L65.1,15.208L59.845,19.292L64.343,19.292L59.403,45L63.771,45L68.711,19.29L74.005,19.29L72.07,29.356C70.84,36.682 78.243,35.879 80.606,35.408L81.346,31.572C75.692,32.838 76.438,29.357 76.438,29.357L78.372,19.293L78.372,19.29ZM52.53,29.843C47.984,34.467 45.072,31.44 45.072,31.44C43.102,29.537 45.28,27.583 45.28,27.583C48.288,24.86 52.89,27.853 52.89,27.853L52.53,29.843ZM53.535,24.267C53.535,24.267 47.275,21.082 42.895,24.627C42.895,24.627 40.328,26.325 40.328,29.717C40.328,33.11 43.465,34.933 43.465,34.933C43.465,34.933 48.183,37.401 51.878,33.457L51.471,35.292L55.603,35.292L58.2,23.082C60.148,11.035 45.666,15.305 45.666,15.305L44.876,19.635C55.552,15.023 53.756,23.06 53.756,23.06L53.536,24.267L53.535,24.267ZM41.966,15.22C38.596,15.254 35.534,17.117 35.534,17.117L35.924,15.289L31.881,15.289L28.191,35.329L32.324,35.329L34.826,22.144C36.676,18.42 41.246,19.578 41.246,19.578L41.966,15.218L41.966,15.22ZM26.198,6.63C26.408,6.787 26.606,6.953 26.8,7.122L29.936,4.682L30.034,4.556C29.549,4.068 29.03,3.616 28.48,3.203C21.283,-2.182 10.407,0.072 4.188,8.238C-2.027,16.403 -1.232,27.385 5.964,32.772C11.841,37.168 20.168,36.47 26.411,31.622L26.406,31.61L23.42,29.29C18.793,32.238 13.054,32.45 8.902,29.344C3.372,25.208 2.762,16.77 7.539,10.498C12.314,4.225 20.669,2.494 26.197,6.63" style="fill:black;"/>
    </g>
</svg>
