<?xml version="1.0" encoding="UTF-8" standalone="no"?>
<!DOCTYPE svg PUBLIC "-//W3C//DTD SVG 1.1//EN" "http://www.w3.org/Graphics/SVG/1.1/DTD/svg11.dtd">
<svg width="100%" height="100%" viewBox="0 0 58 58" version="1.1" xmlns="http://www.w3.org/2000/svg" xmlns:xlink="http://www.w3.org/1999/xlink" xml:space="preserve" style="fill-rule:evenodd;clip-rule:evenodd;stroke-linejoin:round;stroke-miterlimit:1.41421;">
    <g transform="matrix(0.968371,0,0,0.968371,1.68141,0.590928)">
        <g>
            <path d="M42.297,56.298L42.201,56.298L42.201,34.631C42.201,33.527 41.467,32.631 40.558,32.631L32.755,32.631C31.849,32.631 31.112,33.527 31.112,34.631L31.112,56.298L27.376,56.298L27.376,24.631C27.376,23.527 26.64,22.631 25.733,22.631L17.93,22.631C17.023,22.631 16.287,23.527 16.287,24.631L16.287,56.298L12.55,56.298L12.55,14.631C12.55,13.527 11.816,12.631 10.907,12.631L3.106,12.631C2.2,12.631 1.463,13.527 1.463,14.631L1.463,56.298L1.368,56.298C0.612,56.298 0,56.839 0,57.507C0,58.173 0.612,58.714 1.368,58.714L42.297,58.714C43.053,58.714 43.666,58.173 43.666,57.507C43.667,56.839 43.053,56.298 42.297,56.298ZM56.661,29.365L44.678,17.296C47.647,12.996 47.223,7.06 43.395,3.232C39.084,-1.077 32.102,-1.077 27.791,3.232C23.482,7.543 23.482,14.527 27.791,18.836C31.619,22.664 37.555,23.09 41.855,20.117L53.841,32.185C54.618,32.964 55.882,32.966 56.659,32.185C57.44,31.408 57.44,30.144 56.661,29.365ZM41.28,16.72C38.135,19.855 33.051,19.855 29.907,16.72C26.773,13.575 26.773,8.493 29.907,5.348C33.052,2.214 38.134,2.214 41.278,5.348C44.415,8.494 44.415,13.575 41.28,16.72Z" style="fill:black;fill-rule:nonzero;"/>
        </g>
    </g>
</svg>
