<svg xmlns="http://www.w3.org/2000/svg" xmlns:xlink="http://www.w3.org/1999/xlink" version="1.1" x="0px" y="0px" viewBox="0 0 90 112.5" enable-background="new 0 0 90 90" xml:space="preserve"><path d="M55.822,26.006H4.386c-1.052,0-1.905,0.853-1.905,1.906v34.061c0,1.053,0.853,1.906,1.905,1.906h19.319v5.034h-5.893  c-2.294,0-4.154,1.859-4.154,4.154h32.895c0-2.295-1.86-4.154-4.155-4.154h-5.893v-5.034h19.318c1.053,0,1.906-0.854,1.906-1.906  V27.912C57.729,26.859,56.875,26.006,55.822,26.006z M52.688,57.262c0,0.761-0.697,1.378-1.559,1.378H9.078  c-0.86,0-1.558-0.617-1.558-1.378V32.624c0-0.762,0.698-1.378,1.558-1.378H51.13c0.861,0,1.559,0.617,1.559,1.378V57.262z"/><path d="M85.246,16.934H64.442c-1.255,0-2.272,1.018-2.272,2.273v51.382c0,1.256,1.018,2.273,2.272,2.273h20.804  c1.256,0,2.273-1.018,2.273-2.273V19.207C87.52,17.951,86.502,16.934,85.246,16.934z M74.845,66.703  c-1.476,0-2.672-1.196-2.672-2.672s1.196-2.672,2.672-2.672s2.672,1.196,2.672,2.672S76.32,66.703,74.845,66.703z M83.699,52.073  H65.99v-5.378h17.709V52.073z M83.699,43.477H65.99V38.1h17.709V43.477z M83.699,34.881H65.99v-5.377h17.709V34.881z"/><text x="0" y="105" fill="#000000" font-size="5px" font-weight="bold" font-family="'Helvetica Neue', Helvetica, Arial-Unicode, Arial, Sans-serif">Created by Yazmin Alanis</text><text x="0" y="110" fill="#000000" font-size="5px" font-weight="bold" font-family="'Helvetica Neue', Helvetica, Arial-Unicode, Arial, Sans-serif">from the Noun Project</text></svg>