<svg xmlns="http://www.w3.org/2000/svg" xmlns:xlink="http://www.w3.org/1999/xlink" version="1.1" x="0px" y="0px" viewBox="0 0 100 162.5" enable-background="new 0 0 100 130" xml:space="preserve"><g><path fill="none" d="M81.539,27.432l12.172,0.008L78.938,8.776v16.056C78.938,26.268,80.104,27.432,81.539,27.432z"/><path fill="none" d="M78.418,30.552c-1.436,0-2.6-1.164-2.6-2.6V4.833V3.106H5.327C3.765,3.106,2.5,4.371,2.5,5.93v0.001v99.653   v18.485c0,1.56,1.267,2.825,2.827,2.825h15.9h73.446c1.561,0,2.826-1.266,2.826-2.825V30.552h-1.326H78.418z M17.25,25.25   c0-1.38,1.119-2.5,2.5-2.5h25.5c1.381,0,2.5,1.12,2.5,2.5V26c0,1.381-1.119,2.5-2.5,2.5h-25.5c-1.381,0-2.5-1.119-2.5-2.5V25.25z    M82.75,104.75c0,1.381-1.119,2.5-2.5,2.5h-60.5c-1.381,0-2.5-1.119-2.5-2.5V104c0-1.381,1.119-2.5,2.5-2.5h60.5   c1.381,0,2.5,1.119,2.5,2.5V104.75z M82.75,89c0,1.381-1.119,2.5-2.5,2.5h-60.5c-1.381,0-2.5-1.119-2.5-2.5v-0.75   c0-1.381,1.119-2.5,2.5-2.5h60.5c1.381,0,2.5,1.119,2.5,2.5V89z M82.75,73.25c0,1.381-1.119,2.5-2.5,2.5h-60.5   c-1.381,0-2.5-1.119-2.5-2.5V72.5c0-1.381,1.119-2.5,2.5-2.5h60.5c1.381,0,2.5,1.119,2.5,2.5V73.25z M82.75,57.5   c0,1.381-1.119,2.5-2.5,2.5h-60.5c-1.381,0-2.5-1.119-2.5-2.5v-0.75c0-1.38,1.119-2.5,2.5-2.5h60.5c1.381,0,2.5,1.12,2.5,2.5V57.5z    M82.75,41.75c0,1.381-1.119,2.5-2.5,2.5h-60.5c-1.381,0-2.5-1.119-2.5-2.5V41c0-1.38,1.119-2.5,2.5-2.5h60.5   c1.381,0,2.5,1.12,2.5,2.5V41.75z"/><path d="M80.25,38.5h-60.5c-1.381,0-2.5,1.12-2.5,2.5v0.75c0,1.381,1.119,2.5,2.5,2.5h60.5c1.381,0,2.5-1.119,2.5-2.5V41   C82.75,39.62,81.631,38.5,80.25,38.5z"/><path d="M19.75,28.5h25.5c1.381,0,2.5-1.119,2.5-2.5v-0.75c0-1.38-1.119-2.5-2.5-2.5h-25.5c-1.381,0-2.5,1.12-2.5,2.5V26   C17.25,27.381,18.369,28.5,19.75,28.5z"/><path d="M80.25,54.25h-60.5c-1.381,0-2.5,1.12-2.5,2.5v0.75c0,1.381,1.119,2.5,2.5,2.5h60.5c1.381,0,2.5-1.119,2.5-2.5v-0.75   C82.75,55.37,81.631,54.25,80.25,54.25z"/><path d="M80.25,70h-60.5c-1.381,0-2.5,1.119-2.5,2.5v0.75c0,1.381,1.119,2.5,2.5,2.5h60.5c1.381,0,2.5-1.119,2.5-2.5V72.5   C82.75,71.119,81.631,70,80.25,70z"/><path d="M80.25,85.75h-60.5c-1.381,0-2.5,1.119-2.5,2.5V89c0,1.381,1.119,2.5,2.5,2.5h60.5c1.381,0,2.5-1.119,2.5-2.5v-0.75   C82.75,86.869,81.631,85.75,80.25,85.75z"/><path d="M80.25,101.5h-60.5c-1.381,0-2.5,1.119-2.5,2.5v0.75c0,1.381,1.119,2.5,2.5,2.5h60.5c1.381,0,2.5-1.119,2.5-2.5V104   C82.75,102.619,81.631,101.5,80.25,101.5z"/><path d="M97.539,27.442L97.5,27.394L78.938,3.942l-0.661-0.836L75.818,0H2.976C1.332,0,0,1.328,0,2.967v0.001v104.654v19.41   C0,128.672,1.333,130,2.976,130h16.738h77.31c1.644,0,2.977-1.328,2.977-2.968v-96.48L97.539,27.442z M78.938,8.776L93.711,27.44   l-12.172-0.008c-1.436,0-2.602-1.164-2.602-2.6V8.776z M97.5,124.069c0,1.56-1.266,2.825-2.826,2.825H21.228h-15.9   c-1.56,0-2.827-1.266-2.827-2.825v-18.485V5.931V5.93c0-1.559,1.265-2.824,2.827-2.824h70.491v1.728v23.119   c0,1.436,1.164,2.6,2.6,2.6h17.756H97.5V124.069z"/></g><text x="0" y="145" fill="#000000" font-size="5px" font-weight="bold" font-family="'Helvetica Neue', Helvetica, Arial-Unicode, Arial, Sans-serif">Created by Wilson Joseph</text><text x="0" y="150" fill="#000000" font-size="5px" font-weight="bold" font-family="'Helvetica Neue', Helvetica, Arial-Unicode, Arial, Sans-serif">from the Noun Project</text></svg>