<?xml version="1.0" encoding="UTF-8" standalone="no"?>
<!DOCTYPE svg PUBLIC "-//W3C//DTD SVG 1.1//EN" "http://www.w3.org/Graphics/SVG/1.1/DTD/svg11.dtd">
<svg width="100%" height="100%" viewBox="0 0 54 54" version="1.1" xmlns="http://www.w3.org/2000/svg" xmlns:xlink="http://www.w3.org/1999/xlink" xml:space="preserve" style="fill-rule:evenodd;clip-rule:evenodd;stroke-linejoin:round;stroke-miterlimit:1.41421;">
    <g>
        <path d="M41.824,0C48.547,0.009 54,5.467 54,12.176L54,41.824C54,48.533 48.547,53.991 41.824,54L12.176,54C5.462,54 0,48.538 0,41.824L0,12.176C0,5.467 5.453,0.009 12.176,0L41.824,0ZM41.824,2L12.176,2C6.557,2.007 2,6.569 2,12.176L2,41.824C2,47.435 6.564,52 12.176,52L41.824,52C47.443,51.993 52,47.431 52,41.824L52,12.176C52,6.569 47.443,2.007 41.824,2ZM12.721,11.96C15.739,11.962 18.035,12.788 19.62,14.44C21.207,16.094 22,18.294 22,21.04L22,32C22,37.33 19.178,39.996 13.52,40L5.2,40L5.2,11.96L12.721,11.96ZM31.12,36.04L35.24,19.96L38.08,19.96L42.2,36.04L46.92,19.96L50,19.96L43.721,40L40.28,40L36.601,25.44L32.88,40L29.44,40L23.2,19.96L26.28,19.96L31.12,36.04ZM13.119,14.72L8.079,14.72L8.079,37.4L12.879,37.4C15.846,37.397 17.735,36.61 18.56,35.04C18.931,34.349 19.118,33.474 19.12,32.4L19.119,32.4L19.119,20.64C19.119,18.64 18.539,17.154 17.379,16.18C16.223,15.209 14.807,14.722 13.119,14.72Z" style="fill:black;"/>
    </g>
</svg>
