<svg xmlns="http://www.w3.org/2000/svg" xmlns:xlink="http://www.w3.org/1999/xlink" version="1.1" x="0px" y="0px" viewBox="0 0 100 100" enable-background="new 0 0 100 100" xml:space="preserve"><path d="M92.774,46.934c-0.001-0.146-0.011-0.293-0.033-0.477c-0.017-0.134-0.04-0.267-0.076-0.425  c-0.438-1.908-2.112-3.24-4.069-3.24c-1.958,0-3.632,1.332-4.072,3.24c-0.033,0.144-0.06,0.291-0.082,0.468  c-0.017,0.153-0.028,0.308-0.028,0.479c0,0.158,0.012,0.314,0.032,0.494c0.019,0.148,0.045,0.294,0.078,0.439  c0.44,1.908,2.114,3.24,4.072,3.24c1.957,0,3.63-1.333,4.07-3.24c0.002-0.008,0.004-0.016,0.005-0.024  c0.029-0.131,0.054-0.267,0.077-0.445c0.017-0.153,0.027-0.307,0.02-0.37c0.006-0.032,0.009-0.069,0.009-0.102  C92.776,46.958,92.775,46.946,92.774,46.934z M91.508,46.972c0,0.002,0,0.005,0,0.008c0,0.108-0.007,0.214-0.022,0.344  c-0.013,0.097-0.029,0.191-0.05,0.282c-0.002,0.007-0.003,0.014-0.005,0.021c-0.306,1.33-1.472,2.258-2.835,2.258  c-1.364,0-2.531-0.929-2.838-2.258c-0.023-0.102-0.042-0.204-0.058-0.327c-0.012-0.104-0.02-0.212-0.02-0.336  c0-0.109,0.008-0.216,0.022-0.337c0.013-0.105,0.031-0.208,0.055-0.31c0.307-1.33,1.474-2.258,2.838-2.258  c1.358,0,2.521,0.922,2.833,2.244c0.001,0.005,0.002,0.011,0.003,0.017c0.022,0.098,0.04,0.199,0.057,0.323  c0.013,0.106,0.02,0.213,0.02,0.322C91.508,46.966,91.508,46.969,91.508,46.972z"></path><path d="M90.252,60.831h-2.106l-5.271-11.96c-0.02-0.044-0.053-0.076-0.08-0.113c0.009-0.128,0.02-0.255,0.02-0.385  c0-3.254-2.648-5.901-5.902-5.901c-0.064,0-0.129,0.01-0.19,0.029l-9.603,3.032c-0.596-1.634-2.13-2.741-3.91-2.741  c-1.957,0-3.631,1.332-4.071,3.236c-0.035,0.146-0.061,0.293-0.082,0.472c-0.017,0.153-0.028,0.308-0.028,0.479  c0,0.158,0.012,0.314,0.031,0.493c0.019,0.151,0.044,0.298,0.078,0.439c0.441,1.908,2.115,3.24,4.072,3.24  c1.086,0,2.125-0.436,2.897-1.18l0.017,0.014v3.488l-2.925,5.107l-1.331,0.224l-4.34-9.847c-0.014-0.032-0.039-0.054-0.058-0.082  c0.014-0.167,0.025-0.333,0.025-0.503c0-3.254-2.648-5.901-5.902-5.901c-0.064,0-0.129,0.01-0.19,0.029l-9.603,3.032  c-0.596-1.634-2.13-2.741-3.91-2.741c-1.958,0-3.633,1.332-4.073,3.24c-0.034,0.146-0.06,0.294-0.081,0.472  c-0.016,0.152-0.027,0.305-0.027,0.475c0,0.157,0.011,0.311,0.03,0.489c0.018,0.15,0.044,0.297,0.078,0.444  c0.44,1.908,2.115,3.24,4.073,3.24c1.085,0,2.124-0.435,2.897-1.179l0.016,0.014v3.372l-2.992,5.224l-1.347,0.227l-4.304-9.763  c-0.024-0.054-0.063-0.096-0.098-0.14c0.016-0.176,0.027-0.353,0.027-0.533c0-3.254-2.647-5.901-5.902-5.901  c-0.064,0-0.129,0.01-0.191,0.029l-10.155,3.206c-0.263,0.083-0.442,0.328-0.442,0.604v7.043l-2.993,5.228l-3.835,0.646  c-0.199,0.034-0.37,0.16-0.46,0.34L7.293,61.18c-0.158,0.312-0.032,0.693,0.28,0.851c0.092,0.046,0.189,0.068,0.285,0.068  c0.231,0,0.455-0.128,0.566-0.349l0.67-1.327l3.815-0.642c0.188-0.032,0.351-0.146,0.445-0.311l2.975-5.195h4.308l-1.418,6.353  l-4.075-1.449c-0.3-0.11-0.634,0.025-0.778,0.312l-0.814,1.613c-0.158,0.312-0.032,0.693,0.28,0.851  c0.313,0.157,0.694,0.032,0.851-0.28l0.563-1.114l4.224,1.502c0.069,0.024,0.141,0.037,0.212,0.037c0.106,0,0.211-0.027,0.306-0.079  c0.159-0.088,0.272-0.239,0.312-0.417l1.636-7.327h4.251c0.424,0,0.837-0.047,1.236-0.133l1.745,7.467  c0.067,0.286,0.322,0.489,0.617,0.489h3.463c0.003,0,0.006-0.002,0.01-0.002c0.003,0,0.005,0.002,0.008,0.002  c0.017,0,0.031-0.012,0.048-0.014c0.077-0.008,0.149-0.026,0.215-0.06c0.048-0.022,0.087-0.053,0.128-0.087  c0.028-0.024,0.052-0.052,0.076-0.081c0.032-0.037,0.075-0.061,0.099-0.106l0.671-1.328l1.2-0.202l0.661,1.5  c0.101,0.229,0.329,0.378,0.58,0.378h2.562c0.284,0,0.515-0.19,0.596-0.448l0.553-1.091l4.224,1.502  c0.069,0.024,0.141,0.037,0.212,0.037c0.106,0,0.211-0.027,0.306-0.079c0.159-0.088,0.272-0.239,0.312-0.417l1.636-7.327h4.251  c0.424,0,0.837-0.047,1.235-0.133l1.745,7.467c0.067,0.286,0.323,0.489,0.617,0.489h3.463c0.108,0,0.205-0.034,0.295-0.082  c0.023-0.013,0.042-0.028,0.064-0.044c0.072-0.051,0.131-0.113,0.176-0.189c0.008-0.013,0.023-0.019,0.03-0.032l0.671-1.328  l1.215-0.204l0.662,1.502c0.102,0.229,0.329,0.378,0.58,0.378h2.563c0.306,0,0.549-0.222,0.608-0.509l0.521-1.03l4.224,1.502  c0.068,0.024,0.141,0.037,0.212,0.037c0.106,0,0.212-0.027,0.307-0.079c0.158-0.088,0.271-0.239,0.312-0.417l1.637-7.327h4.183  c0.446,0,0.88-0.055,1.299-0.148l1.749,7.482c0.067,0.286,0.323,0.489,0.617,0.489h2.574c0.35,0,0.634-0.284,0.634-0.634  s-0.284-0.634-0.634-0.634h-2.072l-1.664-7.121c1.289-0.606,2.324-1.662,2.899-2.969l4.839,10.979  c0.102,0.229,0.329,0.378,0.58,0.378h2.52c0.35,0,0.634-0.284,0.634-0.634S90.602,60.831,90.252,60.831z M63.208,49.884  c-1.363,0-2.53-0.929-2.839-2.262c-0.023-0.101-0.041-0.202-0.056-0.322c-0.012-0.104-0.02-0.212-0.02-0.336  c0-0.109,0.008-0.216,0.021-0.338c0.013-0.103,0.03-0.205,0.055-0.31c0.308-1.33,1.475-2.258,2.838-2.258  c1.23,0,2.295,0.76,2.717,1.885l-2.103,0.78c-0.209,0.078-0.361,0.259-0.402,0.479c-0.04,0.22,0.037,0.444,0.205,0.591l1.523,1.337  C64.619,49.61,63.941,49.884,63.208,49.884z M37.889,49.884c-1.365,0-2.532-0.929-2.839-2.258c-0.023-0.1-0.042-0.201-0.056-0.322  c-0.011-0.106-0.02-0.215-0.02-0.341c0-0.11,0.009-0.219,0.022-0.342c0.012-0.104,0.03-0.206,0.053-0.305  c0.307-1.33,1.474-2.258,2.839-2.258c1.231,0,2.294,0.76,2.717,1.885l-2.104,0.781c-0.209,0.078-0.362,0.259-0.402,0.479  c-0.041,0.22,0.038,0.444,0.205,0.591l1.523,1.338C39.299,49.61,38.622,49.884,37.889,49.884z M26.185,53.008h-9.522v-6.233  l9.617-3.036c2.512,0.051,4.541,2.11,4.541,4.633c0,1.779-1.019,3.31-2.493,4.086l-0.884-3.784  c-0.081-0.341-0.422-0.552-0.761-0.473c-0.341,0.08-0.552,0.42-0.473,0.761l0.922,3.947C26.826,52.973,26.509,53.008,26.185,53.008z   M33.974,59.227c-0.199,0.034-0.37,0.159-0.46,0.339l-0.64,1.266h-2.589l-1.658-7.092c1.293-0.591,2.335-1.634,2.925-2.928  l3.62,8.213L33.974,59.227z M44.625,60.628l-4.075-1.449c-0.301-0.11-0.633,0.026-0.777,0.311l-0.679,1.342h-1.739l-0.364-0.827  l1.326-0.223c0.187-0.032,0.351-0.146,0.445-0.311l2.976-5.195h4.308L44.625,60.628z M51.592,53.008h-9.524v-3.309  c0-0.182-0.079-0.355-0.215-0.476l-1.915-1.682l1.687-0.627l10.062-3.176c2.512,0.051,4.54,2.11,4.54,4.633  c0,1.779-1.018,3.309-2.492,4.086l-0.884-3.784c-0.08-0.341-0.42-0.551-0.762-0.473c-0.34,0.08-0.552,0.42-0.473,0.761l0.923,3.947  C52.232,52.973,51.916,53.008,51.592,53.008z M59.362,59.227c-0.198,0.034-0.369,0.159-0.46,0.339l-0.64,1.266h-2.571l-1.657-7.092  c1.293-0.591,2.334-1.633,2.925-2.926l3.617,8.209L59.362,59.227z M70.012,60.628l-4.075-1.449c-0.3-0.11-0.634,0.027-0.777,0.311  l-0.679,1.342h-1.722l-0.365-0.829l1.31-0.221c0.187-0.032,0.35-0.146,0.444-0.311l2.976-5.195h4.308L70.012,60.628z M79.114,52.426  l-0.877-3.751c-0.08-0.341-0.422-0.551-0.762-0.473c-0.34,0.08-0.552,0.42-0.473,0.761l0.918,3.927  c-0.326,0.073-0.662,0.118-1.01,0.118H67.39v-3.309c0-0.182-0.079-0.356-0.216-0.476l-1.915-1.682l1.688-0.627l10.06-3.176  c2.512,0.051,4.54,2.11,4.54,4.633C81.546,50.127,80.555,51.639,79.114,52.426z"></path></svg>