<svg xmlns="http://www.w3.org/2000/svg" xmlns:xlink="http://www.w3.org/1999/xlink" version="1.1" x="0px" y="0px" viewBox="0 2 100 95.9" enable-background="new 0 2 100 95.9" xml:space="preserve">
  <g>
    <path d="M99.8,82.2c-1-7.4-6-11.6-13.7-12.5c2.1-4,3.6-8,1.5-13.5c-1.4-3.8-5.1-6.7-11-8.3c1.7-3.4,2.6-7.3-0.2-11   c-3-3.9-7.4-5.2-11.9-5c2.1-4.9,1.8-10.1-3.4-15.3c-5.4-6.1-12.7-12-22.6-14.5c-1.7-0.4,0.1,1.7,1,5c1,3.4-1.7,6-2.7,7.2   c-3.4,4.1-4.3,7.5-1.5,11.4c-5.4,1.2-9.1,3.6-11.5,7.4c-3,4.9-3.1,9.7-0.7,14.9c-5.4,1-9.2,3.4-11,7.9c-2,5.3-1.2,9.8,1.8,13.7   C3.8,72.2-0.8,78,0.1,86.8C1,95.9,6.8,98.4,16.4,97.1c10.1-2.4,19.9-2.2,29.4-0.3c13.9,1.2,27.8,1.9,41.5-0.3   C95.3,95.2,101,91,99.8,82.2z" />
  </g>
</svg>
