<svg xmlns="http://www.w3.org/2000/svg" xmlns:xlink="http://www.w3.org/1999/xlink" version="1.2" baseProfile="tiny" x="0px" y="0px" viewBox="0 0 100 100" xml:space="preserve">
  <path fill="#000000" d="M70.625,36.875h-41.25c-4.142,0-7.5,3.358-7.5,7.5v11.25c0,4.142,3.358,7.5,7.5,7.5h41.25  c4.142,0,7.5-3.358,7.5-7.5v-11.25C78.125,40.233,74.767,36.875,70.625,36.875z M72.5,55.625c0,1.034-0.841,1.875-1.875,1.875  h-41.25c-1.034,0-1.875-0.841-1.875-1.875v-11.25c0-1.034,0.841-1.875,1.875-1.875h41.25c1.034,0,1.875,0.841,1.875,1.875V55.625z" />
  <path fill="#000000" d="M11.174,86.174l2.651,2.651l6.951-6.951l-6.951-6.951l-2.651,2.651L13.598,80H8.75V20h13.125v3.75  c0,4.142,3.358,7.5,7.5,7.5h41.25c4.142,0,7.5-3.358,7.5-7.5V12.5c0-4.142-3.358-7.5-7.5-7.5h-41.25c-4.142,0-7.5,3.358-7.5,7.5  v3.75H5v67.5h8.598L11.174,86.174z M27.5,12.5c0-1.034,0.841-1.875,1.875-1.875h41.25c1.034,0,1.875,0.841,1.875,1.875v11.25  c0,1.034-0.841,1.875-1.875,1.875h-41.25c-1.034,0-1.875-0.841-1.875-1.875V12.5z" />
  <path fill="#000000" d="M88.826,45.701l-2.651-2.651L79.223,50l6.951,6.951l2.651-2.651l-2.424-2.424h4.848V80H78.125v-3.75  c0-4.142-3.358-7.5-7.5-7.5h-41.25c-4.142,0-7.5,3.358-7.5,7.5V87.5c0,4.142,3.358,7.5,7.5,7.5h41.25c4.142,0,7.5-3.358,7.5-7.5  v-3.75H95V48.125h-8.598L88.826,45.701z M72.5,87.5c0,1.034-0.841,1.875-1.875,1.875h-41.25c-1.034,0-1.875-0.841-1.875-1.875V76.25  c0-1.034,0.841-1.875,1.875-1.875h41.25c1.034,0,1.875,0.841,1.875,1.875V87.5z" />
</svg>
