<svg xmlns="http://www.w3.org/2000/svg" fill-rule="evenodd" stroke-miterlimit="1.41421" viewBox="0 0 100 100" clip-rule="evenodd" stroke-linecap="square">
  <path fill-rule="nonzero" d="M23.0507249 12.4061958l-1.71467894-1.38732885c-.5222974-.4224279-1.0814154-.6365421-1.66171784-.6365421-.51927106 0-1.28039785.17578045-1.9610742 1.01307036l-5.90213728 7.1593332-2.8402286-2.2901896c-.51977545-.4209147-1.07914564-.6357855-1.65995247-.6357855-.52053204 0-1.28443298.1770414-1.9661181 1.01987968l-1.3865723 1.7124091c-.60350444.74574286-.6726061 1.4450817-.6246889 1.90029503.0479172.45571773.2617792 1.12529746 1.00752206 1.7282975l6.47966556 5.24441076c.5225496.42293228 1.0819198.63704648 1.6622222.63704648.519271 0 1.2796412-.17578043 1.959561-1.01206156l8.9774123-10.8103711c.0042873-.0052961.0085746-.0103401.0128619-.0156362.9686839-1.19868644.8150967-2.6561257-.38207658-3.6268272zm-.79492102 2.67579697l-8.98321283 10.81743257c-.24689964.30566126-.510192.45849188-.78937272.45849188-.2259674 0-.4627792-.09986952-.71018325-.30011295l-6.48042214-5.24516733c-.5525609-.44663868-.60526982-.94674287-.15812674-1.49955597l1.38707666-1.71291357c.24689964-.30540906.510192-.4582397.7896249-.4582397.2259674 0 .46277922.10012173.70993106.30036516l4.0056252 3.22961885 6.857707-8.3184248c.24715184-.3051568.5104442-.4577353.7898771-.4577353.2259674 0 .46252702.0998695.70993106.2998608l1.71367016 1.3863201c.5518043.4473953.60451323.9472473.15787454 1.5000604zM4.34133055 40.74997243L10.8212483 45.994131c.52204522.42293227 1.0816676.63755086 1.66222223.63755086.51927106 0 1.27989346-.17603264 1.95930883-1.01256596l8.97716013-10.8103711c.0045395-.0052961.0088268-.01034.0131141-.01563612.9679273-1.19843424.8143401-2.65536912-.3820766-3.62607058l-1.7149312-1.38758105c-.5222974-.4224279-1.0811632-.6365421-1.66121347-.6365421-.51927105 0-1.28065004.17603265-1.96132638 1.01332256l-5.9018851 7.159081-2.8404808-2.2901896c-.52027985-.4209147-1.07939784-.6355333-1.65995247-.6355333-.52078424 0-1.28493738.1770414-1.9663703 1.0206362L3.95874943 37.12138c-.60350442.74649944-.67285825 1.4453339-.62494106 1.9007994.0479172.45546556.2617792 1.1247931 1.00752205 1.72779314zm.79315565-2.67630136l1.38707666-1.71240918c.24689964-.3056613.510192-.4584919.7896249-.4584919.2259674 0 .46277922.1001217.70993106.3001129l4.0056252 3.229871 6.857707-8.3184249c.24715184-.30515686.5104442-.4579875.7901293-.4579875.2259674 0 .46227482.09986953.70942666.29960857l1.71367016 1.38657226c.5520565.4476475.60476543.9469951.15812674 1.4998082l-8.98321283 10.8176848c-.24689964.30591344-.50993982.4587441-.78912052.4587441-.2262196 0-.4630314-.10012175-.71043545-.30061737l-6.48042214-5.2446629c-.5528131-.44714307-.605522-.94674287-.15812674-1.49980816zM23.0509771 51.2282017l-1.71493114-1.38758104c-.5225496-.4226801-1.0816676-.6367943-1.66171784-.6367943-.51952326 0-1.28065005.17603265-1.960822 1.01332256l-5.90213728 7.15882873-2.8404808-2.28968527c-.51977545-.4211669-1.07889345-.6357855-1.65970027-.6357855-.52053204 0-1.284433.17704142-1.96611812 1.01987964L3.9584974 57.1827957c-.60350446.74599505-.6726061 1.4448295-.6246889 1.90029503.0479172.45571773.2617792 1.12529746 1.00752205 1.7282975l6.47991775 5.24390637c.5222974.42293228 1.0816676.63729867 1.66222223.63729867.51901887 0 1.27964127-.17578044 1.95930883-1.01206157l8.97741233-10.81062328c.0042873-.0052961.0085746-.01034002.0128619-.01563613.9681795-1.1981821.8145923-2.6556214-.3820766-3.6260706zm-.79517322 2.6747882l-8.98321283 10.81768476c-.24689964.30566125-.50993982.45849188-.78937272.45849188-.2262196 0-.4627792-.1001217-.71018325-.30036514l-6.48042214-5.24441075c-.5525609-.4466387-.60526982-.94674287-.15812674-1.49955597l1.38707666-1.71291357c.24689964-.305409.510192-.4582396.7896249-.4582396.2259674 0 .46277922.1001217.70993106.3003652l4.0056252 3.2291145 6.857707-8.31792043c.24689964-.30540905.510192-.4579875.7896249-.4579875.2262196 0 .46277922.09986954.71018326.29986077l1.71367016 1.38657227c.5518043.44739528.60451323.94674287.15787454 1.49930378z"/>
  <path stroke="#000" stroke-width=".46" d="M32.322 16.745h36.879v2.585H32.322z" transform="matrix(1.68888 0 0 4.29818 -22.437 -57.65)"/>
  <path stroke="#000" stroke-width=".48" d="M32.322 16.745h36.879v2.585H32.322z" transform="matrix(1.08515 0 0 4.29818 -2.852 -38.99)"/>
  <path stroke="#000" stroke-width=".46" d="M32.322 16.745h36.879v2.585H32.322z" transform="matrix(1.78446 0 0 4.29818 -25.424 -19.135)"/>
  <path stroke="#000" stroke-width=".47" d="M32.322 16.745h36.879v2.585H32.322z" transform="matrix(1.39012 0 0 4.29818 -12.574 .116)"/>
</svg>
