<?xml version="1.0" encoding="UTF-8" standalone="no"?>
<!DOCTYPE svg PUBLIC "-//W3C//DTD SVG 1.1//EN" "http://www.w3.org/Graphics/SVG/1.1/DTD/svg11.dtd">
<svg width="100%" height="100%" viewBox="0 0 100 100" version="1.1" xmlns="http://www.w3.org/2000/svg" xmlns:xlink="http://www.w3.org/1999/xlink" xml:space="preserve" style="fill-rule:evenodd;clip-rule:evenodd;stroke-linejoin:round;stroke-miterlimit:1.41421;">
    <path d="M64.515,81.437L49.995,95.957L35.475,81.437C35.048,81.01 34.357,81.01 33.93,81.437C33.503,81.864 33.503,82.554 33.93,82.981L49.223,98.274C49.436,98.487 49.715,98.594 49.995,98.594C50.275,98.594 50.554,98.487 50.767,98.274L66.06,82.981C66.487,82.554 66.487,81.864 66.06,81.437C65.633,81.01 64.942,81.01 64.515,81.437ZM64.515,66.144L49.995,80.664L35.475,66.144C35.048,65.717 34.357,65.717 33.93,66.144C33.503,66.571 33.503,67.261 33.93,67.689L49.223,82.981C49.436,83.194 49.715,83.301 49.995,83.301C50.275,83.301 50.554,83.194 50.767,82.981L66.06,67.689C66.487,67.261 66.487,66.571 66.06,66.144C65.633,65.717 64.942,65.717 64.515,66.144ZM49.995,1.376C40.946,1.376 33.61,8.714 33.61,17.764L33.61,45.067C33.61,54.117 40.946,61.455 49.995,61.455C59.044,61.455 66.38,54.117 66.38,45.067L66.38,17.764C66.38,8.714 59.044,1.376 49.995,1.376ZM64.195,45.067C64.195,52.898 57.825,59.27 49.995,59.27C42.165,59.27 35.795,52.898 35.795,45.067L35.795,17.764C35.795,9.933 42.165,3.561 49.995,3.561C57.825,3.561 64.195,9.933 64.195,17.764L64.195,45.067ZM49.995,11.754C51.804,11.754 53.272,13.222 53.272,15.031C53.272,16.839 51.804,18.308 49.995,18.308C48.186,18.308 46.718,16.839 46.718,15.031C46.718,13.222 48.186,11.754 49.995,11.754Z" style="fill:black;"/>
</svg>
