<svg xmlns="http://www.w3.org/2000/svg" xmlns:xlink="http://www.w3.org/1999/xlink" version="1.1" x="0px" y="0px" viewBox="0 0 100 100" enable-background="new 0 0 100 100" xml:space="preserve" id="search-icon">
  <path d="M83.384,75.777l-31.305-22.08c2.413-3.484,3.837-7.704,3.837-12.254c0-11.901-9.682-21.583-21.583-21.583  c-11.901,0-21.583,9.682-21.583,21.583s9.682,21.584,21.583,21.584c6.633,0,12.572-3.013,16.534-7.737l31.365,22.122L83.384,75.777z   M34.332,61.027c-10.798,0-19.583-8.785-19.583-19.584c0-10.798,8.785-19.583,19.583-19.583s19.583,8.785,19.583,19.583  C53.915,52.242,45.13,61.027,34.332,61.027z" />
</svg>
