<?xml version="1.0" encoding="UTF-8" standalone="no"?>
<!DOCTYPE svg PUBLIC "-//W3C//DTD SVG 1.1//EN" "http://www.w3.org/Graphics/SVG/1.1/DTD/svg11.dtd">
<svg width="100%" height="100%" viewBox="0 0 64 64" version="1.1" xmlns="http://www.w3.org/2000/svg" xmlns:xlink="http://www.w3.org/1999/xlink" xml:space="preserve" style="fill-rule:evenodd;clip-rule:evenodd;stroke-linejoin:round;stroke-miterlimit:1.41421;">
    <g transform="matrix(0.929315,0,0,0.929315,2.63702,2.20804)">
        <g>
            <path d="M17.069,15.967C16.767,15.665 16.276,15.665 15.974,15.967L0.484,31.457C0.182,31.759 0.182,32.25 0.484,32.552L15.974,48.042C16.124,48.194 16.322,48.27 16.521,48.27C16.719,48.27 16.917,48.194 17.069,48.044C17.371,47.742 17.371,47.251 17.069,46.949L2.126,32.006L17.067,17.064C17.371,16.76 17.371,16.271 17.069,15.967ZM63.538,31.457L48.049,15.967C47.747,15.665 47.256,15.665 46.953,15.967C46.651,16.269 46.651,16.76 46.953,17.063L61.895,32.006L46.953,46.947C46.651,47.249 46.651,47.74 46.953,48.042C47.104,48.194 47.302,48.27 47.5,48.27C47.699,48.27 47.897,48.194 48.049,48.044L63.538,32.554C63.84,32.25 63.84,31.761 63.538,31.457Z" style="fill:black;stroke-width:3.77px;stroke:black;"/>
        </g>
    </g>
</svg>
