<svg width="100%" height="100%" viewBox="0 0 100 100" version="1.1" xmlns="http://www.w3.org/2000/svg" xmlns:xlink="http://www.w3.org/1999/xlink" xml:space="preserve" style="fill-rule:evenodd;clip-rule:evenodd;stroke-linejoin:round;stroke-miterlimit:1.41421;" class="background-icon">
    <g transform="matrix(1.12156,0,0,1.12156,-6.52052,-7.42301)">
        <path d="M62,43L88,43L88,17L79.044,25.995C78.365,25.203 77.625,24.43 76.886,23.678C61.946,8.822 37.84,8.924 23.044,23.904C8.229,38.884 8.332,63.071 23.272,77.925C38.194,92.779 62.3,92.678 77.113,77.697C77.113,77.697 82.061,71.831 83.699,68.701L75.47,65.075C74.266,67.207 70.742,71.359 70.742,71.359C59.414,82.825 40.996,82.902 29.59,71.532C18.165,60.186 18.087,41.686 29.416,30.243C40.725,18.777 59.144,18.699 70.569,30.069C71.328,30.82 72.026,31.614 72.686,32.427L62,43Z" style="fill:black;"/>
    </g>
</svg>
