<svg width="100%" height="100%" viewBox="0 0 100 100" version="1.1" xmlns="http://www.w3.org/2000/svg" xmlns:xlink="http://www.w3.org/1999/xlink" xml:space="preserve" style="fill-rule:evenodd;clip-rule:evenodd;stroke-linejoin:round;stroke-miterlimit:1.41421;" class="background-icon">
    <g transform="matrix(1.85252,0,0,1.85252,4.37291,7.12676)">
        <g>
            <path d="M46,40L46,30C48.754,29.955 47.192,30.03 50,30C50,30 49.829,42.933 49.754,43.933L0.137,44.029C0.096,43.234 0,30 0,30C2.875,29.955 0.899,29.963 4,30L4,40L46,40ZM23,7.297L17.732,12.318C16.608,11.169 16.617,11.124 15.101,9.586L25.068,-0.26C26.108,0.713 34.899,9.586 34.899,9.586C33.684,10.999 33.647,11.065 32.071,12.414L27,7.343L27,32C25.167,31.945 25.164,31.937 23,32L23,7.297Z"/>
        </g>
    </g>
</svg>
