<svg xmlns="http://www.w3.org/2000/svg" xmlns:xlink="http://www.w3.org/1999/xlink" version="1.1" x="0px" y="0px" viewBox="0 0 100 100" enable-background="new 0 0 100 100" xml:space="preserve">
  <path fill="#000000" d="M79.6,63.1l0-9.1C85.6,52.8,90,47.5,90,41.2c0-7.2-5.8-13.1-13.1-13.1c-2.9,0-5.5,0.9-7.7,2.5L57.5,20.2  c0.7-1.6,1-3.3,1-5.1C58.6,7.9,52.7,2,45.5,2S32.4,7.9,32.4,15.1c0,1.9,0.4,3.7,1.2,5.4L22,30.9c-2.2-1.7-4.9-2.7-7.9-2.7  C6.8,28.2,1,34,1,41.2c0,6.6,4.9,12,11.2,12.9l0,8.8C5.9,63.9,1,69.3,1,75.9C1,83.1,6.8,89,14.1,89s13.1-5.8,13.1-13.1  c0-6-4.1-11.1-9.6-12.6l0-9.5c5.5-1.5,9.6-6.6,9.6-12.6c0-2.3-0.6-4.4-1.6-6.3l11.3-10.1c1.7,1.5,3.8,2.6,6.1,3.1l-0.1,16.8  c-5.9,1.2-10.4,6.5-10.4,12.8c0,7.2,5.8,13.1,13.1,13.1s13.1-5.8,13.1-13.1c0-6.3-4.5-11.6-10.4-12.8l0.1-16.8  c2.4-0.5,4.5-1.7,6.2-3.3l11.2,10c-1.1,1.9-1.8,4.2-1.8,6.6c0,6.3,4.5,11.6,10.4,12.8l0,9.1c-5.9,1.2-10.4,6.5-10.4,12.8  c0,7.2,5.8,13.1,13.1,13.1C84.2,89,90,83.1,90,75.9C90,69.6,85.5,64.3,79.6,63.1z" />
</svg>
